<?xml version="1.0" standalone="no"?><!DOCTYPE svg PUBLIC "-//W3C//DTD SVG 1.1//EN" "http://www.w3.org/Graphics/SVG/1.1/DTD/svg11.dtd"><svg t="1544736425403" class="icon" style="" viewBox="0 0 1024 1024" version="1.1" xmlns="http://www.w3.org/2000/svg" p-id="2466" xmlns:xlink="http://www.w3.org/1999/xlink" width="200" height="200"><defs><style type="text/css"></style></defs><path d="M206.4384 582.3488m-9.1136 0a9.1136 9.1136 0 1 0 18.2272 0 9.1136 9.1136 0 1 0-18.2272 0Z" fill="#FFFFFF" p-id="2467"></path><path d="M811.1104 327.5776m-6.9632 0a6.9632 6.9632 0 1 0 13.9264 0 6.9632 6.9632 0 1 0-13.9264 0Z" fill="#FFFFFF" p-id="2468"></path><path d="M784.1792 132.7104m-9.1136 0a9.1136 9.1136 0 1 0 18.2272 0 9.1136 9.1136 0 1 0-18.2272 0Z" fill="#F1BC19" p-id="2469"></path><path d="M211.5584 660.8896m-9.1136 0a9.1136 9.1136 0 1 0 18.2272 0 9.1136 9.1136 0 1 0-18.2272 0Z" fill="#F1BC19" p-id="2470"></path><path d="M506.6752 513.9456m-383.488 0a383.488 383.488 0 1 0 766.976 0 383.488 383.488 0 1 0-766.976 0Z" fill="#C0E5E4" p-id="2471"></path><path d="M839.8848 154.8288m-41.0624 0a41.0624 41.0624 0 1 0 82.1248 0 41.0624 41.0624 0 1 0-82.1248 0Z" fill="#F1BC19" p-id="2472"></path><path d="M880.9472 247.7056m-19.2512 0a19.2512 19.2512 0 1 0 38.5024 0 19.2512 19.2512 0 1 0-38.5024 0Z" fill="#00A5A5" p-id="2473"></path><path d="M788.992 784.384m-19.2512 0a19.2512 19.2512 0 1 0 38.5024 0 19.2512 19.2512 0 1 0-38.5024 0Z" fill="#FBCD59" p-id="2474"></path><path d="M142.2336 651.776m-41.0624 0a41.0624 41.0624 0 1 0 82.1248 0 41.0624 41.0624 0 1 0-82.1248 0Z" fill="#FBCD59" p-id="2475"></path><path d="M246.9888 898.9696m-19.2512 0a19.2512 19.2512 0 1 0 38.5024 0 19.2512 19.2512 0 1 0-38.5024 0Z" fill="#00A5A5" p-id="2476"></path><path d="M775.168 312.1152m-18.432 0a18.432 18.432 0 1 0 36.864 0 18.432 18.432 0 1 0-36.864 0Z" fill="#FFFFFF" p-id="2477"></path><path d="M180.5312 527.7696m-26.0096 0a26.0096 26.0096 0 1 0 52.0192 0 26.0096 26.0096 0 1 0-52.0192 0Z" fill="#FFFFFF" p-id="2478"></path><path d="M669.9008 445.0304a11.3664 11.3664 0 0 0 1.536-7.5776 6.144 6.144 0 0 0-0.6144-4.8128 15.7696 15.7696 0 0 0-2.8672-3.4816l1.1264-1.8432a18.0224 18.0224 0 0 0 1.7408-7.8848 18.2272 18.2272 0 0 0-1.3312-7.9872 33.1776 33.1776 0 0 0-2.8672-4.8128l-1.024-1.536a6.5536 6.5536 0 0 0-0.8192-1.4336 5.8368 5.8368 0 0 0-3.3792-3.584l-1.4336-0.7168a13.9264 13.9264 0 0 0-1.2288-1.2288 11.3664 11.3664 0 0 0-4.4032-2.8672 23.9616 23.9616 0 0 0 7.7824-8.9088c6.0416-12.288-2.56-26.4192-16.2816-32.4608a22.6304 22.6304 0 0 0-1.536-9.6256c0-1.1264-0.512-2.2528-0.7168-3.1744a24.4736 24.4736 0 0 0-3.4816-7.168A32.4608 32.4608 0 0 0 634.88 327.68a29.184 29.184 0 0 0-10.24-6.4512l-4.1984-1.6384a19.3536 19.3536 0 0 0 1.024-9.1136l-1.536-5.5296a26.3168 26.3168 0 0 0-12.288-12.6976 19.3536 19.3536 0 0 0-8.9088-2.4576 18.3296 18.3296 0 0 0-9.1136 0.512 21.8112 21.8112 0 0 0-13.5168-5.2224 16.9984 16.9984 0 0 0-9.6256 2.56 14.6432 14.6432 0 0 0-1.4336-2.048 18.0224 18.0224 0 0 0-6.7584-4.9152l-6.7584-2.9696a17.5104 17.5104 0 0 0-12.6976 0l-1.7408 0.8192a6.2464 6.2464 0 0 0-3.072-2.7648 19.1488 19.1488 0 0 0-5.12-5.2224 19.5584 19.5584 0 0 0-17.92-1.9456 12.288 12.288 0 0 0-6.2464-0.9216 15.9744 15.9744 0 0 0-3.7888 1.024 10.24 10.24 0 0 0-3.7888-5.12 13.5168 13.5168 0 0 0-8.4992-2.3552h-2.9696a11.9808 11.9808 0 0 0-7.9872 4.096 10.752 10.752 0 0 0-2.2528 4.608 19.8656 19.8656 0 0 0-20.48 0.6144 20.48 20.48 0 0 0-5.0176 5.2224 5.8368 5.8368 0 0 0-3.072 2.7648l-1.7408-0.8192a18.3296 18.3296 0 0 0-12.8 0l-6.656 2.9696a18.0224 18.0224 0 0 0-6.7584 4.9152 24.8832 24.8832 0 0 0-1.4336 2.048 18.1248 18.1248 0 0 0-10.24-2.4576 21.1968 21.1968 0 0 0-13.4144 5.2224 17.5104 17.5104 0 0 0-9.216-0.512 20.48 20.48 0 0 0-8.9088 2.4576 26.4192 26.4192 0 0 0-12.1856 12.5952c0 1.8432-1.024 3.7888-1.6384 5.632a18.3296 18.3296 0 0 0 1.1264 9.1136 31.9488 31.9488 0 0 0-4.1984 1.6384A27.7504 27.7504 0 0 0 348.16 327.68a40.2432 40.2432 0 0 0-5.4272 6.4512 27.648 27.648 0 0 0-3.3792 7.2704c0 0.9216 0 1.9456-0.8192 3.072a24.7808 24.7808 0 0 0-1.536 10.24c-13.6192 5.9392-22.2208 20.48-16.1792 32.3584a23.04 23.04 0 0 0 7.68 8.9088 15.5648 15.5648 0 0 0-4.4032 2.8672l-1.1264 1.2288-1.2288 0.7168a5.4272 5.4272 0 0 0-3.3792 3.4816 11.1616 11.1616 0 0 0-0.8192 1.536l-1.1264 1.1264a21.8112 21.8112 0 0 0-2.7648 4.7104 18.3296 18.3296 0 0 0-1.4336 7.9872 19.2512 19.2512 0 0 0 1.7408 7.8848l1.1264 1.8432a16.384 16.384 0 0 0-2.8672 3.584 6.3488 6.3488 0 0 0-0.512 4.7104 10.752 10.752 0 0 0 1.4336 7.5776 17.8176 17.8176 0 0 0-9.4208 18.1248l0.8192 4.7104a18.3296 18.3296 0 0 0 6.8608 10.9568 23.4496 23.4496 0 0 0 7.0656 6.7584 15.7696 15.7696 0 0 0-4.7104 9.1136 15.0528 15.0528 0 0 0-2.048 5.5296 16.9984 16.9984 0 0 0 2.3552 11.5712 20.48 20.48 0 0 0 8.8064 7.5776 16.0768 16.0768 0 0 0 4.4032 4.3008 28.7744 28.7744 0 0 0 10.24 4.3008 23.04 23.04 0 0 0 12.1856-1.3312c0 0.6144 0.9216 1.1264 1.3312 1.8432a17.8176 17.8176 0 0 0-5.12 3.584 16.4864 16.4864 0 0 0 1.024 24.3712 11.6736 11.6736 0 0 0 2.56 1.8432c0 1.9456 0.7168 3.8912 1.024 5.8368a27.648 27.648 0 0 0 7.0656 11.1616l1.536 1.536a21.4016 21.4016 0 0 0 8.6016 5.5296 22.4256 22.4256 0 0 0 10.24 2.6624 19.5584 19.5584 0 0 0 10.24-1.7408 19.0464 19.0464 0 0 0 8.2944-4.9152l1.8432-2.1504a168.96 168.96 0 0 0 72.704 29.3888 24.9856 24.9856 0 0 0 43.008 2.3552 21.9136 21.9136 0 0 0 1.7408-3.072 168.3456 168.3456 0 0 0 69.0176-28.9792 20.48 20.48 0 0 0 1.8432 2.1504 16.384 16.384 0 0 0 8.2944 4.9152 19.3536 19.3536 0 0 0 10.24 1.7408 21.9136 21.9136 0 0 0 10.24-2.56 23.4496 23.4496 0 0 0 8.704-5.5296l1.4336-1.6384a27.5456 27.5456 0 0 0 7.168-11.0592l1.024-5.8368 2.56-1.8432a16.896 16.896 0 0 0 5.632-10.24A16.6912 16.6912 0 0 0 636.928 532.48a19.6608 19.6608 0 0 0-5.12-3.6864l1.3312-1.8432a23.04 23.04 0 0 0 12.1856 1.3312 26.7264 26.7264 0 0 0 10.24-4.1984 17.6128 17.6128 0 0 0 4.4032-4.3008 20.48 20.48 0 0 0 8.8064-7.68 16.9984 16.9984 0 0 0 2.8672-11.5712 15.7696 15.7696 0 0 0-2.048-5.5296 15.2576 15.2576 0 0 0-4.7104-9.0112 24.7808 24.7808 0 0 0 7.0656-6.7584 19.6608 19.6608 0 0 0 6.9632-10.9568c0-1.6384 0-3.1744 0.8192-4.7104a17.92 17.92 0 0 0-9.8304-18.5344z" fill="#512C2B" p-id="2479"></path><path d="M696.32 731.136c-4.1984-21.9136-13.1072-34.816-34.304-40.96a32.6656 32.6656 0 0 1-3.4816-1.3312l-6.3488-2.7648c-12.8-5.2224-88.9856-33.28-88.9856-33.28a19.456 19.456 0 0 1-12.6976-11.0592 89.2928 89.2928 0 0 1-2.3552-29.9008 505.6512 505.6512 0 0 1-51.2 14.6432c-19.456 1.8432-61.44-23.3472-61.44-23.3472s-0.9216 30.72-2.2528 38.0928A17.5104 17.5104 0 0 1 419.84 652.8l-72.9088 26.4192a83.5584 83.5584 0 0 0-22.6304 9.3184 77.7216 77.7216 0 0 0-32.3584 42.5984s-4.8128 33.9968-4.608 35.2256c-0.512 4.7104-0.9216 10.24-1.4336 15.4624 79.4624 53.8624 143.36 68.9152 252.928 64.1024 49.7664-2.1504 123.904-26.7264 162.7136-46.3872-1.9456-43.2128-5.2224-68.4032-5.2224-68.4032z" fill="#895F3F" p-id="2480"></path><path d="M295.2192 714.24c4.3008-10.24 32.9728-30.72 43.9296-33.28l14.9504-5.12 59.5968-23.552c15.4624 39.936 51.9168 204.8 70.0416 243.3024a345.9072 345.9072 0 0 1-96.768-11.5712A534.528 534.528 0 0 1 282.4192 829.44c1.6384-7.8848-0.9216-82.7392 12.8-115.2z" fill="#407990" p-id="2481"></path><path d="M567.1936 665.6l-9.216-3.072a17.2032 17.2032 0 0 1-5.9392-3.072 159.6416 159.6416 0 0 1-58.5728 10.24 36.352 36.352 0 0 1 20.992 4.4032c-30.72 3.4816-66.8672 10.24-86.1184-13.2096a20.48 20.48 0 0 1-3.7888 1.536l-9.216 3.072-2.7648 0.9216c15.36 42.3936 31.5392 83.7632 46.3872 125.5424h82.6368c18.1248-38.7072 31.8464-79.2576 47.3088-119.1936z" fill="#FDFCEF" p-id="2482"></path><path d="M690.2784 706.56c-4.3008-10.24-12.1856-11.1616-23.1424-14.336l-14.9504-5.5296-59.5968-23.04c-15.4624 39.8336-74.752 194.56-92.9792 233.7792A352.1536 352.1536 0 0 0 614.4 883.6096c64.8192-18.3296 90.5216-34.816 90.4192-35.6352-1.2288-8.2944-0.9216-108.9536-14.5408-141.4144z" fill="#407990" p-id="2483"></path><path d="M472.576 713.4208l-18.7392-41.984h74.8544l-18.7392 41.984a21.2992 21.2992 0 0 1-37.376 0z" fill="#B2CBCC" p-id="2484"></path><path d="M508.928 728.8832l16.4864 86.9376H450.56l20.48-86.9376a21.2992 21.2992 0 0 1 37.888 0z" fill="#B2CBCC" p-id="2485"></path><path d="M435.9168 642.56L417.1776 655.36l40.1408 61.44 37.2736-47.2064s-55.9104-14.2336-58.6752-27.0336z" fill="#E1E0D8" p-id="2486"></path><path d="M546.7136 642.56L565.4528 655.36l-40.1408 61.44-37.2736-47.2064s55.9104-14.2336 58.6752-27.0336z" fill="#E1E0D8" p-id="2487"></path><path d="M561.8688 652.288l66.2528 24.6784S532.48 846.848 513.1264 879.616h-59.2896z" fill="#038E8A" p-id="2488"></path><path d="M419.84 649.216L354.9184 675.84S441.5488 864.6656 460.8 897.4336h59.1872z" fill="#00A5A5" p-id="2489"></path><path d="M617.0624 459.5712h-3.6864c-10.24 0-12.6976 3.4816-12.1856-2.6624 0.7168-10.8544-0.7168-54.8864-0.7168-57.1392 0-45.6704-47.7184-82.8416-107.2128-84.8896h-2.3552c-59.5968 2.048-107.2128 39.2192-107.2128 84.8896 0 2.2528-1.536 46.2848-0.7168 57.1392 0 6.144-2.3552 2.1504-12.288 2.6624h-3.6864a22.7328 22.7328 0 0 0-21.4016 16.0768c1.3312 0.8192 6.2464 38.1952 14.2336 52.9408 4.4032 8.2944 11.3664 9.4208 18.5344 14.7456a15.36 15.36 0 0 1 5.8368 10.24 90.624 90.624 0 0 0 27.4432 41.8816c5.9392 5.8368 45.9776 48.5376 80.384 46.3872s74.4448-40.96 80.4864-46.3872a92.16 92.16 0 0 0 27.4432-41.8816 15.5648 15.5648 0 0 1 5.7344-10.24c7.168-5.3248 14.1312-6.4512 18.6368-14.7456 7.9872-14.7456 12.9024-52.1216 14.2336-52.9408a22.7328 22.7328 0 0 0-21.504-16.0768z" fill="#A3754F" p-id="2490"></path><path d="M492.6464 531.7632a23.7568 23.7568 0 0 0 18.1248-8.0896 1.2288 1.2288 0 0 0 0-1.7408 1.2288 1.2288 0 0 0-1.7408 0 20.992 20.992 0 0 1-16.2816 6.3488 21.2992 21.2992 0 0 1-16.384-6.0416 1.024 1.024 0 0 0-0.9216 0 1.1264 1.1264 0 0 0-0.7168 0 1.2288 1.2288 0 0 0 0 1.7408 24.064 24.064 0 0 0 17.92 7.7824zM470.4256 437.3504l4.4032-8.4992a115.2 115.2 0 0 0-58.1632 1.8432l5.5296 8.2944a91.5456 91.5456 0 0 1 48.2304-1.6384zM564.3264 437.3504l4.4032-8.4992a115.2 115.2 0 0 0-58.1632 1.8432l5.632 8.2944a91.2384 91.2384 0 0 1 48.128-1.6384zM443.392 449.3312a12.3904 12.3904 0 0 0-10.24 7.4752 10.24 10.24 0 0 1 1.7408 0 7.4752 7.4752 0 0 1 0 14.9504 5.632 5.632 0 0 1-3.2768-1.024 13.6192 13.6192 0 0 0 12.288 11.776 16.9984 16.9984 0 0 0 0-32.8704zM541.4912 449.3312a12.0832 12.0832 0 0 0-10.24 5.632 6.5536 6.5536 0 0 1 2.3552 0 7.4752 7.4752 0 0 1 0 14.9504 6.144 6.144 0 0 1-5.4272-3.2768 14.7456 14.7456 0 0 0 12.8 16.0768 16.9984 16.9984 0 0 0 0-32.8704zM546.9184 550.8096a1.2288 1.2288 0 0 0 0-1.7408 1.1264 1.1264 0 0 0-1.6384 0A87.04 87.04 0 0 1 492.6464 563.2 86.9376 86.9376 0 0 1 440.32 548.864h-0.7168a1.3312 1.3312 0 0 0-1.024 0 1.2288 1.2288 0 0 0 0 1.7408 94.9248 94.9248 0 0 0 108.4416 0zM391.3728 423.0144a244.3264 244.3264 0 0 1 23.3472-63.5904 13.9264 13.9264 0 0 0-15.36-4.9152 172.9536 172.9536 0 0 0-21.504 86.528 158.72 158.72 0 0 0 7.2704 40.96c3.2768-19.6608 2.048-39.5264 6.2464-58.9824zM593.92 423.0144a240.9472 240.9472 0 0 0-23.4496-63.5904 14.0288 14.0288 0 0 1 15.4624-4.9152 172.032 172.032 0 0 1 21.6064 86.528 158.72 158.72 0 0 1-7.2704 40.96c-3.2768-19.6608-2.048-39.5264-6.3488-58.9824zM506.9824 604.7744a1.536 1.536 0 0 0 1.2288-1.6384 1.4336 1.4336 0 0 0-1.2288-1.536h-26.3168c-0.6144 0-1.1264 0.7168-1.1264 1.536s0.512 1.6384 1.1264 1.6384z" fill="#512C2B" p-id="2491"></path><path d="M608.9728 434.7904c4.8128-50.5856-9.5232-79.36-20.48-93.5936a150.6304 150.6304 0 0 0-96.9728-34.816 152.9856 152.9856 0 0 0-84.0704 24.6784c-19.8656 20.48-43.3152 58.2656-31.5392 103.7312a449.7408 449.7408 0 0 0 10.24 66.7648c1.9456-20.48 2.1504-65.2288 6.3488-84.8896a248.832 248.832 0 0 1 12.9024-41.984c28.0576-31.3344 144.2816-29.9008 174.08 0a248.832 248.832 0 0 1 12.9024 41.984c4.1984 19.6608 4.4032 64.4096 7.7824 83.8656a422.1952 422.1952 0 0 0 8.8064-65.7408z" fill="#512C2B" p-id="2492"></path><path d="M479.8464 455.68c-20.48-24.576-95.9488-7.168-96.0512-7.168 1.4336 5.5296 2.6624 10.9568 3.6864 16.384 5.632 0.6144 6.0416 13.2096 6.5536 17.8176 2.7648 22.4256 17.7152 38.8096 49.152 38.0928a39.5264 39.5264 0 0 0 40.2432-38.912 57.5488 57.5488 0 0 0-3.584-26.2144z m-3.6864 27.4432a32.768 32.768 0 0 1-33.792 32.6656 55.5008 55.5008 0 0 1-5.8368 0c-31.232 0-36.6592-27.4432-37.2736-44.7488a18.6368 18.6368 0 0 1 16.6912-19.456c5.7344-0.512 12.288-0.512 19.7632-0.512 23.3472 0 33.5872 5.5296 36.2496 10.24a39.3216 39.3216 0 0 1 4.1984 21.8112zM501.76 481.8944a39.5264 39.5264 0 0 0 40.96 38.912c31.4368 0.7168 46.3872-15.7696 49.152-38.0928 0-4.608 0.8192-17.2032 6.4512-17.8176 1.1264-5.4272 2.3552-10.8544 3.6864-16.384 0 0-75.776-17.408-95.9488 7.168a54.3744 54.3744 0 0 0-4.3008 26.2144z m11.4688-20.48c2.6624-4.5056 12.9024-10.24 36.2496-10.24 7.4752 0 13.9264 0 19.7632 0.512A18.5344 18.5344 0 0 1 586.0352 471.04c-0.6144 17.3056-5.9392 44.7488-37.2736 44.7488a55.5008 55.5008 0 0 1-5.8368 0 32.9728 32.9728 0 0 1-33.792-32.6656 40.0384 40.0384 0 0 1 4.3008-22.3232z" fill="#F1BC19" p-id="2493"></path><path d="M506.2656 474.9312a23.8592 23.8592 0 0 0-14.1312-4.096 20.48 20.48 0 0 0-13.0048 4.096c-1.4336-3.8912-2.7648-7.68-4.1984-11.4688h35.4304c-1.3312 3.7888-2.6624 7.5776-4.096 11.4688z" fill="#F1BC19" p-id="2494"></path></svg>