<?xml version="1.0" standalone="no"?><!DOCTYPE svg PUBLIC "-//W3C//DTD SVG 1.1//EN" "http://www.w3.org/Graphics/SVG/1.1/DTD/svg11.dtd"><svg t="1544736429359" class="icon" style="" viewBox="0 0 1024 1024" version="1.1" xmlns="http://www.w3.org/2000/svg" p-id="2609" xmlns:xlink="http://www.w3.org/1999/xlink" width="200" height="200"><defs><style type="text/css"></style></defs><path d="M225.8944 608.9728m-9.1136 0a9.1136 9.1136 0 1 0 18.2272 0 9.1136 9.1136 0 1 0-18.2272 0Z" fill="#FFFFFF" p-id="2610"></path><path d="M830.5664 354.304m-6.9632 0a6.9632 6.9632 0 1 0 13.9264 0 6.9632 6.9632 0 1 0-13.9264 0Z" fill="#FFFFFF" p-id="2611"></path><path d="M803.6352 159.4368m-9.1136 0a9.1136 9.1136 0 1 0 18.2272 0 9.1136 9.1136 0 1 0-18.2272 0Z" fill="#F1BC19" p-id="2612"></path><path d="M231.0144 687.616m-9.1136 0a9.1136 9.1136 0 1 0 18.2272 0 9.1136 9.1136 0 1 0-18.2272 0Z" fill="#F1BC19" p-id="2613"></path><path d="M526.1312 540.672m-383.488 0a383.488 383.488 0 1 0 766.976 0 383.488 383.488 0 1 0-766.976 0Z" fill="#F9DBD2" p-id="2614"></path><path d="M859.4432 181.4528m-41.0624 0a41.0624 41.0624 0 1 0 82.1248 0 41.0624 41.0624 0 1 0-82.1248 0Z" fill="#F1BC19" p-id="2615"></path><path d="M900.4032 274.3296m-19.2512 0a19.2512 19.2512 0 1 0 38.5024 0 19.2512 19.2512 0 1 0-38.5024 0Z" fill="#EE3E54" p-id="2616"></path><path d="M808.448 811.1104m-19.2512 0a19.2512 19.2512 0 1 0 38.5024 0 19.2512 19.2512 0 1 0-38.5024 0Z" fill="#FBCD59" p-id="2617"></path><path d="M161.6896 678.5024m-41.0624 0a41.0624 41.0624 0 1 0 82.1248 0 41.0624 41.0624 0 1 0-82.1248 0Z" fill="#FBCD59" p-id="2618"></path><path d="M266.4448 925.696m-19.2512 0a19.2512 19.2512 0 1 0 38.5024 0 19.2512 19.2512 0 1 0-38.5024 0Z" fill="#EE3E54" p-id="2619"></path><path d="M794.624 338.8416m-18.432 0a18.432 18.432 0 1 0 36.864 0 18.432 18.432 0 1 0-36.864 0Z" fill="#FFFFFF" p-id="2620"></path><path d="M199.9872 554.496m-26.0096 0a26.0096 26.0096 0 1 0 52.0192 0 26.0096 26.0096 0 1 0-52.0192 0Z" fill="#FFFFFF" p-id="2621"></path><path d="M629.3504 457.5232c1.3312-15.5648-3.2768-28.9792-2.2528-36.6592-13.6192-16.896-22.2208-36.864-40.96-48.8448a239.3088 239.3088 0 0 0-69.4272-28.9792c-58.368-14.6432-115.712 28.0576-133.7344 83.2512l-0.6144 1.024a202.5472 202.5472 0 0 1 3.7888 30.1056c-15.7696 0-23.7568 8.2944-18.3296 24.8832 0 0 6.144 26.9312 10.24 39.7312a15.36 15.36 0 0 0 15.1552 12.3904v25.6a46.08 46.08 0 0 0 8.704 28.8768c15.4624 22.2208 94.5152 73.728 113.664 71.68 30.72 0 92.16-52.6336 108.4416-78.848a40.96 40.96 0 0 0 4.8128-17.2032v-30.72A15.1552 15.1552 0 0 0 641.4336 522.24c4.096-12.8 10.24-39.5264 10.24-39.7312 5.4272-16.7936-6.5536-25.3952-22.3232-24.9856z" fill="#F6CCA4" p-id="2622"></path><path d="M676.6592 719.36l-3.4816-1.3312-5.9392-2.4576c-12.5952-5.3248-94.8224-33.3824-94.8224-33.3824a19.3536 19.3536 0 0 1-12.4928-11.0592 92.16 92.16 0 0 1-2.3552-29.9008A228.864 228.864 0 0 1 514.2528 655.36c-19.0464 1.9456-52.736-23.2448-52.736-23.2448s-0.9216 30.72-2.2528 37.9904a17.3056 17.3056 0 0 1-12.9024 11.6736l-79.2576 26.8288a80.9984 80.9984 0 0 0-22.2208 9.3184 79.6672 79.6672 0 0 0-33.5872 47.9232c0 1.024-0.512 3.2768-0.9216 6.144-1.4336 7.3728-1.6384 63.7952-1.4336 65.024 0 4.7104-0.9216 10.24-1.3312 15.4624 78.1312 53.8624 141.0048 68.9152 248.7296 64.1024 48.9472-2.1504 121.856-26.7264 160.0512-46.2848-5.0176-96.0512 3.8912-137.6256-39.7312-150.9376z" fill="#EDBC94" p-id="2623"></path><path d="M416.8704 546.2016a20.48 20.1728 90 1 0 40.3456 0 20.48 20.1728 90 1 0-40.3456 0Z" fill="#F4989E" p-id="2624"></path><path d="M571.6992 546.2016a20.48 20.1728 90 1 0 40.3456 0 20.48 20.1728 90 1 0-40.3456 0Z" fill="#F4989E" p-id="2625"></path><path d="M479.1296 588.288a20.48 20.48 0 0 0-0.7168 4.9152c0 14.336 15.872 25.9072 35.328 25.9072s35.4304-11.5712 35.4304-25.9072a20.48 20.48 0 0 0-0.7168-4.9152z" fill="#6D1B18" p-id="2626"></path><path d="M532.48 615.1168a26.2144 26.2144 0 0 0-18.7392-6.144 25.9072 25.9072 0 0 0-18.6368 6.144 45.7728 45.7728 0 0 0 37.376 0z" fill="#EE3E54" p-id="2627"></path><path d="M489.2672 588.288v4.4032c0 3.7888 5.0176 6.8608 11.1616 6.8608h26.9312c6.144 0 11.1616-3.072 11.1616-6.8608v-3.8912z" fill="#FDFCEF" p-id="2628"></path><path d="M420.5568 690.7904c-2.2528 92.16 178.176 97.9968 165.6832-6.8608l49.9712 17.408 15.2576 198.144a463.5648 463.5648 0 0 1-291.2256-13.9264l6.8608-176.9472z" fill="#FBCD59" p-id="2629"></path><path d="M513.7408 569.1392a27.2384 27.2384 0 0 0 20.48-9.216 1.4336 1.4336 0 0 0 0-1.9456 1.3312 1.3312 0 0 0-1.9456 0 26.8288 26.8288 0 0 1-36.7616 0 1.4336 1.4336 0 0 0-1.024 0 1.8432 1.8432 0 0 0-0.9216 0 1.3312 1.3312 0 0 0 0 1.9456 27.0336 27.0336 0 0 0 20.1728 9.216zM522.8544 637.952a0.9216 0.9216 0 0 0 0.8192-0.8192 0.9216 0.9216 0 0 0-0.8192-0.9216h-18.1248a0.8192 0.8192 0 0 0-0.8192 0.9216 0.8192 0.8192 0 0 0 0.8192 0.8192z" fill="#472B29" p-id="2630"></path><path d="M493.1584 445.7472a216.7808 216.7808 0 0 0-75.9808-7.9872 2.2528 2.2528 0 0 0-2.048 1.9456 2.1504 2.1504 0 0 0 1.9456 2.1504s51.9168 9.0112 67.9936 14.6432h0.8192a3.072 3.072 0 0 0 2.1504-0.8192l6.2464-6.9632a1.6384 1.6384 0 0 0 0-1.7408 2.3552 2.3552 0 0 0-1.1264-1.2288zM534.1184 443.8016a213.2992 213.2992 0 0 1 76.3904-3.4816 2.048 2.048 0 0 1 0 3.9936s-52.4288 6.2464-68.8128 10.5472h-0.8192a2.9696 2.9696 0 0 1-2.048-0.9216l-6.3488-7.0656a1.9456 1.9456 0 0 1 0-1.8432 2.3552 2.3552 0 0 1 1.6384-1.2288z" fill="#512C2B" p-id="2631"></path><path d="M456.9088 467.0464a14.336 14.336 0 0 0-12.3904 8.4992 7.2704 7.2704 0 0 1 2.048 0 8.4992 8.4992 0 0 1 0 16.9984 6.9632 6.9632 0 0 1-3.7888-1.2288 15.7696 15.7696 0 0 0 14.1312 13.312 19.1488 19.1488 0 0 0 0-37.1712zM569.4464 467.0464a13.6192 13.6192 0 0 0-11.0592 6.3488 5.9392 5.9392 0 0 1 2.6624-0.6144 8.4992 8.4992 0 0 1 0 16.9984 7.8848 7.8848 0 0 1-6.3488-3.6864 15.1552 15.1552 0 1 0 14.7456-19.0464z" fill="#472B29" p-id="2632"></path><path d="M641.536 372.5312c-4.608-19.456-26.7264-56.4224-49.7664-53.5552a66.6624 66.6624 0 0 0-25.9072-34.816A93.184 93.184 0 0 0 501.76 271.6672c-35.7376 4.8128-78.848 17.3056-102.4 45.7728s-45.4656 69.7344-44.2368 107.4176a132.3008 132.3008 0 0 1 18.2272-20.48 174.8992 174.8992 0 0 0 23.9616 98.6112 197.12 197.12 0 0 1 9.216-66.8672 112.64 112.64 0 0 0 4.8128 30.72c-0.9216-3.1744 46.8992-75.5712 100.7616-93.4912-3.2768 5.632-6.2464 11.3664-8.9088 16.9984s-11.3664 40.96-14.9504 42.1888A154.9312 154.9312 0 0 0 555.9296 378.88a49.9712 49.9712 0 0 0 7.7824-16.4864h4.096c0 1.3312 0.9216 2.56 1.4336 3.7888a154.8288 154.8288 0 0 0 17.1008 26.112c22.6304 31.9488 42.496 71.68 40.1408 110.08 26.3168-37.888 25.7024-85.9136 15.0528-129.8432z" fill="#512C2B" p-id="2633"></path></svg>