<?xml version="1.0" standalone="no"?><!DOCTYPE svg PUBLIC "-//W3C//DTD SVG 1.1//EN" "http://www.w3.org/Graphics/SVG/1.1/DTD/svg11.dtd"><svg t="1544737830770" class="icon" style="" viewBox="0 0 1024 1024" version="1.1" xmlns="http://www.w3.org/2000/svg" p-id="3581" xmlns:xlink="http://www.w3.org/1999/xlink" width="200" height="200"><defs><style type="text/css"></style></defs><path d="M201.8304 580.096m-9.1136 0a9.1136 9.1136 0 1 0 18.2272 0 9.1136 9.1136 0 1 0-18.2272 0Z" fill="#FFFFFF" p-id="3582"></path><path d="M806.5024 325.4272m-6.9632 0a6.9632 6.9632 0 1 0 13.9264 0 6.9632 6.9632 0 1 0-13.9264 0Z" fill="#FFFFFF" p-id="3583"></path><path d="M779.5712 130.4576m-9.1136 0a9.1136 9.1136 0 1 0 18.2272 0 9.1136 9.1136 0 1 0-18.2272 0Z" fill="#F1BC19" p-id="3584"></path><path d="M206.9504 658.6368m-9.1136 0a9.1136 9.1136 0 1 0 18.2272 0 9.1136 9.1136 0 1 0-18.2272 0Z" fill="#F1BC19" p-id="3585"></path><path d="M504.32 511.6928m-383.488 0a383.488 383.488 0 1 0 766.976 0 383.488 383.488 0 1 0-766.976 0Z" fill="#C0E5E4" p-id="3586"></path><path d="M835.3792 152.576m-41.0624 0a41.0624 41.0624 0 1 0 82.1248 0 41.0624 41.0624 0 1 0-82.1248 0Z" fill="#F1BC19" p-id="3587"></path><path d="M876.3392 245.4528m-19.2512 0a19.2512 19.2512 0 1 0 38.5024 0 19.2512 19.2512 0 1 0-38.5024 0Z" fill="#00A5A5" p-id="3588"></path><path d="M784.384 782.1312m-19.2512 0a19.2512 19.2512 0 1 0 38.5024 0 19.2512 19.2512 0 1 0-38.5024 0Z" fill="#FBCD59" p-id="3589"></path><path d="M137.6256 649.6256m-41.0624 0a41.0624 41.0624 0 1 0 82.1248 0 41.0624 41.0624 0 1 0-82.1248 0Z" fill="#FBCD59" p-id="3590"></path><path d="M242.3808 896.7168m-19.2512 0a19.2512 19.2512 0 1 0 38.5024 0 19.2512 19.2512 0 1 0-38.5024 0Z" fill="#00A5A5" p-id="3591"></path><path d="M770.56 309.8624m-18.432 0a18.432 18.432 0 1 0 36.864 0 18.432 18.432 0 1 0-36.864 0Z" fill="#FFFFFF" p-id="3592"></path><path d="M175.9232 525.6192m-26.0096 0a26.0096 26.0096 0 1 0 52.0192 0 26.0096 26.0096 0 1 0-52.0192 0Z" fill="#FFFFFF" p-id="3593"></path><path d="M448.8192 287.8464s-95.8464-62.5664-153.6 28.9792S357.2736 523.4688 317.44 555.7248c47.9232-18.2272 48.7424-92.7744 29.0816-153.6-17.3056-53.4528 19.3536-82.6368 61.44-69.2224 18.0224 5.9392 40.8576-45.056 40.8576-45.056zM575.1808 286.72s95.8464-62.464 153.6 28.9792S666.7264 522.24 706.56 554.8032c-47.9232-18.2272-48.7424-92.7744-29.0816-153.6 17.3056-53.4528-19.3536-82.6368-61.44-69.2224C598.016 337.92 575.1808 286.72 575.1808 286.72z" fill="#472B29" p-id="3594"></path><path d="M634.88 431.616c1.3312-15.4624-3.2768-28.8768-2.2528-36.5568-13.6192-16.7936-22.2208-36.7616-40.96-48.7424A239.3088 239.3088 0 0 0 522.24 317.44c-58.368-14.7456-115.712 28.0576-133.7344 83.2512l-0.6144 1.024a202.5472 202.5472 0 0 1 3.7888 30.1056c-15.7696 0-23.7568 8.2944-18.3296 24.8832 0 0 6.144 26.9312 10.24 39.7312a15.36 15.36 0 0 0 15.1552 12.3904v25.6a46.2848 46.2848 0 0 0 8.3968 28.7744c15.4624 22.2208 94.5152 73.728 113.664 71.68 30.72 0 92.16-52.6336 108.4416-78.848a40.96 40.96 0 0 0 4.8128-17.3056v-30.72a15.2576 15.2576 0 0 0 13.0048-12.1856c4.096-12.8 10.24-39.5264 10.24-39.7312 5.5296-15.7696-6.4512-24.7808-22.4256-24.4736z" fill="#D8AD8F" p-id="3595"></path><path d="M682.3936 693.4528a29.3888 29.3888 0 0 1-3.4816-1.2288l-5.9392-2.4576c-12.5952-5.4272-94.8224-33.3824-94.8224-33.3824a19.456 19.456 0 0 1-12.4928-11.264 91.5456 91.5456 0 0 1-2.4576-29.696 228.864 228.864 0 0 1-43.3152 14.5408c-19.0464 1.9456-52.736-23.2448-52.736-23.2448s-0.9216 30.72-2.2528 37.9904a17.3056 17.3056 0 0 1-12.9024 11.6736l-79.2576 26.4192a77.9264 77.9264 0 0 0-22.2208 9.3184A79.36 79.36 0 0 0 317.44 740.0448h-0.512c0 1.024-0.512 3.2768-0.9216 6.144-1.4336 7.3728-1.6384 74.0352-1.4336 75.264 0 4.7104-0.9216 15.7696-1.3312 21.1968 99.0208 52.5312 124.5184 51.2 232.3456 51.2 47.4112 0 134.656-40.96 176.0256-65.9456-4.8128-96.4608 4.4032-121.344-39.2192-134.4512z" fill="#B2876B" p-id="3596"></path><path d="M422.6048 520.3968a20.48 20.1728 90 1 0 40.3456 0 20.48 20.1728 90 1 0-40.3456 0Z" fill="#F4989E" p-id="3597"></path><path d="M577.4336 520.3968a20.48 20.1728 90 1 0 40.3456 0 20.48 20.1728 90 1 0-40.3456 0Z" fill="#F4989E" p-id="3598"></path><path d="M483.2256 562.176a18.8416 18.8416 0 0 0-0.6144 4.8128c0 14.336 15.7696 25.9072 35.328 25.9072S552.96 581.3248 552.96 566.9888a18.8416 18.8416 0 0 0 0-4.8128z" fill="#6D1B18" p-id="3599"></path><path d="M536.576 588.9024a31.3344 31.3344 0 0 0-37.2736 0 45.4656 45.4656 0 0 0 37.2736 0z" fill="#EE3E54" p-id="3600"></path><path d="M493.3632 562.176v4.4032c0 3.7888 5.12 6.9632 11.264 6.9632h26.8288c6.144 0 11.264-3.1744 11.264-6.9632v-4.4032z" fill="#FDFCEF" p-id="3601"></path><path d="M426.2912 664.9856c-2.2528 92.16 178.176 97.9968 165.6832-6.8608L641.9456 675.84l14.4384 187.392s-152.9856 65.2288-290.5088 4.1984l6.9632-184.32z" fill="#83CCB7" p-id="3602"></path><path d="M517.9392 542.72a27.2384 27.2384 0 0 0 20.48-9.216 1.3312 1.3312 0 0 0 0-1.9456 1.4336 1.4336 0 0 0-1.9456 0 26.7264 26.7264 0 0 1-36.6592 0 1.536 1.536 0 0 0-1.1264 0 1.1264 1.1264 0 0 0-0.8192 0 1.3312 1.3312 0 0 0 0 1.9456 27.2384 27.2384 0 0 0 20.0704 9.216zM527.0528 611.84a0.9216 0.9216 0 0 0 0-1.8432h-18.2272a0.9216 0.9216 0 0 0 0 1.8432z" fill="#472B29" p-id="3603"></path><path d="M497.0496 419.84a215.04 215.04 0 0 0-76.0832-7.8848 2.048 2.048 0 1 0 0 3.9936s51.9168 9.0112 67.9936 14.6432h0.8192A3.072 3.072 0 0 0 491.52 430.08l6.2464-6.9632a1.6384 1.6384 0 0 0 0-1.7408 2.4576 2.4576 0 0 0-0.7168-1.536zM537.9072 417.5872a213.4016 213.4016 0 0 1 76.4928-3.9936 2.1504 2.1504 0 0 1 1.9456 2.048 2.1504 2.1504 0 0 1-2.048 1.9456s-52.3264 6.2464-68.7104 11.1616h-0.8192a2.56 2.56 0 0 1-2.048-0.9216l-5.9392-7.2704a1.9456 1.9456 0 0 1 0-1.8432 2.6624 2.6624 0 0 1 1.1264-1.1264z" fill="#512C2B" p-id="3604"></path><path d="M460.8 440.832a14.336 14.336 0 0 0-12.3904 8.4992 7.2704 7.2704 0 0 1 2.048 0 8.4992 8.4992 0 0 1 0 16.9984 8.192 8.192 0 0 1-3.7888-1.1264A15.7696 15.7696 0 0 0 460.8 478.0032a19.1488 19.1488 0 0 0 0-37.1712zM573.44 440.832a13.6192 13.6192 0 0 0-11.0592 6.3488 7.7824 7.7824 0 0 1 2.6624-0.6144 8.4992 8.4992 0 0 1 0 16.9984 7.5776 7.5776 0 0 1-6.3488-3.6864A15.1552 15.1552 0 1 0 573.44 440.832z" fill="#472B29" p-id="3605"></path><path d="M515.1744 264.8064c-113.5616 2.4576-144.5888 99.0208-150.016 119.0912 2.9696-3.1744 6.0416-6.3488 9.216-9.216-6.8608 36.0448 13.9264 65.536 29.5936 95.5392C388.4032 440.32 460.8 361.5744 515.3792 343.6544c-3.2768 5.632-6.2464 11.3664-9.0112 17.1008s-11.5712 40.96-15.2576 42.0864a157.7984 157.7984 0 0 0 68.7104-53.76 51.8144 51.8144 0 0 0 7.8848-16.5888c-5.0176 66.048 66.1504 100.9664 63.7952 139.776C686.08 368.64 607.744 262.7584 515.1744 264.8064z" fill="#512C2B" p-id="3606"></path><path d="M500.4288 436.3264c-23.04-28.0576-109.7728-8.192-109.8752-8.192 1.6384 6.3488 2.9696 12.5952 4.1984 18.8416 6.4512 0.6144 6.8608 15.0528 7.4752 20.48 3.1744 25.6 20.48 44.4416 56.32 43.52a45.1584 45.1584 0 0 0 45.9776-44.4416 63.3856 63.3856 0 0 0-4.096-30.208z m-4.096 31.4368a37.5808 37.5808 0 0 1-38.7072 37.376 48.4352 48.4352 0 0 1-6.656 0c-35.84 0-41.984-31.4368-42.7008-51.2a21.1968 21.1968 0 0 1 19.0464-22.2208c6.656-0.6144 14.0288-0.6144 22.6304-0.6144 26.7264 0 38.4 6.3488 41.472 11.4688a45.4656 45.4656 0 0 1 4.9152 25.1904zM525.824 466.432a45.056 45.056 0 0 0 45.9776 44.4416c36.0448 0.9216 53.1456-17.92 56.32-43.52 0.6144-5.3248 1.024-19.7632 7.4752-20.48 1.2288-6.2464 2.56-12.4928 4.1984-18.8416 0 0-86.8352-19.8656-109.8752 8.192a63.3856 63.3856 0 0 0-4.096 30.208z m13.1072-23.8592c3.072-5.12 14.7456-11.4688 40.96-11.4688 8.6016 0 15.9744 0 22.6304 0.6144a21.1968 21.1968 0 0 1 19.0464 22.2208c-0.7168 19.8656-6.8608 51.2-42.7008 51.2a48.4352 48.4352 0 0 1-6.656 0 37.5808 37.5808 0 0 1-38.7072-37.376 45.4656 45.4656 0 0 1 5.4272-25.1904z" fill="#00A5A5" p-id="3607"></path><path d="M530.7392 458.3424a27.5456 27.5456 0 0 0-16.1792-4.608 23.9616 23.9616 0 0 0-14.9504 4.608l-4.7104-13.0048h40.96z" fill="#00A5A5" p-id="3608"></path></svg>