<?xml version="1.0" standalone="no"?><!DOCTYPE svg PUBLIC "-//W3C//DTD SVG 1.1//EN" "http://www.w3.org/Graphics/SVG/1.1/DTD/svg11.dtd"><svg t="1544736409543" class="icon" style="" viewBox="0 0 1024 1024" version="1.1" xmlns="http://www.w3.org/2000/svg" p-id="1884" xmlns:xlink="http://www.w3.org/1999/xlink" width="200" height="200"><defs><style type="text/css"></style></defs><path d="M201.8304 580.096m-9.1136 0a9.1136 9.1136 0 1 0 18.2272 0 9.1136 9.1136 0 1 0-18.2272 0Z" fill="#FFFFFF" p-id="1885"></path><path d="M806.5024 325.4272m-6.9632 0a6.9632 6.9632 0 1 0 13.9264 0 6.9632 6.9632 0 1 0-13.9264 0Z" fill="#FFFFFF" p-id="1886"></path><path d="M779.5712 130.4576m-9.1136 0a9.1136 9.1136 0 1 0 18.2272 0 9.1136 9.1136 0 1 0-18.2272 0Z" fill="#F1BC19" p-id="1887"></path><path d="M206.9504 658.6368m-9.1136 0a9.1136 9.1136 0 1 0 18.2272 0 9.1136 9.1136 0 1 0-18.2272 0Z" fill="#F1BC19" p-id="1888"></path><path d="M504.32 511.6928m-383.488 0a383.488 383.488 0 1 0 766.976 0 383.488 383.488 0 1 0-766.976 0Z" fill="#FCE0A2" p-id="1889"></path><path d="M835.3792 152.576m-41.0624 0a41.0624 41.0624 0 1 0 82.1248 0 41.0624 41.0624 0 1 0-82.1248 0Z" fill="#F1BC19" p-id="1890"></path><path d="M876.3392 245.4528m-19.2512 0a19.2512 19.2512 0 1 0 38.5024 0 19.2512 19.2512 0 1 0-38.5024 0Z" fill="#EE3E54" p-id="1891"></path><path d="M784.384 782.1312m-19.2512 0a19.2512 19.2512 0 1 0 38.5024 0 19.2512 19.2512 0 1 0-38.5024 0Z" fill="#FBCD59" p-id="1892"></path><path d="M137.6256 649.6256m-41.0624 0a41.0624 41.0624 0 1 0 82.1248 0 41.0624 41.0624 0 1 0-82.1248 0Z" fill="#FBCD59" p-id="1893"></path><path d="M242.3808 896.7168m-19.2512 0a19.2512 19.2512 0 1 0 38.5024 0 19.2512 19.2512 0 1 0-38.5024 0Z" fill="#EE3E54" p-id="1894"></path><path d="M770.56 309.8624m-18.432 0a18.432 18.432 0 1 0 36.864 0 18.432 18.432 0 1 0-36.864 0Z" fill="#FFFFFF" p-id="1895"></path><path d="M175.9232 525.6192m-26.0096 0a26.0096 26.0096 0 1 0 52.0192 0 26.0096 26.0096 0 1 0-52.0192 0Z" fill="#FFFFFF" p-id="1896"></path><path d="M598.3232 279.3472a31.744 31.744 0 0 0-0.8192-7.0656 28.16 28.16 0 0 0 0.8192-6.656 30.72 30.72 0 0 0-22.7328-28.9792 34.0992 34.0992 0 0 0-34.7136-30.72 39.936 39.936 0 0 0-69.8368-3.072 35.0208 35.0208 0 0 0-8.0896-0.9216 30.72 30.72 0 0 0-32.5632 29.4912v1.6384a34.4064 34.4064 0 0 0-26.112 32.3584 31.6416 31.6416 0 0 0 8.192 21.0944 27.2384 27.2384 0 0 0-6.2464 17.2032 30.72 30.72 0 0 0 31.9488 28.9792 33.28 33.28 0 0 0 12.9024-2.4576 26.7264 26.7264 0 0 0 27.7504 24.2688 30.72 30.72 0 0 0 8.704-1.2288 39.8336 39.8336 0 0 0 30.72 13.4144 37.376 37.376 0 0 0 37.9904-29.9008 33.9968 33.9968 0 0 0 23.04-28.2624 32.9728 32.9728 0 0 0 19.0464-29.184z" fill="#3A2221" p-id="1897"></path><path d="M506.5728 254.0544c-117.4528 0-167.1168 88.4736-131.9936 172.9536 1.6384 3.8912 17.5104 0.6144 17.92-3.4816 4.5056-48.0256 30.72-88.2688 114.0736-67.8912 83.1488-20.48 109.568 19.8656 114.176 67.8912 0 4.096 12.4928 4.1984 14.1312 0 35.1232-84.2752-10.9568-169.472-128.3072-169.472z" fill="#512C2B" p-id="1898"></path><path d="M628.0192 433.7664c1.3312-15.4624-3.2768-28.7744-2.2528-36.4544-13.6192-16.7936-22.2208-36.6592-40.96-48.64a242.3808 242.3808 0 0 0-69.0176-28.8768c-58.1632-14.5408-115.3024 27.9552-133.12 82.944l-0.6144 1.024a155.9552 155.9552 0 0 1 1.8432 29.9008c-15.6672 0-21.7088 8.2944-16.2816 24.7808 0 0 6.0416 26.8288 10.24 39.6288a15.1552 15.1552 0 0 0 15.0528 12.288v25.4976a45.568 45.568 0 0 0 8.8064 28.672c15.2576 22.2208 94.0032 73.4208 112.64 71.68 30.72 0 92.16-52.4288 107.9296-78.5408a38.7072 38.7072 0 0 0 4.8128-17.2032v-30.72a15.1552 15.1552 0 0 0 13.0048-12.0832c3.9936-12.8 10.24-39.424 10.24-39.6288 5.0176-16.0768-6.5536-24.576-22.3232-24.2688z" fill="#D8AD8F" p-id="1899"></path><path d="M506.5728 290.816c-69.8368 0-126.3616 51.2-126.3616 115.0976a45.9776 45.9776 0 0 0 4.4032 17.6128c15.4624-56.5248 86.016-83.5584 122.0608-83.5584s105.8816 23.4496 122.0608 83.5584a48.8448 48.8448 0 0 0 4.3008-17.6128c0-63.488-56.6272-115.0976-126.464-115.0976z" fill="#EE3E54" p-id="1900"></path><path d="M675.1232 694.3744a29.3888 29.3888 0 0 1-3.4816-1.2288l-6.0416-2.4576c-12.5952-5.3248-94.4128-33.28-94.4128-33.28a19.0464 19.0464 0 0 1-12.4928-11.0592 90.8288 90.8288 0 0 1-2.3552-29.696 228.0448 228.0448 0 0 1-43.008 14.5408c-19.0464 1.9456-52.5312-23.1424-52.5312-23.1424s-1.024 30.72-2.2528 37.7856a16.9984 16.9984 0 0 1-12.9024 11.5712l-78.848 26.3168a80.9984 80.9984 0 0 0-22.2208 9.3184 79.4624 79.4624 0 0 0-33.3824 47.7184h-0.512c0 1.024-0.512 3.1744-0.9216 6.144a53.9648 53.9648 0 0 0-1.3312 13.7216c-0.512 4.7104 1.024 74.5472 0.512 80.0768 72.3968 42.496 122.88 52.9408 230.1952 52.9408 47.104 0 135.0656-37.9904 175.5136-58.6752-4.3008-95.5392 3.8912-127.1808-39.5264-140.5952z" fill="#B2876B" p-id="1901"></path><path d="M309.1456 840.704A372.1216 372.1216 0 0 0 573.44 889.0368c47.616-8.192 99.6352-38.4 141.4144-54.0672-4.5056-95.5392 5.632-124.0064-37.7856-137.3184-8.3968-2.6624-40.2432-17.92-40.2432-17.92s-81.92 46.08-118.0672 53.3504a710.5536 710.5536 0 0 1-205.824 10.8544c-0.8192 3.584-2.2528 79.7696-3.7888 96.768z" fill="#EE3E54" p-id="1902"></path><path d="M681.984 699.6992a39.5264 39.5264 0 0 0-5.2224-2.048c-8.3968-2.6624-40.2432-17.92-40.2432-17.92s-81.92 46.08-118.0672 53.3504a710.5536 710.5536 0 0 1-205.824 10.8544c-0.8192 3.1744-2.1504 16.1792-3.4816 31.5392 228.864 40.3456 340.992-58.6752 372.8384-75.776z" fill="#EE8670" p-id="1903"></path><path d="M416.5632 522.1376a20.3776 20.0704 90 1 0 40.1408 0 20.3776 20.0704 90 1 0-40.1408 0Z" fill="#F4989E" p-id="1904"></path><path d="M570.6752 522.1376a20.3776 20.0704 90 1 0 40.1408 0 20.3776 20.0704 90 1 0-40.1408 0Z" fill="#F4989E" p-id="1905"></path><path d="M520.4992 613.0688a0.9216 0.9216 0 0 0 0.8192-0.9216 0.9216 0.9216 0 0 0-0.8192-0.8192h-18.1248a0.9216 0.9216 0 0 0-0.8192 0.8192 0.9216 0.9216 0 0 0 0.8192 0.9216z" fill="#472B29" p-id="1906"></path><path d="M490.1888 398.6432a211.0464 211.0464 0 0 0-74.0352 17.408 2.2528 2.2528 0 0 0-1.4336 2.56 2.3552 2.3552 0 0 0 2.56 1.3312s51.8144-8.6016 68.7104-8.4992h0.9216a2.3552 2.3552 0 0 0 1.6384-1.4336l3.6864-8.6016a1.536 1.536 0 0 0 0-1.7408 2.3552 2.3552 0 0 0-2.048-1.024zM536.2688 397.1072a212.6848 212.6848 0 0 1 73.1136 20.48 2.2528 2.2528 0 0 1 1.3312 2.56 2.3552 2.3552 0 0 1-2.6624 1.2288s-51.2-10.9568-68.1984-11.5712h-0.9216a2.9696 2.9696 0 0 1-1.6384-1.536l-3.1744-8.9088a1.7408 1.7408 0 0 1 0-1.8432 2.56 2.56 0 0 1 2.1504-0.4096zM456.3968 432.4352a14.0288 14.0288 0 0 0-12.288 8.3968 6.5536 6.5536 0 0 1 2.048 0 8.3968 8.3968 0 0 1 0 16.7936 6.8608 6.8608 0 0 1-3.7888-1.1264 15.4624 15.4624 0 0 0 14.0288 13.2096 18.944 18.944 0 0 0 0-36.9664zM568.4224 432.4352a13.5168 13.5168 0 0 0-10.9568 6.2464 7.68 7.68 0 0 1 2.6624-0.512 8.4992 8.4992 0 0 1 0 16.896 7.68 7.68 0 0 1-6.3488-3.6864 16.7936 16.7936 0 0 0 14.6432 18.0224 18.944 18.944 0 0 0 0-36.9664z" fill="#472B29" p-id="1907"></path><path d="M514.2528 513.9456a17.1008 17.1008 0 0 0 13.824-7.68 2.9696 2.9696 0 0 0 0-3.584 1.7408 1.7408 0 0 0-2.8672 0 13.7216 13.7216 0 0 1-21.1968 0 1.8432 1.8432 0 0 0-2.9696 0 3.072 3.072 0 0 0 0 3.584 17.1008 17.1008 0 0 0 13.2096 7.68z" fill="#472B29" p-id="1908"></path><path d="M468.5824 546.7136a22.1184 22.1184 0 0 0-0.9216 6.3488c0 18.6368 20.48 33.792 46.08 33.792s46.08-15.1552 46.08-33.792a22.1184 22.1184 0 0 0-0.9216-6.3488z" fill="#6D1B18" p-id="1909"></path><path d="M538.0096 581.632a33.28 33.28 0 0 0-24.2688-8.192 33.6896 33.6896 0 0 0-24.3712 7.9872 59.2896 59.2896 0 0 0 48.64 0z" fill="#EE3E54" p-id="1910"></path><path d="M481.28 546.7136V552.96c0 4.9152 6.656 9.0112 14.6432 9.0112h35.0208c7.9872 0 14.5408-4.096 14.5408-9.0112v-5.7344a1.3312 1.3312 0 0 0 0-0.6144z" fill="#FDFCEF" p-id="1911"></path></svg>