<?xml version="1.0" standalone="no"?><!DOCTYPE svg PUBLIC "-//W3C//DTD SVG 1.1//EN" "http://www.w3.org/Graphics/SVG/1.1/DTD/svg11.dtd"><svg t="1544736413536" class="icon" style="" viewBox="0 0 1024 1024" version="1.1" xmlns="http://www.w3.org/2000/svg" p-id="2026" xmlns:xlink="http://www.w3.org/1999/xlink" width="200" height="200"><defs><style type="text/css"></style></defs><path d="M212.48 577.3312m-9.1136 0a9.1136 9.1136 0 1 0 18.2272 0 9.1136 9.1136 0 1 0-18.2272 0Z" fill="#FFFFFF" p-id="2027"></path><path d="M817.152 322.6624m-6.9632 0a6.9632 6.9632 0 1 0 13.9264 0 6.9632 6.9632 0 1 0-13.9264 0Z" fill="#FFFFFF" p-id="2028"></path><path d="M790.2208 127.7952m-9.1136 0a9.1136 9.1136 0 1 0 18.2272 0 9.1136 9.1136 0 1 0-18.2272 0Z" fill="#F1BC19" p-id="2029"></path><path d="M217.4976 655.9744m-9.1136 0a9.1136 9.1136 0 1 0 18.2272 0 9.1136 9.1136 0 1 0-18.2272 0Z" fill="#F1BC19" p-id="2030"></path><path d="M514.8672 509.0304m-383.488 0a383.488 383.488 0 1 0 766.976 0 383.488 383.488 0 1 0-766.976 0Z" fill="#F9DBD2" p-id="2031"></path><path d="M845.9264 149.8112m-41.0624 0a41.0624 41.0624 0 1 0 82.1248 0 41.0624 41.0624 0 1 0-82.1248 0Z" fill="#F1BC19" p-id="2032"></path><path d="M886.9888 242.688m-19.2512 0a19.2512 19.2512 0 1 0 38.5024 0 19.2512 19.2512 0 1 0-38.5024 0Z" fill="#EE8670" p-id="2033"></path><path d="M794.9312 779.4688m-19.2512 0a19.2512 19.2512 0 1 0 38.5024 0 19.2512 19.2512 0 1 0-38.5024 0Z" fill="#FBCD59" p-id="2034"></path><path d="M148.1728 646.8608m-41.0624 0a41.0624 41.0624 0 1 0 82.1248 0 41.0624 41.0624 0 1 0-82.1248 0Z" fill="#FBCD59" p-id="2035"></path><path d="M253.0304 894.0544m-19.2512 0a19.2512 19.2512 0 1 0 38.5024 0 19.2512 19.2512 0 1 0-38.5024 0Z" fill="#EE8670" p-id="2036"></path><path d="M781.1072 307.2m-18.432 0a18.432 18.432 0 1 0 36.864 0 18.432 18.432 0 1 0-36.864 0Z" fill="#FFFFFF" p-id="2037"></path><path d="M186.4704 522.8544m-26.0096 0a26.0096 26.0096 0 1 0 52.0192 0 26.0096 26.0096 0 1 0-52.0192 0Z" fill="#FFFFFF" p-id="2038"></path><path d="M672.0512 380.416a194.56 194.56 0 0 0-62.6688-86.9376 145.6128 145.6128 0 0 0-102.4-28.8768 145.3056 145.3056 0 0 0-102.4 28.8768 194.56 194.56 0 0 0-62.7712 86.9376 245.1456 245.1456 0 0 0 18.3296 207.1552A184.32 184.32 0 0 0 491.52 675.84a2.048 2.048 0 0 1 0 0.8192 142.2336 142.2336 0 0 0 16.1792 0 141.1072 141.1072 0 0 0 16.0768 0V675.84a183.7056 183.7056 0 0 0 130.7648-88.1664 245.1456 245.1456 0 0 0 17.5104-207.2576zM507.1872 634.88a449.6384 449.6384 0 0 1 0-293.4784 449.6384 449.6384 0 0 1 0 293.4784z" fill="#472B29" p-id="2039"></path><path d="M630.272 428.9536c1.3312-15.5648-3.2768-28.8768-2.3552-36.6592-13.6192-16.896-22.2208-36.7616-40.96-48.8448a243.4048 243.4048 0 0 0-69.4272-28.9792c-58.368-14.6432-115.712 28.0576-133.8368 83.2512a3.1744 3.1744 0 0 1-0.512 1.024 221.184 221.184 0 0 1 3.7888 30.1056c-15.7696 0-23.8592 8.2944-18.3296 24.8832 0 0 6.0416 26.9312 10.24 39.8336a15.2576 15.2576 0 0 0 15.1552 12.288v25.7024a46.08 46.08 0 0 0 8.8064 28.7744c15.36 22.3232 94.5152 73.728 113.5616 71.68 30.72 0 92.16-52.6336 108.4416-78.848a39.6288 39.6288 0 0 0 4.9152-17.3056v-30.72a15.4624 15.4624 0 0 0 13.0048-12.1856c3.9936-12.9024 10.24-39.5264 10.24-39.8336 4.9152-15.9744-6.9632-24.4736-22.7328-24.1664z" fill="#D8AD8F" p-id="2040"></path><path d="M677.4784 690.7904l-3.3792-1.2288-5.9392-2.4576C655.36 681.6768 573.44 653.6192 573.44 653.6192a18.6368 18.6368 0 0 1-12.4928-11.0592 89.2928 89.2928 0 0 1-2.3552-29.9008 225.792 225.792 0 0 1-43.3152 14.6432c-19.1488 1.8432-52.736-23.2448-52.736-23.2448s-1.024 30.72-2.2528 37.9904a16.9984 16.9984 0 0 1-13.0048 11.5712l-79.1552 26.4192a82.944 82.944 0 0 0-22.3232 9.3184A79.872 79.872 0 0 0 312.2176 737.28a44.4416 44.4416 0 0 0-0.9216 6.2464 56.4224 56.4224 0 0 0-1.9456 14.2336c0 4.8128-0.512 62.7712-1.024 68.3008 86.1184 59.2896 126.464 61.44 234.2912 61.44 47.4112 0 133.12-30.72 175.2064-46.08-4.5056-96.3584 3.3792-137.216-40.3456-150.6304z" fill="#B2876B" p-id="2041"></path><path d="M417.792 517.632a20.48 20.1728 90 1 0 40.3456 0 20.48 20.1728 90 1 0-40.3456 0Z" fill="#F4989E" p-id="2042"></path><path d="M572.6208 517.632a20.48 20.1728 90 1 0 40.3456 0 20.48 20.1728 90 1 0-40.3456 0Z" fill="#F4989E" p-id="2043"></path><path d="M478.4128 559.4112a19.5584 19.5584 0 0 0-0.6144 4.9152c0 14.2336 15.7696 25.9072 35.328 25.9072s35.328-11.6736 35.328-25.9072a15.872 15.872 0 0 0-0.7168-4.9152z" fill="#6D1B18" p-id="2044"></path><path d="M531.7632 586.24a25.2928 25.2928 0 0 0-18.6368-6.144 25.7024 25.7024 0 0 0-18.7392 6.144 45.7728 45.7728 0 0 0 18.7392 3.9936 45.2608 45.2608 0 0 0 18.6368-3.9936z" fill="#EE3E54" p-id="2045"></path><path d="M488.5504 559.4112v4.3008c0 3.8912 5.0176 6.9632 11.264 6.9632h26.8288c6.144 0 11.1616-3.072 11.1616-6.9632v-4.8128z" fill="#FDFCEF" p-id="2046"></path><path d="M312.1152 824.4224l61.952 6.0416 7.8848-152.6784s-40.3456 5.3248-54.9888 27.2384c-19.0464 28.5696-14.848 119.3984-14.848 119.3984zM716.8 827.8016l-67.1744 6.144L634.88 672.768s49.4592 10.24 65.3312 32.768C720.9984 734.8224 716.8 827.8016 716.8 827.8016z" fill="#EAB94E" p-id="2047"></path><path d="M421.376 662.2208c-2.1504 92.16 178.2784 97.9968 165.7856-6.7584l49.9712 17.3056 14.9504 194.56a363.52 363.52 0 0 1-280.6784-6.3488l4.3008-181.6576z" fill="#FBCD59" p-id="2048"></path><path d="M488.448 890.88c15.4624 3.9936 30.208-3.7888 44.2368-1.8432l-4.5056-139.776h-35.7376z" fill="#EF8F70" p-id="2049"></path><path d="M539.7504 733.9008l-11.776 22.528h-35.6352l-11.4688-22.528 29.4912-23.9616 29.3888 23.9616z" fill="#EC795A" p-id="2050"></path><path d="M510.3616 709.8368l-37.5808 39.6288L399.36 674.4064c0-3.1744 48.9472-21.6064 48.9472-21.6064l15.0528 14.0288zM510.3616 709.8368l37.5808 39.6288 74.8544-77.312-51.2-19.3536-15.0528 14.0288z" fill="#E6E7E8" p-id="2051"></path><path d="M513.1264 540.2624a27.4432 27.4432 0 0 0 20.48-9.216 1.536 1.536 0 0 0 0-2.048 1.4336 1.4336 0 0 0-1.9456 0 27.136 27.136 0 0 1-36.7616 0 1.2288 1.2288 0 0 0-1.024 0h-0.9216a1.536 1.536 0 0 0 0 2.048 27.2384 27.2384 0 0 0 20.1728 9.216zM522.24 609.0752a0.9216 0.9216 0 0 0 0-1.8432h-18.2272a0.9216 0.9216 0 0 0 0 1.8432z" fill="#472B29" p-id="2052"></path><path d="M492.1344 416.8704a215.04 215.04 0 0 0-75.9808-7.9872 2.2528 2.2528 0 0 0-2.1504 1.9456 2.3552 2.3552 0 0 0 1.9456 2.1504 677.6832 677.6832 0 0 1 68.096 14.6432h0.8192a2.4576 2.4576 0 0 0 2.048-0.7168l6.3488-6.9632a2.048 2.048 0 0 0 0-1.8432 2.2528 2.2528 0 0 0-1.1264-1.2288zM533.0944 414.8224a215.04 215.04 0 0 1 76.288-3.9936 2.048 2.048 0 0 1 0 4.096s-52.3264 6.2464-68.7104 11.0592h-0.8192a2.6624 2.6624 0 0 1-2.048-0.8192l-5.9392-7.2704a1.6384 1.6384 0 0 1 0-1.8432 2.2528 2.2528 0 0 1 1.2288-1.2288z" fill="#512C2B" p-id="2053"></path><path d="M455.7824 438.0672a14.1312 14.1312 0 0 0-12.288 8.4992 6.5536 6.5536 0 0 1 2.048 0 8.4992 8.4992 0 0 1 0 16.896 6.8608 6.8608 0 0 1-3.7888-1.1264 15.5648 15.5648 0 0 0 14.0288 13.312 19.1488 19.1488 0 0 0 0-37.2736zM568.4224 438.0672a13.5168 13.5168 0 0 0-11.0592 6.4512 5.9392 5.9392 0 0 1 2.6624-0.6144 8.4992 8.4992 0 0 1 0 16.896 7.4752 7.4752 0 0 1-6.3488-3.6864 15.1552 15.1552 0 1 0 14.7456-19.0464z" fill="#472B29" p-id="2054"></path><path d="M505.9584 296.96c-40.96-13.1072-157.3888 40.96-125.44 131.072 1.2288 0 120.6272-68.1984 125.44-92.16 8.6016 24.4736 124.2112 92.16 125.3376 92.16 32.0512-89.2928-84.48-143.872-125.3376-131.072z" fill="#472B29" p-id="2055"></path><path d="M523.8784 323.3792a135.2704 135.2704 0 0 0-79.9744 5.4272 127.1808 127.1808 0 0 0-61.44 55.3984 132.1984 132.1984 0 0 1 56.7296-64.6144 149.504 149.504 0 0 1 87.3472-16.4864z" fill="#EF8F70" p-id="2056"></path><path d="M654.4384 317.44h-2.8672a114.7904 114.7904 0 0 0-21.4016 0 157.0816 157.0816 0 0 0-17.5104 2.2528c-1.536 0-6.3488 0.7168-7.0656 0.8192a25.088 25.088 0 0 0-5.12 1.7408 7.0656 7.0656 0 0 0-1.3312-0.6144l-10.24-6.144-10.24-5.8368a7.5776 7.5776 0 0 0-1.2288-0.9216 16.4864 16.4864 0 0 0-1.1264-5.3248 68.9152 68.9152 0 0 0-2.6624-6.656c-1.9456-5.5296-4.3008-11.1616-6.8608-16.6912a115.3024 115.3024 0 0 0-10.24-18.944 25.9072 25.9072 0 0 0-1.8432-2.2528s-20.48 1.024-40.1408 36.5568a75.0592 75.0592 0 0 0-6.5536 27.5456c0 3.9936 0 5.7344 3.584 6.5536a55.1936 55.1936 0 0 0 18.1248 3.072c2.3552 0 4.8128 0 7.168 0.512a146.6368 146.6368 0 0 0 25.8048 0c0 0.6144 23.2448 14.4384 23.8592 14.336a155.8528 155.8528 0 0 0 13.312 22.528c1.3312 2.048 2.56 4.096 3.9936 6.144a56.1152 56.1152 0 0 0 11.6736 14.4384c2.3552 2.56 3.8912 1.9456 7.2704 0a73.728 73.728 0 0 0 20.48-19.456c20.3776-34.7136 11.0592-52.736 11.1616-53.6576z" fill="#EC795A" p-id="2057"></path><path d="M495.616 433.664c-23.04-28.0576-109.7728-8.192-109.8752-8.192 1.536 6.3488 2.9696 12.5952 4.1984 18.7392 6.4512 0.7168 6.8608 15.1552 7.4752 20.48 3.072 25.4976 20.48 44.4416 56.2176 43.52a45.2608 45.2608 0 0 0 46.08-44.4416 65.7408 65.7408 0 0 0-4.096-30.1056z m-4.096 31.3344a37.5808 37.5808 0 0 1-38.6048 37.4784h-6.7584c-35.84 0-41.984-31.4368-42.7008-51.2a21.1968 21.1968 0 0 1 19.1488-22.2208 216.8832 216.8832 0 0 1 22.528-0.7168c26.8288 0 38.5024 6.4512 41.5744 11.5712a45.4656 45.4656 0 0 1 4.8128 25.088zM521.0112 463.7696a45.1584 45.1584 0 0 0 45.9776 44.4416c36.0448 0.9216 53.1456-18.0224 56.2176-43.52 0.7168-5.3248 1.024-19.7632 7.4752-20.48 1.3312-6.144 2.6624-12.3904 4.3008-18.7392 0 0-86.9376-19.8656-109.8752 8.192a62.6688 62.6688 0 0 0-4.096 30.1056zM534.016 440.32c3.1744-5.12 14.7456-11.5712 41.5744-11.5712a215.8592 215.8592 0 0 1 22.528 0.7168 21.1968 21.1968 0 0 1 19.1488 22.2208c-0.7168 19.7632-6.8608 51.2-42.7008 51.2h-6.656a37.6832 37.6832 0 0 1-38.7072-37.4784 45.4656 45.4656 0 0 1 4.8128-25.088z" fill="#FBCD59" p-id="2058"></path><path d="M525.9264 455.68a27.5456 27.5456 0 0 0-16.1792-5.12 23.6544 23.6544 0 0 0-14.9504 4.7104c-1.6384-4.4032-3.1744-8.704-4.8128-13.0048h40.96c-1.9456 4.7104-3.4816 9.0112-5.0176 13.4144z" fill="#FBCD59" p-id="2059"></path></svg>