<?xml version="1.0" standalone="no"?><!DOCTYPE svg PUBLIC "-//W3C//DTD SVG 1.1//EN" "http://www.w3.org/Graphics/SVG/1.1/DTD/svg11.dtd"><svg t="1544736421556" class="icon" style="" viewBox="0 0 1024 1024" version="1.1" xmlns="http://www.w3.org/2000/svg" p-id="2321" xmlns:xlink="http://www.w3.org/1999/xlink" width="200" height="200"><defs><style type="text/css"></style></defs><path d="M225.8944 598.7328m-9.1136 0a9.1136 9.1136 0 1 0 18.2272 0 9.1136 9.1136 0 1 0-18.2272 0Z" fill="#FFFFFF" p-id="2322"></path><path d="M830.5664 344.064m-6.9632 0a6.9632 6.9632 0 1 0 13.9264 0 6.9632 6.9632 0 1 0-13.9264 0Z" fill="#FFFFFF" p-id="2323"></path><path d="M231.0144 677.376m-9.1136 0a9.1136 9.1136 0 1 0 18.2272 0 9.1136 9.1136 0 1 0-18.2272 0Z" fill="#F1BC19" p-id="2324"></path><path d="M528.384 530.432m-383.488 0a383.488 383.488 0 1 0 766.976 0 383.488 383.488 0 1 0-766.976 0Z" fill="#E4E4F9" p-id="2325"></path><path d="M859.4432 171.2128m-41.0624 0a41.0624 41.0624 0 1 0 82.1248 0 41.0624 41.0624 0 1 0-82.1248 0Z" fill="#F1BC19" p-id="2326"></path><path d="M900.4032 264.0896m-19.2512 0a19.2512 19.2512 0 1 0 38.5024 0 19.2512 19.2512 0 1 0-38.5024 0Z" fill="#A1A1CA" p-id="2327"></path><path d="M808.448 800.8704m-19.2512 0a19.2512 19.2512 0 1 0 38.5024 0 19.2512 19.2512 0 1 0-38.5024 0Z" fill="#FBCD59" p-id="2328"></path><path d="M161.6896 668.2624m-41.0624 0a41.0624 41.0624 0 1 0 82.1248 0 41.0624 41.0624 0 1 0-82.1248 0Z" fill="#FBCD59" p-id="2329"></path><path d="M266.4448 915.456m-19.2512 0a19.2512 19.2512 0 1 0 38.5024 0 19.2512 19.2512 0 1 0-38.5024 0Z" fill="#A1A1CA" p-id="2330"></path><path d="M794.624 328.6016m-18.432 0a18.432 18.432 0 1 0 36.864 0 18.432 18.432 0 1 0-36.864 0Z" fill="#FFFFFF" p-id="2331"></path><path d="M199.9872 544.256m-26.0096 0a26.0096 26.0096 0 1 0 52.0192 0 26.0096 26.0096 0 1 0-52.0192 0Z" fill="#FFFFFF" p-id="2332"></path><path d="M675.84 393.4208a194.56 194.56 0 0 0-62.6688-86.9376 145.6128 145.6128 0 0 0-102.4-28.8768 145.3056 145.3056 0 0 0-102.4 28.8768 194.56 194.56 0 0 0-62.7712 86.9376 245.1456 245.1456 0 0 0 18.3296 207.1552 184.32 184.32 0 0 0 130.8672 88.1664v0.8192H527.0528v-0.8192a184.32 184.32 0 0 0 130.7648-88.1664A245.1456 245.1456 0 0 0 675.84 393.4208zM510.464 647.68a449.6384 449.6384 0 0 1 0-293.4784 449.6384 449.6384 0 0 1 0 293.4784z" fill="#472B29" p-id="2333"></path><path d="M629.3504 450.56c1.3312-15.5648-3.2768-28.8768-2.2528-36.6592-13.6192-16.896-22.2208-36.7616-40.96-48.8448a242.176 242.176 0 0 0-69.4272-28.9792c-58.368-14.6432-115.712 28.0576-133.7344 83.2512l-0.6144 1.024a205.824 205.824 0 0 1 3.584 30.208c-15.7696 0-23.7568 8.2944-18.3296 24.8832 0 0 6.144 26.9312 10.24 39.8336a15.2576 15.2576 0 0 0 15.1552 12.288v25.7024a45.9776 45.9776 0 0 0 8.704 28.7744c15.4624 22.3232 94.5152 73.728 113.664 71.68 30.72 0 92.16-52.6336 108.4416-78.848a40.96 40.96 0 0 0 4.8128-17.3056v-30.72a15.4624 15.4624 0 0 0 13.0048-12.1856c4.096-12.9024 10.24-39.5264 10.24-39.8336 5.2224-16.2816-6.7584-24.2688-22.528-24.2688z" fill="#D8AD8F" p-id="2334"></path><path d="M676.864 715.4688a32.6656 32.6656 0 0 1-3.4816-1.3312l-5.9392-2.3552c-12.0832-5.2224-94.8224-33.4848-94.8224-33.4848a19.3536 19.3536 0 0 1-12.4928-11.0592 115.2 115.2 0 0 1-2.7648-33.0752 225.28 225.28 0 0 1-41.8816 13.7216c-19.1488 1.8432-53.76-19.2512-53.76-19.2512s-0.9216 30.72-2.2528 38.0928a17.2032 17.2032 0 0 1-12.9024 11.5712l-79.2576 26.4192a80.9984 80.9984 0 0 0-22.2208 9.3184 79.6672 79.6672 0 0 0-33.5872 47.9232s-3.072 69.9392-2.8672 71.68c0 4.8128-0.7168 3.584-1.2288 9.0112 74.6496 59.4944 163.84 66.8672 271.2576 66.8672 47.3088 0 96.768-28.0576 136.9088-47.104-4.5056-96.4608 4.9152-133.632-38.7072-146.944z" fill="#B2876B" p-id="2335"></path><path d="M416.8704 539.0336a20.48 20.1728 90 1 0 40.3456 0 20.48 20.1728 90 1 0-40.3456 0Z" fill="#F4989E" p-id="2336"></path><path d="M571.6992 539.0336a20.48 20.1728 90 1 0 40.3456 0 20.48 20.1728 90 1 0-40.3456 0Z" fill="#F4989E" p-id="2337"></path><path d="M477.4912 580.8128a19.5584 19.5584 0 0 0-0.6144 4.9152c0 14.2336 15.7696 25.9072 35.328 25.9072s35.328-11.6736 35.328-25.9072a19.5584 19.5584 0 0 0-0.6144-4.9152z" fill="#6D1B18" p-id="2338"></path><path d="M530.8416 607.6416a31.3344 31.3344 0 0 0-37.2736 0 45.4656 45.4656 0 0 0 37.2736 0z" fill="#EE3E54" p-id="2339"></path><path d="M487.6288 580.8128v4.8128c0 3.8912 5.12 6.9632 11.264 6.9632h26.8288c6.144 0 11.264-3.072 11.264-6.9632v-4.3008-0.512z" fill="#FDFCEF" p-id="2340"></path><path d="M436.736 684.3392c15.7696 13.2096 133.12 19.456 164.9664-6.9632l49.7664 17.7152L665.6 888.4224s-143.36 59.6992-289.3824-4.8128l6.9632-181.1456z" fill="#8889B9" p-id="2341"></path><path d="M512 561.664a27.2384 27.2384 0 0 0 20.48-9.216 1.4336 1.4336 0 0 0 0-2.048 1.4336 1.4336 0 0 0-1.9456 0 27.0336 27.0336 0 0 1-36.6592 0 1.6384 1.6384 0 0 0-1.1264-0.512 1.1264 1.1264 0 0 0-0.8192 0 1.4336 1.4336 0 0 0 0 2.048 27.2384 27.2384 0 0 0 20.0704 9.728zM521.3184 630.4768a0.9216 0.9216 0 0 0 0-1.8432h-18.2272a0.9216 0.9216 0 0 0 0 1.8432z" fill="#472B29" p-id="2342"></path><path d="M491.52 438.272a215.04 215.04 0 0 0-76.288-8.192 2.1504 2.1504 0 0 0-2.048 1.9456c0 1.024 0.7168 1.8432 1.9456 2.1504a677.1712 677.1712 0 0 1 67.9936 14.6432h0.8192a2.4576 2.4576 0 0 0 2.1504-0.8192l6.2464-6.8608a1.7408 1.7408 0 0 0 0-1.8432 2.048 2.048 0 0 0-0.8192-1.024zM532.48 436.224a215.7568 215.7568 0 0 1 76.3904-3.9936 2.2528 2.2528 0 0 1 1.9456 2.048 2.1504 2.1504 0 0 1-2.048 2.048s-52.3264 6.2464-68.7104 11.0592h-0.8192a2.56 2.56 0 0 1-2.048-0.9216l-5.9392-7.168a2.048 2.048 0 0 1 0-1.8432 2.4576 2.4576 0 0 1 1.2288-1.2288z" fill="#512C2B" p-id="2343"></path><path d="M454.9632 459.4688a14.336 14.336 0 0 0-12.3904 8.4992 7.0656 7.0656 0 0 1 2.048 0 8.4992 8.4992 0 0 1 0 16.896 7.168 7.168 0 0 1-3.7888-1.1264 15.7696 15.7696 0 0 0 14.1312 13.312 19.1488 19.1488 0 0 0 0-37.2736zM567.5008 459.4688a13.7216 13.7216 0 0 0-11.0592 6.4512 5.9392 5.9392 0 0 1 2.6624-0.6144 8.4992 8.4992 0 0 1 0 16.896 7.5776 7.5776 0 0 1-6.3488-3.6864 15.1552 15.1552 0 1 0 14.7456-19.0464z" fill="#472B29" p-id="2344"></path><path d="M623.0016 699.4944c10.9568-14.2336 28.5696-23.04 37.1712-38.8096a42.8032 42.8032 0 0 0 2.048-36.2496 48.9472 48.9472 0 0 0-4.5056-8.192 75.5712 75.5712 0 0 0-32.3584-2.8672 74.4448 74.4448 0 0 0-63.8976 70.5536A73.216 73.216 0 0 0 573.44 727.6544a22.1184 22.1184 0 0 0 39.6288-8.2944 53.248 53.248 0 0 1 9.9328-19.8656z" fill="#472B29" p-id="2345"></path><path d="M615.1168 706.56c-8.6016 11.1616-22.3232 18.0224-29.0816 30.72a33.3824 33.3824 0 0 0-1.536 28.2624 32.768 32.768 0 0 0 3.4816 6.4512 57.7536 57.7536 0 0 0 65.536-87.1424 17.3056 17.3056 0 0 0-30.72 6.4512 42.1888 42.1888 0 0 1-7.68 15.2576z" fill="#472B29" p-id="2346"></path><path d="M591.6672 769.024a34.6112 34.6112 0 0 0-14.5408 26.8288c0 9.216 3.1744 18.1248 3.8912 27.3408a46.3872 46.3872 0 0 1-16.896 39.1168 62.7712 62.7712 0 0 0 85.4016-59.5968 47.2064 47.2064 0 0 0-7.2704-25.1904 37.5808 37.5808 0 0 0-50.5856-8.4992z" fill="#472B29" p-id="2347"></path><path d="M509.2352 310.272c-40.96-13.1072-157.3888 40.96-125.44 131.072 1.2288 0 13.9264 52.6336 34.5088 70.4512a53.0432 53.0432 0 0 1-10.752-45.3632 131.584 131.584 0 0 1 12.288-33.792c43.52-20.48 76.0832-72.4992 89.8048-83.968 13.0048 10.9568 49.664 58.1632 88.1664 80.5888a140.9024 140.9024 0 0 1 13.5168 37.1712 53.4528 53.4528 0 0 1-10.24 45.3632c20.48-17.8176 33.28-70.4512 34.5088-70.4512 31.0272-89.7024-85.504-144.384-126.3616-131.072z" fill="#472B29" p-id="2348"></path><path d="M527.1552 336.2816a135.2704 135.2704 0 0 0-79.9744 5.5296 127.1808 127.1808 0 0 0-61.44 55.3984 132.1984 132.1984 0 0 1 56.7296-64.6144 149.6064 149.6064 0 0 1 87.4496-16.4864z" fill="#A1A1CA" p-id="2349"></path><path d="M657.7152 330.8544l-2.3552-0.512a113.664 113.664 0 0 0-21.2992 0 156.2624 156.2624 0 0 0-17.6128 2.1504l-7.0656 0.9216a20.48 20.48 0 0 0-5.12 1.7408 7.0656 7.0656 0 0 0-1.3312-0.6144l-10.24-6.144-10.24-5.8368a7.5776 7.5776 0 0 0-1.2288-0.9216 19.5584 19.5584 0 0 0-1.024-5.3248c0-0.7168-2.048-5.3248-2.7648-6.7584-1.9456-5.4272-4.3008-11.0592-6.8608-16.5888a115.3024 115.3024 0 0 0-10.24-18.944 25.9072 25.9072 0 0 0-1.8432-2.2528s-20.48 1.024-40.1408 36.5568a75.0592 75.0592 0 0 0-6.3488 27.648c0 3.9936 0 5.7344 3.584 6.4512a52.8384 52.8384 0 0 0 18.1248 3.1744h7.168a146.6368 146.6368 0 0 0 25.8048 0.512c0 0.6144 23.2448 14.4384 23.8592 14.336a161.792 161.792 0 0 0 13.312 22.528c1.3312 2.048 2.56 4.096 3.9936 6.144a56.1152 56.1152 0 0 0 11.6736 14.4384c2.3552 2.56 3.9936 1.9456 7.2704 0a75.3664 75.3664 0 0 0 20.48-19.456c19.6608-34.7136 10.3424-52.8384 10.4448-53.248z" fill="#8889B9" p-id="2350"></path><path d="M555.1104 293.1712a4.3008 4.3008 0 0 1-5.9392 1.8432 4.7104 4.7104 0 0 1 4.608-8.0896 4.608 4.608 0 0 1 1.3312 6.2464zM539.5456 311.9104a4.3008 4.3008 0 0 1-5.9392 1.8432A4.5056 4.5056 0 0 1 532.48 307.2a4.4032 4.4032 0 0 1 5.9392-1.8432 4.5056 4.5056 0 0 1 1.1264 6.5536zM532.48 335.2576a4.5056 4.5056 0 0 1-5.9392 1.9456 4.608 4.608 0 0 1-1.4336-6.2464 4.4032 4.4032 0 0 1 6.0416-1.8432 4.608 4.608 0 0 1 1.3312 6.144zM564.736 314.1632a4.3008 4.3008 0 0 1-5.9392 1.8432 4.5056 4.5056 0 0 1-1.4336-6.144 4.5056 4.5056 0 0 1 6.0416-1.9456 4.7104 4.7104 0 0 1 1.3312 6.2464zM554.0864 334.6432a4.4032 4.4032 0 0 1-5.9392 1.9456 4.608 4.608 0 0 1-1.4336-6.2464 4.4032 4.4032 0 0 1 6.0416-1.8432 4.608 4.608 0 0 1 1.3312 6.144zM575.7952 334.0288a4.3008 4.3008 0 0 1-5.9392 1.8432 4.4032 4.4032 0 0 1-1.3312-6.144 4.3008 4.3008 0 0 1 5.9392-2.048 4.5056 4.5056 0 0 1 1.3312 6.3488zM601.088 348.9792a4.3008 4.3008 0 0 1-5.9392 1.8432 4.608 4.608 0 0 1-1.3312-6.144 4.4032 4.4032 0 0 1 5.9392-1.9456 4.5056 4.5056 0 0 1 1.3312 6.2464zM624.64 349.184a4.4032 4.4032 0 0 1-5.9392 1.9456 4.608 4.608 0 0 1-1.4336-6.2464 4.4032 4.4032 0 0 1 6.0416-1.8432 4.608 4.608 0 0 1 1.3312 6.144zM647.9872 348.16a4.4032 4.4032 0 0 1-5.9392 1.9456 4.608 4.608 0 0 1-1.4336-6.2464 4.4032 4.4032 0 0 1 6.0416-1.8432 4.608 4.608 0 0 1 1.3312 6.144zM640 371.2a4.5056 4.5056 0 0 1-6.0416 1.8432 4.7104 4.7104 0 0 1-1.3312-6.2464 4.4032 4.4032 0 0 1 5.9392-1.8432 4.608 4.608 0 0 1 1.4336 6.2464zM625.7664 390.5536a4.5056 4.5056 0 0 1-5.9392 1.9456 4.608 4.608 0 0 1-1.4336-6.2464 4.3008 4.3008 0 0 1 5.9392-1.8432 4.5056 4.5056 0 0 1 1.4336 6.144zM612.6592 369.3568a4.4032 4.4032 0 0 1-5.9392 1.8432 4.5056 4.5056 0 0 1-1.3312-6.2464 4.3008 4.3008 0 0 1 5.9392-1.8432 4.5056 4.5056 0 0 1 1.3312 6.2464z" fill="#FFFFFF" p-id="2351"></path></svg>