<?xml version="1.0" standalone="no"?><!DOCTYPE svg PUBLIC "-//W3C//DTD SVG 1.1//EN" "http://www.w3.org/Graphics/SVG/1.1/DTD/svg11.dtd"><svg t="1544736446919" class="icon" style="" viewBox="0 0 1024 1024" version="1.1" xmlns="http://www.w3.org/2000/svg" p-id="3162" xmlns:xlink="http://www.w3.org/1999/xlink" width="200" height="200"><defs><style type="text/css"></style></defs><path d="M206.4384 577.024m-9.1136 0a9.1136 9.1136 0 1 0 18.2272 0 9.1136 9.1136 0 1 0-18.2272 0Z" fill="#FFFFFF" p-id="3163"></path><path d="M811.1104 322.3552m-6.9632 0a6.9632 6.9632 0 1 0 13.9264 0 6.9632 6.9632 0 1 0-13.9264 0Z" fill="#FFFFFF" p-id="3164"></path><path d="M784.1792 127.3856m-9.1136 0a9.1136 9.1136 0 1 0 18.2272 0 9.1136 9.1136 0 1 0-18.2272 0Z" fill="#F1BC19" p-id="3165"></path><path d="M211.5584 655.5648m-9.1136 0a9.1136 9.1136 0 1 0 18.2272 0 9.1136 9.1136 0 1 0-18.2272 0Z" fill="#F1BC19" p-id="3166"></path><path d="M506.6752 508.6208m-383.488 0a383.488 383.488 0 1 0 766.976 0 383.488 383.488 0 1 0-766.976 0Z" fill="#FCE0A2" p-id="3167"></path><path d="M839.8848 149.504m-41.0624 0a41.0624 41.0624 0 1 0 82.1248 0 41.0624 41.0624 0 1 0-82.1248 0Z" fill="#F1BC19" p-id="3168"></path><path d="M880.9472 242.3808m-19.2512 0a19.2512 19.2512 0 1 0 38.5024 0 19.2512 19.2512 0 1 0-38.5024 0Z" fill="#EE3E54" p-id="3169"></path><path d="M788.992 779.0592m-19.2512 0a19.2512 19.2512 0 1 0 38.5024 0 19.2512 19.2512 0 1 0-38.5024 0Z" fill="#FBCD59" p-id="3170"></path><path d="M142.2336 646.5536m-41.0624 0a41.0624 41.0624 0 1 0 82.1248 0 41.0624 41.0624 0 1 0-82.1248 0Z" fill="#FBCD59" p-id="3171"></path><path d="M246.9888 893.6448m-19.2512 0a19.2512 19.2512 0 1 0 38.5024 0 19.2512 19.2512 0 1 0-38.5024 0Z" fill="#EE3E54" p-id="3172"></path><path d="M775.168 306.7904m-18.432 0a18.432 18.432 0 1 0 36.864 0 18.432 18.432 0 1 0-36.864 0Z" fill="#FFFFFF" p-id="3173"></path><path d="M180.5312 522.5472m-26.0096 0a26.0096 26.0096 0 1 0 52.0192 0 26.0096 26.0096 0 1 0-52.0192 0Z" fill="#FFFFFF" p-id="3174"></path><path d="M696.32 725.9136c-4.1984-22.016-13.1072-34.9184-34.304-40.96l-3.4816-1.2288-6.0416-2.4576C639.3856 675.84 563.2 647.4752 563.2 647.4752a19.1488 19.1488 0 0 1-12.6976-11.0592 88.6784 88.6784 0 0 1-2.3552-29.7984 487.936 487.936 0 0 1-51.2 14.5408c-19.456 1.8432-61.44-23.2448-61.44-23.2448s-0.9216 30.72-2.2528 37.9904A17.3056 17.3056 0 0 1 419.84 647.4752l-72.9088 26.5216a80.4864 80.4864 0 0 0-22.6304 9.3184 77.0048 77.0048 0 0 0-32.3584 42.5984s-4.8128 33.8944-4.608 35.1232c-0.512 4.8128-0.9216 10.24-1.4336 15.4624 79.4624 53.8624 143.36 68.9152 252.928 64.1024 49.7664-2.1504 123.904-26.7264 162.7136-46.2848-1.9456-43.3152-5.2224-68.4032-5.2224-68.4032z" fill="#E5AC80" p-id="3175"></path><path d="M661.7088 685.056l-3.4816-1.2288-6.0416-2.4576c-7.8848-3.3792-39.936-15.36-63.2832-24.064h-1.1264c-25.7024 13.2096-62.3616 32.9728-96.0512 32.9728s-67.4816-17.92-96.1536-32.9728l-3.1744 0.8192-45.3632 16.4864a80.4864 80.4864 0 0 0-22.6304 9.3184 77.0048 77.0048 0 0 0-32.3584 42.5984s-4.8128 33.8944-4.608 35.1232c-0.512 4.8128-0.9216 55.808-1.4336 61.44 79.4624 53.8624 143.36 68.9152 252.928 64.1024 49.7664-2.1504 123.904-26.7264 162.7136-46.2848-2.048-43.3152-5.632-114.176-5.632-114.176-4.1984-22.4256-13.1072-35.328-34.304-41.6768z" fill="#FDFCEF" p-id="3176"></path><path d="M490.8032 901.632A414.6176 414.6176 0 0 0 721.2032 839.68c-3.6864-47.0016-10.24-108.2368-17.2032-119.0912a206.848 206.848 0 0 0-52.224-48.3328 273.3056 273.3056 0 0 0-69.3248-33.4848l-90.0096 179.2-80.1792-184.32a272.6912 272.6912 0 0 0-73.0112 30.72A207.6672 207.6672 0 0 0 286.72 709.12c-7.8848 10.24-17.2032 70.656-23.3472 117.3504a415.232 415.232 0 0 0 227.4304 75.1616z" fill="#EAE6D0" p-id="3177"></path><path d="M581.8368 639.488l-3.584 7.168 28.5696 0.8192c-6.5536-2.7648-13.4144-5.4272-20.48-7.7824zM387.2768 641.6384l28.7744 0.8192-3.2768-7.5776h-4.608q-10.8544 3.072-20.8896 6.7584zM572.3136 658.6368l-3.584 7.168 76.9024 2.048c-3.9936-2.56-8.2944-5.12-12.8-7.5776zM347.3408 659.968l77.2096 2.048-3.1744-7.3728-60.8256-1.6384c-4.608 2.3552-9.0112 4.608-13.2096 6.9632zM663.7568 680.448L563.2 677.7856l-3.584 7.168 114.0736 3.072a418.816 418.816 0 0 1-9.9328-7.5776zM318.8736 678.6048l114.176 3.072-2.9696-7.3728-101.2736-2.7648c-3.6864 2.4576-6.9632 4.3008-9.9328 7.0656zM549.4784 704.1024l144.5888 3.7888-7.168-7.3728L552.96 696.9344zM441.6512 701.2352l-3.1744-7.3728-134.0416-3.4816c-2.7648 2.4576-5.2224 4.8128-7.4752 7.0656zM704.1024 720.2816l-160.5632-4.1984-3.584 7.168 167.1168 4.4032a31.744 31.744 0 0 0-2.9696-7.3728zM282.9312 716.8l167.6288 4.096-3.1744-7.3728L286.72 709.2224a34.6112 34.6112 0 0 0-3.7888 7.5776zM709.9392 739.84l-176.0256-4.608-3.584 7.168 180.8384 5.12c-0.4096-2.9696-0.8192-5.3248-1.2288-7.68zM277.7088 735.6416l181.0432 4.8128-3.2768-7.3728-176.128-4.608c-0.512 2.2528-1.1264 4.608-1.6384 7.168zM713.1136 759.296l-188.8256-5.0176-3.584 7.2704 193.3312 5.12q-0.4096-3.7888-0.9216-7.3728zM273.8176 754.9952l193.4336 5.12-3.1744-7.3728L275.1488 747.52c-0.4096 2.56-0.8192 4.9152-1.3312 7.4752zM715.4688 778.752l-200.704-5.3248-3.6864 7.168 204.8 5.4272c0.2048-2.4576-0.1024-4.8128-0.4096-7.2704zM270.5408 774.2464l204.8 5.4272-3.1744-7.3728-200.4992-5.3248c-0.4096 2.4576-0.7168 4.8128-1.1264 7.2704zM717.6192 798.72l-212.48-6.144-3.584 7.168 216.7808 5.7344c-0.3072-2.4576-0.512-4.8128-0.7168-6.7584zM267.5712 793.6l216.7808 5.7344-3.072-7.3728-212.48-5.632c-0.512 2.1504-0.9216 4.8128-1.2288 7.2704zM264.8064 812.8512l455.2704 12.0832c0-2.4576 0-4.8128-0.7168-7.2704l-223.8464-5.9392-3.072 6.2464-2.7648-6.4512L266.24 805.5808c-0.8192 2.4576-1.1264 4.9152-1.4336 7.2704zM262.9632 826.4704l8.8064 5.9392 441.4464 11.776 7.9872-4.9152v-2.1504L263.168 824.9344a7.8848 7.8848 0 0 0-0.2048 1.536zM305.7664 852.6848l372.4288 10.24c4.8128-2.2528 9.5232-4.5056 14.2336-6.9632l-400.4864-10.24c5.0176 2.048 9.216 4.1984 13.824 6.9632zM350.4128 873.2672l282.112 7.3728c6.3488-2.048 12.6976-4.3008 18.944-6.7584l-319.5904-8.3968c6.0416 2.7648 12.288 4.9152 18.5344 7.7824zM556.6464 898.1504c12.0832-1.536 23.9616-3.6864 35.6352-6.3488l-202.3424-5.3248c11.6736 3.1744 23.3472 5.9392 35.328 8.192z" fill="#F1BC19" p-id="3178"></path><path d="M617.0624 454.2464h-3.6864c-10.24-0.512-12.6976 3.4816-12.1856-2.6624 0.7168-10.8544-0.7168-54.8864-0.7168-57.1392 0-45.568-47.7184-82.8416-107.2128-84.8896h-2.3552c-59.5968 2.048-107.2128 39.3216-107.2128 84.8896 0 2.2528-1.536 46.2848-0.7168 57.1392 0 6.144-2.3552 2.1504-12.288 2.6624h-3.6864a22.7328 22.7328 0 0 0-21.4016 16.1792c1.3312 0.8192 6.2464 38.1952 14.2336 52.9408 4.4032 8.192 11.3664 9.3184 18.5344 14.6432a15.5648 15.5648 0 0 1 5.8368 10.24 91.4432 91.4432 0 0 0 27.4432 41.984c5.9392 5.8368 45.9776 48.5376 80.384 46.2848s74.4448-40.96 80.4864-46.2848a93.0816 93.0816 0 0 0 27.4432-41.984 15.7696 15.7696 0 0 1 5.7344-10.24c7.168-5.3248 14.1312-6.4512 18.6368-14.6432 7.9872-14.7456 12.9024-52.1216 14.2336-52.9408a22.7328 22.7328 0 0 0-21.504-16.1792z" fill="#EDBC94" p-id="3179"></path><path d="M492.6464 526.5408a23.7568 23.7568 0 0 0 18.1248-8.192 1.2288 1.2288 0 0 0 0-1.7408 1.2288 1.2288 0 0 0-1.7408 0 21.0944 21.0944 0 0 1-16.2816 6.4512 21.4016 21.4016 0 0 1-16.2816-6.4512 1.3312 1.3312 0 0 0-0.9216 0 1.1264 1.1264 0 0 0-0.7168 0 1.3312 1.3312 0 0 0 0 1.7408 24.1664 24.1664 0 0 0 17.8176 8.192zM470.4256 432.0256l4.4032-8.4992a115.2 115.2 0 0 0-58.1632 1.8432l5.5296 8.2944a91.5456 91.5456 0 0 1 48.2304-1.6384zM564.3264 432.0256l4.4032-8.4992a115.2 115.2 0 0 0-58.1632 1.8432l5.632 8.2944a91.2384 91.2384 0 0 1 48.128-1.6384zM443.392 444.1088a12.3904 12.3904 0 0 0-10.24 7.4752 5.2224 5.2224 0 0 1 1.7408 0 7.4752 7.4752 0 0 1 0 14.9504 6.4512 6.4512 0 0 1-3.2768-1.024 13.6192 13.6192 0 0 0 12.288 11.6736 16.896 16.896 0 0 0 0-32.768zM541.4912 444.1088a11.8784 11.8784 0 0 0-10.24 5.632 4.9152 4.9152 0 0 1 2.3552-0.512 7.4752 7.4752 0 0 1 0 14.9504 6.3488 6.3488 0 0 1-5.4272-3.2768 14.7456 14.7456 0 0 0 12.8 15.9744 16.896 16.896 0 0 0 0-32.768zM546.9184 545.4848a1.024 1.024 0 0 0 0-1.6384 1.1264 1.1264 0 0 0-1.6384 0 87.04 87.04 0 0 1-52.736 14.4384 86.9376 86.9376 0 0 1-52.224-14.6432 1.1264 1.1264 0 0 0-0.7168 0 1.4336 1.4336 0 0 0-1.024 0 1.1264 1.1264 0 0 0 0 1.6384 94.5152 94.5152 0 0 0 108.4416 0zM506.9824 599.4496a1.4336 1.4336 0 0 0 1.2288-1.536 1.536 1.536 0 0 0-1.2288-1.6384h-26.3168c-0.6144 0-1.1264 0.7168-1.1264 1.6384s0.512 1.536 1.1264 1.536z" fill="#512C2B" p-id="3180"></path><path d="M366.08 349.3888a19.5584 19.5584 0 0 1 16.2816-10.24s-10.8544-13.7216-7.168-20.48 42.2912-51.2 136.3968-40.96 105.7792 70.9632 105.7792 70.9632L598.2208 460.8s-37.5808-110.7968-189.2352-89.9072c0 0 6.5536 14.1312-25.4976 70.0416l-17.408-91.2384z" fill="#512C2B" p-id="3181"></path></svg>