<?xml version="1.0" standalone="no"?><!DOCTYPE svg PUBLIC "-//W3C//DTD SVG 1.1//EN" "http://www.w3.org/Graphics/SVG/1.1/DTD/svg11.dtd"><svg t="1544736459830" class="icon" style="" viewBox="0 0 1024 1024" version="1.1" xmlns="http://www.w3.org/2000/svg" p-id="3436" xmlns:xlink="http://www.w3.org/1999/xlink" width="200" height="200"><defs><style type="text/css"></style></defs><path d="M225.8944 598.7328m-9.1136 0a9.1136 9.1136 0 1 0 18.2272 0 9.1136 9.1136 0 1 0-18.2272 0Z" fill="#FFFFFF" p-id="3437"></path><path d="M830.5664 344.064m-6.9632 0a6.9632 6.9632 0 1 0 13.9264 0 6.9632 6.9632 0 1 0-13.9264 0Z" fill="#FFFFFF" p-id="3438"></path><path d="M803.6352 149.1968m-9.1136 0a9.1136 9.1136 0 1 0 18.2272 0 9.1136 9.1136 0 1 0-18.2272 0Z" fill="#F1BC19" p-id="3439"></path><path d="M231.0144 677.376m-9.1136 0a9.1136 9.1136 0 1 0 18.2272 0 9.1136 9.1136 0 1 0-18.2272 0Z" fill="#F1BC19" p-id="3440"></path><path d="M528.384 530.432m-383.488 0a383.488 383.488 0 1 0 766.976 0 383.488 383.488 0 1 0-766.976 0Z" fill="#F9DBD2" p-id="3441"></path><path d="M859.4432 171.2128m-41.0624 0a41.0624 41.0624 0 1 0 82.1248 0 41.0624 41.0624 0 1 0-82.1248 0Z" fill="#F1BC19" p-id="3442"></path><path d="M900.4032 264.0896m-19.2512 0a19.2512 19.2512 0 1 0 38.5024 0 19.2512 19.2512 0 1 0-38.5024 0Z" fill="#F4989E" p-id="3443"></path><path d="M808.448 800.8704m-19.2512 0a19.2512 19.2512 0 1 0 38.5024 0 19.2512 19.2512 0 1 0-38.5024 0Z" fill="#FBCD59" p-id="3444"></path><path d="M161.6896 668.2624m-41.0624 0a41.0624 41.0624 0 1 0 82.1248 0 41.0624 41.0624 0 1 0-82.1248 0Z" fill="#FBCD59" p-id="3445"></path><path d="M266.4448 915.456m-19.2512 0a19.2512 19.2512 0 1 0 38.5024 0 19.2512 19.2512 0 1 0-38.5024 0Z" fill="#F4989E" p-id="3446"></path><path d="M794.624 328.6016m-18.432 0a18.432 18.432 0 1 0 36.864 0 18.432 18.432 0 1 0-36.864 0Z" fill="#FFFFFF" p-id="3447"></path><path d="M199.9872 544.256m-26.0096 0a26.0096 26.0096 0 1 0 52.0192 0 26.0096 26.0096 0 1 0-52.0192 0Z" fill="#FFFFFF" p-id="3448"></path><path d="M677.4784 715.6736c-7.5776-5.3248-104.7552-38.912-104.7552-38.912a14.9504 14.9504 0 0 1-10.24-12.288 194.56 194.56 0 0 1-2.3552-28.16 168.448 168.448 0 0 0 62.6688-61.44 40.96 40.96 0 0 0 4.8128-17.2032v-30.72a15.2576 15.2576 0 0 0 13.0048-12.1856c3.9936-12.6976 10.24-39.3216 10.24-39.5264 4.5056-16.0768-3.1744-24.6784-18.8416-24.6784a44.4416 44.4416 0 0 0 10.24-12.0832h5.632c20.48 6.656 52.1216 2.56 60.416-45.9776a35.84 35.84 0 0 1-30.72 12.9024 31.3344 31.3344 0 0 0-2.7648-12.3904 30.72 30.72 0 0 0 10.24-22.6304 32.256 32.256 0 0 0-32.8704-31.5392 37.6832 37.6832 0 0 0 1.9456-12.288 40.96 40.96 0 0 0-42.1888-40.96 43.3152 43.3152 0 0 0-11.5712 1.6384v-1.6384a50.5856 50.5856 0 0 0-52.736-48.0256 54.5792 54.5792 0 0 0-41.472 18.432 73.4208 73.4208 0 0 0-39.6288-10.24c-34.9184 0-63.1808 22.6304-63.1808 50.5856v3.584a32.5632 32.5632 0 0 0-17.3056 18.6368c-2.7648 8.192 6.2464 30.72 5.9392 31.744a18.944 18.944 0 0 0-19.456 24.064c1.024 4.8128 8.9088 74.3424 13.1072 76.3904-15.6672 0-23.6544 8.192-18.3296 24.7808 0 0 6.144 26.8288 10.24 39.5264a15.2576 15.2576 0 0 0 15.0528 12.3904V552.96a46.2848 46.2848 0 0 0 8.704 28.672 181.0432 181.0432 0 0 0 58.1632 53.9648 208.4864 208.4864 0 0 1-2.3552 28.672 14.7456 14.7456 0 0 1-10.752 12.288l-79.36 27.2384a79.1552 79.1552 0 0 0-22.3232 9.6256 88.064 88.064 0 0 0-36.4544 70.3488h402.6368a86.8352 86.8352 0 0 0-33.3824-68.096z" fill="#D8AD8F" p-id="3449"></path><path d="M677.1712 714.24a29.3888 29.3888 0 0 1-3.4816-1.2288l-5.8368-2.4576C655.36 705.2288 573.44 677.2736 573.44 677.2736a19.0464 19.0464 0 0 1-12.4928-11.0592 110.592 110.592 0 0 1-2.1504-33.28 163.0208 163.0208 0 0 1-43.2128 18.1248c-19.0464 1.8432-51.8144-16.5888-51.8144-16.5888S462.0288 658.8416 460.8 665.6a16.9984 16.9984 0 0 1-12.9024 11.5712L368.64 703.5904a81.92 81.92 0 0 0-22.2208 9.3184 79.4624 79.4624 0 0 0-33.3824 47.7184h-0.512c0 1.1264 0 3.2768-0.9216 6.2464a53.9648 53.9648 0 0 0-1.3312 13.7216c-0.512 4.7104-0.9216 61.44-1.4336 66.56 78.1312 43.52 163.84 63.2832 271.36 63.2832 47.2064 0 92.16-29.0816 134.3488-44.7488-4.096-95.6416 6.0416-138.1376-37.376-151.4496z" fill="#B2876B" p-id="3450"></path><path d="M422.1952 686.08c15.7696 12.9024 133.12 18.944 164.9664-6.8608L636.928 696.32l12.1856 198.2464s-150.3232 46.2848-286.72-15.0528L368.64 703.5904z" fill="#F4989E" p-id="3451"></path><path d="M561.2544 401.7152a43.7248 43.7248 0 0 0 39.424 23.4496 49.5616 49.5616 0 0 0 12.3904-1.6384 33.9968 33.9968 0 0 0 26.2144 11.8784 33.28 33.28 0 0 0 4.5056 0c19.3536 6.144 51.2 10.24 60.5184-30.72a28.9792 28.9792 0 0 1-27.3408 3.1744 47.5136 47.5136 0 0 0-2.8672-15.36 30.1056 30.1056 0 0 0 10.24-22.2208 31.8464 31.8464 0 0 0-32.6656-30.72 39.3216 39.3216 0 0 0 1.9456-12.0832A40.96 40.96 0 0 0 610.9184 286.72a46.8992 46.8992 0 0 0-11.4688 1.536V286.72a49.9712 49.9712 0 0 0-52.4288-47.2064 54.0672 54.0672 0 0 0-40.96 18.1248 73.728 73.728 0 0 0-38.7072-10.24c-34.7136 0-62.8736 22.3232-62.8736 49.7664v3.584a31.8464 31.8464 0 0 0-17.2032 18.3296c0 0.512 5.0176 27.5456 5.7344 30.72a49.2544 49.2544 0 0 0 24.8832 16.5888 51.9168 51.9168 0 0 0 30.72 0c7.68 25.6 37.376 44.7488 72.704 44.7488a92.16 92.16 0 0 0 39.936-9.4208z" fill="#9F8066" p-id="3452"></path><path d="M396.288 354.6112c-2.048 0-5.5296 1.7408-7.0656 2.048a12.1856 12.1856 0 0 0-11.264 12.8L389.12 443.904c0-6.4512 1.9456-63.8976 20.48-79.5648a81.2032 81.2032 0 0 1-13.312-9.728z" fill="#6D3C14" p-id="3453"></path><path d="M489.984 441.1392a213.2992 213.2992 0 0 0-75.9808-3.8912 2.048 2.048 0 0 0-1.9456 1.9456 2.1504 2.1504 0 0 0 2.048 2.048s52.1216 6.2464 68.4032 11.0592h0.8192a2.56 2.56 0 0 0 2.048-0.9216l5.9392-7.2704a1.536 1.536 0 0 0 0-1.7408 2.2528 2.2528 0 0 0-1.3312-1.2288zM530.8416 441.1392a213.4016 213.4016 0 0 1 75.9808-3.8912 2.1504 2.1504 0 0 1 2.048 1.9456 2.2528 2.2528 0 0 1-2.048 2.048s-52.1216 6.2464-68.4032 11.0592h-0.8192a2.4576 2.4576 0 0 1-2.048-0.9216l-5.9392-7.2704a1.7408 1.7408 0 0 1 0-1.7408 2.4576 2.4576 0 0 1 1.2288-1.2288zM453.9392 464.2816a14.1312 14.1312 0 0 0-12.288 8.4992 6.5536 6.5536 0 0 1 2.048 0 8.3968 8.3968 0 0 1 0 16.7936 6.8608 6.8608 0 0 1-3.7888-1.1264 15.4624 15.4624 0 0 0 14.0288 13.312 19.0464 19.0464 0 0 0 0-37.0688zM565.9648 464.2816a13.4144 13.4144 0 0 0-10.9568 6.7584 7.68 7.68 0 0 1 2.6624-0.512 8.3968 8.3968 0 0 1 0 16.7936 7.5776 7.5776 0 0 1-6.3488-3.584 15.0528 15.0528 0 1 0 14.6432-19.0464z" fill="#472B29" p-id="3454"></path><path d="M509.6448 559.616a29.5936 29.5936 0 0 0 22.2208-10.24 3.2768 3.2768 0 0 0 0-4.7104 3.4816 3.4816 0 0 0-4.8128 0 25.6 25.6 0 0 1-34.2016 0 3.3792 3.3792 0 0 0-5.12 4.4032 30.0032 30.0032 0 0 0 21.9136 10.5472z" fill="#472B29" p-id="3455"></path><path d="M676.9664 405.9136a46.2848 46.2848 0 0 0-2.8672-15.1552 29.7984 29.7984 0 0 0 10.24-22.016 31.8464 31.8464 0 0 0-32.6656-30.72 38.6048 38.6048 0 0 0 1.9456-11.9808A40.96 40.96 0 0 0 610.9184 286.72a42.496 42.496 0 0 0-11.4688 1.536V286.72a49.8688 49.8688 0 0 0-52.4288-46.8992 55.9104 55.9104 0 0 0-33.9968 11.0592c4.3008 4.3008 1.536-0.6144 4.3008 4.3008a72.704 72.704 0 0 1 51.2 6.2464 57.9584 57.9584 0 0 1 23.1424 73.3184l-0.8192 1.3312a40.0384 40.0384 0 0 1 10.8544 4.096 40.96 40.96 0 0 1 17.8176 54.6816 36.2496 36.2496 0 0 1-7.4752 9.5232 32.5632 32.5632 0 0 1 17.408 28.16 32.256 32.256 0 0 0 13.6192 1.024c19.3536 6.0416 51.2 10.24 60.5184-30.72a28.9792 28.9792 0 0 1-26.624 3.072z" fill="#836F61" p-id="3456"></path><path d="M417.3824 544.256a20.3776 20.0704 90 1 0 40.1408 0 20.3776 20.0704 90 1 0-40.1408 0Z" fill="#BA8964" p-id="3457"></path><path d="M571.4944 544.256a20.3776 20.0704 90 1 0 40.1408 0 20.3776 20.0704 90 1 0-40.1408 0Z" fill="#BA8964" p-id="3458"></path><path d="M478.72 503.6032m-2.2528 0a2.2528 2.2528 0 1 0 4.5056 0 2.2528 2.2528 0 1 0-4.5056 0Z" fill="#8E7469" p-id="3459"></path><path d="M480.9728 521.1136m-2.2528 0a2.2528 2.2528 0 1 0 4.5056 0 2.2528 2.2528 0 1 0-4.5056 0Z" fill="#8E7469" p-id="3460"></path><path d="M496.5376 511.5904m-2.2528 0a2.2528 2.2528 0 1 0 4.5056 0 2.2528 2.2528 0 1 0-4.5056 0Z" fill="#8E7469" p-id="3461"></path><path d="M529.2032 511.1808m-2.2528 0a2.2528 2.2528 0 1 0 4.5056 0 2.2528 2.2528 0 1 0-4.5056 0Z" fill="#8E7469" p-id="3462"></path><path d="M538.0096 526.4384m-2.2528 0a2.2528 2.2528 0 1 0 4.5056 0 2.2528 2.2528 0 1 0-4.5056 0Z" fill="#8E7469" p-id="3463"></path><path d="M548.6592 511.3856m-2.2528 0a2.2528 2.2528 0 1 0 4.5056 0 2.2528 2.2528 0 1 0-4.5056 0Z" fill="#8E7469" p-id="3464"></path><path d="M576.8192 705.2288a129.4336 129.4336 0 0 1-70.7584 17.7152 136.4992 136.4992 0 0 1-71.68-17.7152c-10.24-5.3248-16.2816-8.2944-16.2816-18.5344a17.5104 17.5104 0 0 1 16.2816-18.432s45.3632 15.7696 70.7584 15.7696 71.68-15.7696 71.68-15.7696a17.5104 17.5104 0 0 1 16.384 18.432c0 10.24-5.0176 12.1856-16.384 18.5344z" fill="#F4989E" p-id="3465"></path><path d="M577.1264 578.8672a1.4336 1.4336 0 0 0 0-2.1504 1.4336 1.4336 0 0 0-2.048 0A106.5984 106.5984 0 0 1 510.464 593.92a106.3936 106.3936 0 0 1-64.7168-17.8176h-0.9216a1.8432 1.8432 0 0 0-1.2288 0 1.536 1.536 0 0 0 0 2.1504 108.032 108.032 0 0 0 66.56 20.48 108.1344 108.1344 0 0 0 66.9696-19.8656z" fill="#472B29" p-id="3466"></path></svg>