<?xml version="1.0" standalone="no"?><!DOCTYPE svg PUBLIC "-//W3C//DTD SVG 1.1//EN" "http://www.w3.org/Graphics/SVG/1.1/DTD/svg11.dtd"><svg t="1544736405092" class="icon" style="" viewBox="0 0 1024 1024" version="1.1" xmlns="http://www.w3.org/2000/svg" p-id="1743" xmlns:xlink="http://www.w3.org/1999/xlink" width="200" height="200"><defs><style type="text/css"></style></defs><path d="M214.2208 583.2704m-9.1136 0a9.1136 9.1136 0 1 0 18.2272 0 9.1136 9.1136 0 1 0-18.2272 0Z" fill="#FFFFFF" p-id="1744"></path><path d="M818.8928 328.6016m-6.9632 0a6.9632 6.9632 0 1 0 13.9264 0 6.9632 6.9632 0 1 0-13.9264 0Z" fill="#FFFFFF" p-id="1745"></path><path d="M791.9616 133.7344m-9.1136 0a9.1136 9.1136 0 1 0 18.2272 0 9.1136 9.1136 0 1 0-18.2272 0Z" fill="#F1BC19" p-id="1746"></path><path d="M219.2384 661.8112m-9.1136 0a9.1136 9.1136 0 1 0 18.2272 0 9.1136 9.1136 0 1 0-18.2272 0Z" fill="#F1BC19" p-id="1747"></path><path d="M514.3552 514.9696m-383.488 0a383.488 383.488 0 1 0 766.976 0 383.488 383.488 0 1 0-766.976 0Z" fill="#E6EDB7" p-id="1748"></path><path d="M847.6672 155.7504m-41.0624 0a41.0624 41.0624 0 1 0 82.1248 0 41.0624 41.0624 0 1 0-82.1248 0Z" fill="#F1BC19" p-id="1749"></path><path d="M888.7296 248.6272m-19.2512 0a19.2512 19.2512 0 1 0 38.5024 0 19.2512 19.2512 0 1 0-38.5024 0Z" fill="#88AE45" p-id="1750"></path><path d="M796.672 785.408m-19.2512 0a19.2512 19.2512 0 1 0 38.5024 0 19.2512 19.2512 0 1 0-38.5024 0Z" fill="#FBCD59" p-id="1751"></path><path d="M149.9136 652.8m-41.0624 0a41.0624 41.0624 0 1 0 82.1248 0 41.0624 41.0624 0 1 0-82.1248 0Z" fill="#FBCD59" p-id="1752"></path><path d="M254.7712 899.8912m-19.2512 0a19.2512 19.2512 0 1 0 38.5024 0 19.2512 19.2512 0 1 0-38.5024 0Z" fill="#88AE45" p-id="1753"></path><path d="M782.848 313.1392m-18.432 0a18.432 18.432 0 1 0 36.864 0 18.432 18.432 0 1 0-36.864 0Z" fill="#FFFFFF" p-id="1754"></path><path d="M188.2112 528.7936m-26.0096 0a26.0096 26.0096 0 1 0 52.0192 0 26.0096 26.0096 0 1 0-52.0192 0Z" fill="#FFFFFF" p-id="1755"></path><path d="M705.1264 735.1296c-4.1984-21.9136-13.1072-34.816-34.2016-40.96l-3.584-1.2288-6.0416-2.4576c-12.6976-5.4272-88.7808-33.4848-88.7808-33.4848a19.1488 19.1488 0 0 1-12.6976-11.0592 88.6784 88.6784 0 0 1-2.3552-29.7984 487.936 487.936 0 0 1-51.2 14.5408c-19.456 1.8432-61.44-23.2448-61.44-23.2448s-0.9216 30.72-2.2528 37.9904a17.1008 17.1008 0 0 1-13.2096 11.5712l-72.9088 26.4192a84.992 84.992 0 0 0-22.6304 9.3184 77.7216 77.7216 0 0 0-32.3584 42.5984s-4.8128 33.9968-4.608 35.2256c-0.512 4.7104-0.9216 10.24-1.4336 15.4624 79.5648 53.8624 143.36 68.9152 252.928 64.1024 49.7664-2.1504 123.904-26.7264 162.7136-46.2848-2.3552-43.52-5.9392-68.7104-5.9392-68.7104z" fill="#CE9065" p-id="1756"></path><path d="M705.1264 735.6416c-4.1984-22.016-13.1072-34.9184-34.2016-40.96l-3.584-1.2288-6.0416-2.4576c-6.8608-2.9696-74.9568-26.7264-96.8704-34.816-29.9008 20.48-43.3152 29.0816-63.2832 29.0816s-40.96-9.216-62.976-30.72l-33.1776 12.288-3.2768 0.8192-45.3632 16.384a85.1968 85.1968 0 0 0-22.6304 9.4208 77.0048 77.0048 0 0 0-32.3584 42.5984s-4.8128 33.8944-4.608 35.1232c-0.512 4.7104-0.9216 55.7056-1.4336 61.44 79.5648 53.8624 143.36 68.9152 252.928 64.1024 49.7664-2.1504 123.904-26.7264 162.7136-46.2848-2.2528-43.9296-5.8368-114.7904-5.8368-114.7904z" fill="#88AE45" p-id="1757"></path><path d="M571.8016 762.4704c-7.4752-9.4208-12.8-20.48-20.48-29.696a5.3248 5.3248 0 0 1 0-7.2704 41.984 41.984 0 0 1 16.1792-9.728c6.4512-2.6624 12.6976-5.5296 19.1488-7.9872a137.0112 137.0112 0 0 0-22.3232-46.7968 3.9936 3.9936 0 0 1 0-5.12c-29.7984 20.48-43.2128 29.0816-63.1808 29.0816a79.36 79.36 0 0 1-59.392-28.3648c-2.4576 15.5648-16.5888 36.5568-6.144 51.8144 4.1984 6.0416 12.6976 8.192 15.36 15.6672 3.9936 10.24-1.8432 25.7024-2.1504 36.4544a133.12 133.12 0 0 0 13.5168 57.856 5.0176 5.0176 0 0 1 0 2.3552A400.384 400.384 0 0 1 481.28 860.16a316.3136 316.3136 0 0 1 10.24 35.7376h15.0528c4.9152-23.4496 18.7392-45.4656 28.0576-67.3792a241.664 241.664 0 0 1 37.1712-66.048z" fill="#FDFCEF" p-id="1758"></path><path d="M519.8848 751.5136l-5.4272 124.0064-8.3968 20.48-6.0416 1.024h-6.4512l-11.6736-24.4736 1.3312-120.7296a19.5584 19.5584 0 0 1 36.6592-0.3072z" fill="#D5E27B" p-id="1759"></path><path d="M484.6592 732.5696l-16.9984-42.0864h67.7888l-16.896 42.0864a18.432 18.432 0 0 1-33.8944 0z" fill="#D5E27B" p-id="1760"></path><path d="M440.32 651.3664l-14.336 11.4688 37.5808 81.3056 40.96-58.2656S442.9824 667.648 440.32 651.3664z" fill="#E1E0D8" p-id="1761"></path><path d="M560.4352 651.3664l16.5888 10.24-39.8336 82.8416L496.64 686.08s60.8256-18.432 63.7952-34.7136z" fill="#E1E0D8" p-id="1762"></path><path d="M557.7728 646.3488s24.2688 10.24 41.8816 66.8672l-41.8816 15.4624 26.9312 30.72-79.6672 138.9568a2282.0864 2282.0864 0 0 0 52.736-252.0064zM442.2656 646.3488s-24.2688 10.24-41.8816 66.8672l41.8816 15.4624-27.0336 30.72 78.336 138.9568a2446.5408 2446.5408 0 0 1-51.3024-252.0064z" fill="#6F913D" p-id="1763"></path><path d="M626.176 463.5648h-3.6864c-10.24 0-12.6976 3.4816-12.1856-2.6624 0.8192-10.8544-0.7168-54.8864-0.7168-57.1392 0-45.568-47.616-82.8416-107.2128-84.8896h-2.3552C440.32 320.8192 392.8064 358.4 392.8064 403.6608c0 2.2528-1.536 46.2848-0.7168 57.1392 0.512 6.144-2.3552 2.1504-12.1856 2.6624h-3.6864a22.7328 22.7328 0 0 0-21.504 16.1792c1.3312 0.8192 6.2464 38.1952 14.2336 52.9408 4.5056 8.192 11.4688 9.3184 18.6368 14.6432a15.7696 15.7696 0 0 1 5.7344 10.24 91.4432 91.4432 0 0 0 27.4432 41.984c6.0416 5.8368 46.08 48.4352 80.384 46.2848s74.4448-40.96 80.4864-46.2848a92.16 92.16 0 0 0 27.4432-41.984 15.7696 15.7696 0 0 1 5.7344-10.24c7.168-5.3248 14.1312-6.4512 18.6368-14.6432 7.9872-14.7456 12.9024-52.1216 14.2336-52.9408a22.7328 22.7328 0 0 0-21.504-16.0768z" fill="#DB9E71" p-id="1764"></path><path d="M501.76 535.8592a24.1664 24.1664 0 0 0 18.1248-8.192 1.2288 1.2288 0 0 0 0-1.7408 1.2288 1.2288 0 0 0-1.7408 0 23.6544 23.6544 0 0 1-32.4608 0 1.8432 1.8432 0 0 0-0.9216 0 1.1264 1.1264 0 0 0-0.8192 0 1.2288 1.2288 0 0 0 0 1.7408 24.1664 24.1664 0 0 0 17.8176 8.192zM479.5392 441.344l4.4032-8.4992a115.2 115.2 0 0 0-58.1632 1.8432l5.5296 8.2944a91.5456 91.5456 0 0 1 48.2304-1.6384zM573.44 441.344l4.4032-8.4992a115.2 115.2 0 0 0-58.1632 1.8432l5.632 8.2944a91.2384 91.2384 0 0 1 48.128-1.6384zM452.5056 453.4272a12.3904 12.3904 0 0 0-10.24 7.4752 5.2224 5.2224 0 0 1 1.7408 0 7.4752 7.4752 0 0 1 0 14.9504 6.4512 6.4512 0 0 1-3.2768-1.024 13.7216 13.7216 0 0 0 12.288 11.6736 16.896 16.896 0 0 0 0-32.768zM550.6048 453.4272a11.776 11.776 0 0 0-9.6256 5.5296 5.7344 5.7344 0 0 1 2.3552 0 7.4752 7.4752 0 0 1 0 14.848 6.3488 6.3488 0 0 1-5.5296-3.1744 13.2096 13.2096 0 1 0 12.8-16.7936z" fill="#512C2B" p-id="1765"></path><path d="M466.1248 568.7296a19.5584 19.5584 0 0 0-0.6144 4.9152c0 14.2336 15.872 25.9072 35.328 25.9072s35.328-11.6736 35.328-25.9072a19.5584 19.5584 0 0 0-0.6144-4.9152z" fill="#6D1B18" p-id="1766"></path><path d="M519.4752 595.5584a31.3344 31.3344 0 0 0-37.2736 0 45.4656 45.4656 0 0 0 37.2736 0z" fill="#EE3E54" p-id="1767"></path><path d="M476.2624 568.7296V573.44c0 3.8912 5.0176 6.9632 11.1616 6.9632h26.8288c6.144 0 11.264-3.072 11.264-6.9632v-4.3008-0.512z" fill="#FDFCEF" p-id="1768"></path><path d="M612.0448 527.6672c-7.4752 21.7088-15.36 40.96-21.0944 54.1696a7.68 7.68 0 0 1-13.5168 0A55.7056 55.7056 0 0 0 552.96 558.4896a50.4832 50.4832 0 0 0-49.152 2.8672c11.4688 0 26.4192 2.6624 32.768 13.1072 22.1184 36.5568-31.5392 42.496-33.5872 40.96-2.1504 1.9456-55.7056-3.9936-33.5872-40.96 6.2464-10.24 21.1968-12.8 32.768-13.1072a50.4832 50.4832 0 0 0-49.152-2.8672 56.0128 56.0128 0 0 0-24.7808 23.8592 7.68 7.68 0 0 1-13.5168 0c-5.12-12.4928-12.3904-29.3888-19.3536-49.2544-0.9216 11.6736-2.7648 23.3472-3.7888 35.1232 0 1.4336 0.7168 2.9696 1.024 4.5056 5.8368 25.088 13.4144 85.2992 93.3888 111.7184a63.6928 63.6928 0 0 0 33.3824 0c75.6736-24.6784 86.4256-78.848 92.16-106.3936a488.5504 488.5504 0 0 1 0.512-50.3808z" fill="#512C2B" p-id="1769"></path></svg>