<?xml version="1.0" standalone="no"?><!DOCTYPE svg PUBLIC "-//W3C//DTD SVG 1.1//EN" "http://www.w3.org/Graphics/SVG/1.1/DTD/svg11.dtd"><svg t="1544736392393" class="icon" style="" viewBox="0 0 1024 1024" version="1.1" xmlns="http://www.w3.org/2000/svg" p-id="1600" xmlns:xlink="http://www.w3.org/1999/xlink" width="200" height="200"><defs><style type="text/css"></style></defs><path d="M212.48 577.3312m-9.1136 0a9.1136 9.1136 0 1 0 18.2272 0 9.1136 9.1136 0 1 0-18.2272 0Z" fill="#FFFFFF" p-id="1601"></path><path d="M817.152 322.6624m-6.9632 0a6.9632 6.9632 0 1 0 13.9264 0 6.9632 6.9632 0 1 0-13.9264 0Z" fill="#FFFFFF" p-id="1602"></path><path d="M790.2208 127.7952m-9.1136 0a9.1136 9.1136 0 1 0 18.2272 0 9.1136 9.1136 0 1 0-18.2272 0Z" fill="#F1BC19" p-id="1603"></path><path d="M217.4976 655.9744m-9.1136 0a9.1136 9.1136 0 1 0 18.2272 0 9.1136 9.1136 0 1 0-18.2272 0Z" fill="#F1BC19" p-id="1604"></path><path d="M514.8672 509.0304m-383.488 0a383.488 383.488 0 1 0 766.976 0 383.488 383.488 0 1 0-766.976 0Z" fill="#C0E5E4" p-id="1605"></path><path d="M845.9264 149.8112m-41.0624 0a41.0624 41.0624 0 1 0 82.1248 0 41.0624 41.0624 0 1 0-82.1248 0Z" fill="#F1BC19" p-id="1606"></path><path d="M886.9888 242.688m-19.2512 0a19.2512 19.2512 0 1 0 38.5024 0 19.2512 19.2512 0 1 0-38.5024 0Z" fill="#00A5A5" p-id="1607"></path><path d="M794.9312 779.4688m-19.2512 0a19.2512 19.2512 0 1 0 38.5024 0 19.2512 19.2512 0 1 0-38.5024 0Z" fill="#FBCD59" p-id="1608"></path><path d="M148.1728 646.8608m-41.0624 0a41.0624 41.0624 0 1 0 82.1248 0 41.0624 41.0624 0 1 0-82.1248 0Z" fill="#FBCD59" p-id="1609"></path><path d="M253.0304 894.0544m-19.2512 0a19.2512 19.2512 0 1 0 38.5024 0 19.2512 19.2512 0 1 0-38.5024 0Z" fill="#00A5A5" p-id="1610"></path><path d="M781.1072 307.2m-18.432 0a18.432 18.432 0 1 0 36.864 0 18.432 18.432 0 1 0-36.864 0Z" fill="#FFFFFF" p-id="1611"></path><path d="M186.4704 522.8544m-26.0096 0a26.0096 26.0096 0 1 0 52.0192 0 26.0096 26.0096 0 1 0-52.0192 0Z" fill="#FFFFFF" p-id="1612"></path><path d="M629.3504 428.9536c1.3312-15.5648-3.2768-28.8768-2.2528-36.6592-13.6192-16.896-22.2208-36.7616-40.96-48.8448a242.176 242.176 0 0 0-69.4272-28.9792c-58.368-14.6432-115.712 28.0576-133.7344 83.2512l-0.6144 1.024a205.824 205.824 0 0 1 3.7888 30.1056c-15.7696 0-23.7568 8.2944-18.3296 24.8832 0 0 6.144 26.9312 10.24 39.8336a15.2576 15.2576 0 0 0 15.1552 12.288v25.7024a45.9776 45.9776 0 0 0 8.704 28.7744c15.4624 22.3232 94.5152 73.728 113.664 71.68 30.72 0 92.16-52.6336 108.4416-78.848a40.96 40.96 0 0 0 4.8128-17.3056v-30.72a15.4624 15.4624 0 0 0 13.0048-12.1856c4.096-12.9024 10.24-39.5264 10.24-39.8336 5.0176-15.9744-6.9632-24.4736-22.7328-24.1664z" fill="#D8AD8F" p-id="1613"></path><path d="M676.6592 690.7904l-3.4816-1.2288-5.9392-2.4576c-12.5952-5.4272-94.8224-33.4848-94.8224-33.4848a19.0464 19.0464 0 0 1-12.4928-11.0592 92.16 92.16 0 0 1-2.3552-29.9008 225.792 225.792 0 0 1-43.3152 14.6432c-19.0464 1.8432-52.736-23.2448-52.736-23.2448s-0.9216 30.72-2.2528 37.9904a16.9984 16.9984 0 0 1-12.9024 11.5712l-79.2576 26.4192a80.9984 80.9984 0 0 0-22.2208 9.3184A79.6672 79.6672 0 0 0 311.296 737.28c0 1.024-0.512 3.2768-0.9216 6.2464a56.4224 56.4224 0 0 0-1.9456 14.2336c0 4.8128-0.512 62.7712-0.9216 68.3008 69.632 71.68 143.36 66.8672 250.7776 66.8672 47.4112 0 133.8368-17.7152 158.208-54.0672-4.5056-96.5632 3.7888-134.656-39.8336-148.0704z" fill="#B2876B" p-id="1614"></path><path d="M416.8704 517.632a20.48 20.1728 90 1 0 40.3456 0 20.48 20.1728 90 1 0-40.3456 0Z" fill="#F4989E" p-id="1615"></path><path d="M571.6992 517.632a20.48 20.1728 90 1 0 40.3456 0 20.48 20.1728 90 1 0-40.3456 0Z" fill="#F4989E" p-id="1616"></path><path d="M477.4912 559.4112a19.5584 19.5584 0 0 0-0.6144 4.9152c0 14.2336 15.7696 25.9072 35.328 25.9072s35.328-11.6736 35.328-25.9072a19.5584 19.5584 0 0 0-0.6144-4.9152z" fill="#6D1B18" p-id="1617"></path><path d="M530.8416 586.24a31.3344 31.3344 0 0 0-37.2736 0 45.4656 45.4656 0 0 0 37.2736 0z" fill="#EE3E54" p-id="1618"></path><path d="M487.6288 559.4112v4.3008c0 3.8912 5.12 6.9632 11.264 6.9632h26.8288c6.144 0 11.264-3.072 11.264-6.9632v-4.3008z" fill="#FDFCEF" p-id="1619"></path><path d="M512 540.2624a27.2384 27.2384 0 0 0 20.48-9.216 1.4336 1.4336 0 0 0 0-2.048 1.4336 1.4336 0 0 0-1.9456 0 27.0336 27.0336 0 0 1-36.6592 0 1.6384 1.6384 0 0 0-1.1264 0 1.1264 1.1264 0 0 0-0.8192 0 1.4336 1.4336 0 0 0 0 2.048 27.2384 27.2384 0 0 0 20.0704 9.216zM521.3184 609.0752a0.9216 0.9216 0 0 0 0-1.8432h-18.2272a0.9216 0.9216 0 0 0 0 1.8432z" fill="#472B29" p-id="1620"></path><path d="M491.52 416.8704a215.04 215.04 0 0 0-76.0832-7.9872 2.1504 2.1504 0 0 0-2.048 1.9456c0 1.024 0.7168 1.8432 1.9456 2.1504a677.1712 677.1712 0 0 1 67.9936 14.6432h0.8192a2.6624 2.6624 0 0 0 2.1504-0.7168l6.2464-6.9632a1.7408 1.7408 0 0 0 0-1.8432 2.048 2.048 0 0 0-1.024-1.2288zM532.48 414.8224a215.7568 215.7568 0 0 1 76.3904-3.9936 2.2528 2.2528 0 0 1 1.9456 2.048 2.1504 2.1504 0 0 1-2.048 2.048s-52.3264 6.2464-68.7104 11.0592h-0.8192a2.8672 2.8672 0 0 1-2.048-0.8192l-5.9392-7.2704a2.048 2.048 0 0 1 0-1.8432 2.4576 2.4576 0 0 1 1.2288-1.2288z" fill="#512C2B" p-id="1621"></path><path d="M454.9632 438.0672a14.336 14.336 0 0 0-12.3904 8.4992 7.0656 7.0656 0 0 1 2.048 0 8.4992 8.4992 0 0 1 0 16.896 7.168 7.168 0 0 1-3.7888-1.1264 15.7696 15.7696 0 0 0 14.1312 13.312 19.1488 19.1488 0 0 0 0-37.2736zM567.5008 438.0672a13.7216 13.7216 0 0 0-11.0592 6.4512 5.9392 5.9392 0 0 1 2.6624-0.6144 8.4992 8.4992 0 0 1 0 16.896 7.5776 7.5776 0 0 1-6.3488-3.6864 15.1552 15.1552 0 1 0 14.7456-19.0464z" fill="#472B29" p-id="1622"></path><path d="M423.0144 663.3472c15.6672 12.3904 132.4032 18.8416 164.9664-5.632l49.664 16.7936 15.36 204.288s-145.6128 37.7856-291.1232-15.5648l7.8848-183.1936z" fill="#00A5A5" p-id="1623"></path><path d="M604.16 264.3968a31.744 31.744 0 0 0-0.8192-7.0656 28.2624 28.2624 0 0 0 0.7168-6.656 30.72 30.72 0 0 0-22.6304-28.9792 34.2016 34.2016 0 0 0-34.816-30.72 39.8336 39.8336 0 0 0-69.3248-2.7648 35.6352 35.6352 0 0 0-8.0896-0.9216 30.72 30.72 0 0 0-32.5632 29.4912v1.6384a34.5088 34.5088 0 0 0-26.0096 32.3584 31.6416 31.6416 0 0 0 8.192 21.0944 26.8288 26.8288 0 0 0-6.3488 17.2032A30.72 30.72 0 0 0 444.928 317.44a33.6896 33.6896 0 0 0 12.9024-2.4576 26.624 26.624 0 0 0 27.7504 24.2688 29.5936 29.5936 0 0 0 8.6016-1.2288 40.2432 40.2432 0 0 0 30.72 13.4144 37.376 37.376 0 0 0 37.9904-29.9008 33.9968 33.9968 0 0 0 23.04-28.2624A32.9728 32.9728 0 0 0 604.16 264.3968z" fill="#EFBA43" p-id="1624"></path><path d="M509.44 254.976c-117.3504 0-159.0272 99.6352-123.904 197.632a5.12 5.12 0 0 0 10.24-1.024c4.608-55.6032 30.72-102.4 114.176-78.6432 83.1488-23.7568 109.568 23.04 114.176 78.6432a5.12 5.12 0 0 0 10.24 1.024c34.0992-97.9968-7.5776-197.632-124.928-197.632z" fill="#FBCD59" p-id="1625"></path><path d="M494.3872 440.32c-23.3472-28.0576-111.4112-8.192-111.5136-8.192 1.6384 6.3488 3.072 12.5952 4.3008 18.8416 6.5536 0.6144 6.9632 15.0528 7.5776 20.48 3.1744 25.6 20.48 44.4416 57.0368 43.52a45.3632 45.3632 0 0 0 46.6944-44.4416 64.9216 64.9216 0 0 0-4.096-30.208z m-4.1984 31.4368A37.888 37.888 0 0 1 450.56 509.0304a50.0736 50.0736 0 0 1-6.7584 0c-36.4544 0-42.5984-31.4368-43.3152-51.2A21.1968 21.1968 0 0 1 419.84 435.6096c6.656-0.6144 14.1312-0.6144 22.8352-0.6144 27.2384 0 39.0144 6.3488 42.1888 11.4688a45.4656 45.4656 0 0 1 5.3248 25.1904zM520.0896 470.3232a45.4656 45.4656 0 0 0 46.6944 44.4416c36.5568 0.9216 53.8624-17.92 57.0368-43.52 0.7168-5.3248 1.024-19.7632 7.5776-20.48 1.3312-6.2464 2.6624-12.4928 4.3008-18.8416 0 0-88.064-19.8656-111.4112 8.192a62.5664 62.5664 0 0 0-4.1984 30.208z m13.312-23.8592c3.072-5.12 14.9504-11.4688 42.0864-11.4688 8.704 0 16.2816 0 22.9376 0.6144a21.2992 21.2992 0 0 1 19.3536 22.2208c-0.7168 19.8656-6.9632 51.2-43.3152 51.2a50.0736 50.0736 0 0 1-6.7584 0 37.7856 37.7856 0 0 1-39.2192-37.376 44.544 44.544 0 0 1 4.9152-25.1904z" fill="#472B29" p-id="1626"></path><path d="M525.1072 462.2336a28.2624 28.2624 0 0 0-16.384-4.608 24.2688 24.2688 0 0 0-15.1552 4.608c-1.6384-4.3008-3.2768-8.704-4.8128-13.0048h40.96c-1.4336 4.3008-3.072 8.704-4.608 13.0048z" fill="#472B29" p-id="1627"></path><path d="M583.68 687.616a286.72 286.72 0 0 1-71.68 7.2704 286.72 286.72 0 0 1-71.68-7.2704 17.5104 17.5104 0 0 1-16.384-18.432 17.6128 17.6128 0 0 1 16.384-18.5344s44.7488 5.4272 70.144 5.4272 73.216-5.4272 73.216-5.4272a17.6128 17.6128 0 0 1 16.384 18.5344 17.5104 17.5104 0 0 1-16.384 18.432z" fill="#00A5A5" p-id="1628"></path></svg>