<?xml version="1.0" standalone="no"?><!DOCTYPE svg PUBLIC "-//W3C//DTD SVG 1.1//EN" "http://www.w3.org/Graphics/SVG/1.1/DTD/svg11.dtd"><svg t="1544736437741" class="icon" style="" viewBox="0 0 1024 1024" version="1.1" xmlns="http://www.w3.org/2000/svg" p-id="2890" xmlns:xlink="http://www.w3.org/1999/xlink" width="200" height="200"><defs><style type="text/css"></style></defs><path d="M212.48 577.3312m-9.1136 0a9.1136 9.1136 0 1 0 18.2272 0 9.1136 9.1136 0 1 0-18.2272 0Z" fill="#FFFFFF" p-id="2891"></path><path d="M817.152 322.6624m-6.9632 0a6.9632 6.9632 0 1 0 13.9264 0 6.9632 6.9632 0 1 0-13.9264 0Z" fill="#FFFFFF" p-id="2892"></path><path d="M790.2208 127.7952m-9.1136 0a9.1136 9.1136 0 1 0 18.2272 0 9.1136 9.1136 0 1 0-18.2272 0Z" fill="#F1BC19" p-id="2893"></path><path d="M217.4976 655.9744m-9.1136 0a9.1136 9.1136 0 1 0 18.2272 0 9.1136 9.1136 0 1 0-18.2272 0Z" fill="#F1BC19" p-id="2894"></path><path d="M514.8672 509.0304m-383.488 0a383.488 383.488 0 1 0 766.976 0 383.488 383.488 0 1 0-766.976 0Z" fill="#CEE1F4" p-id="2895"></path><path d="M845.9264 149.8112m-41.0624 0a41.0624 41.0624 0 1 0 82.1248 0 41.0624 41.0624 0 1 0-82.1248 0Z" fill="#F1BC19" p-id="2896"></path><path d="M886.9888 242.688m-19.2512 0a19.2512 19.2512 0 1 0 38.5024 0 19.2512 19.2512 0 1 0-38.5024 0Z" fill="#EE3E54" p-id="2897"></path><path d="M794.9312 779.4688m-19.2512 0a19.2512 19.2512 0 1 0 38.5024 0 19.2512 19.2512 0 1 0-38.5024 0Z" fill="#FBCD59" p-id="2898"></path><path d="M148.1728 646.8608m-41.0624 0a41.0624 41.0624 0 1 0 82.1248 0 41.0624 41.0624 0 1 0-82.1248 0Z" fill="#FBCD59" p-id="2899"></path><path d="M253.0304 894.0544m-19.2512 0a19.2512 19.2512 0 1 0 38.5024 0 19.2512 19.2512 0 1 0-38.5024 0Z" fill="#EE3E54" p-id="2900"></path><path d="M781.1072 307.2m-18.432 0a18.432 18.432 0 1 0 36.864 0 18.432 18.432 0 1 0-36.864 0Z" fill="#FFFFFF" p-id="2901"></path><path d="M186.4704 522.8544m-26.0096 0a26.0096 26.0096 0 1 0 52.0192 0 26.0096 26.0096 0 1 0-52.0192 0Z" fill="#FFFFFF" p-id="2902"></path><path d="M340.2752 776.0896a19.456 19.456 0 0 0 14.7456-1.4336l1.1264-0.6144 0.6144 0.8192a21.504 21.504 0 0 0 7.0656 7.4752l1.536 1.1264A27.9552 27.9552 0 0 0 378.88 788.48h6.5536a20.48 20.48 0 0 0 0 2.6624 29.184 29.184 0 0 0 11.1616 16.0768l1.536 1.1264a27.5456 27.5456 0 0 0 12.8 4.5056h6.8608a24.3712 24.3712 0 0 0 3.8912-1.1264v2.4576a21.6064 21.6064 0 0 0 8.192 13.7216 16.384 16.384 0 0 0 7.4752 3.584 16.6912 16.6912 0 0 0 8.3968 0.8192 14.6432 14.6432 0 0 0 7.4752-2.6624 14.9504 14.9504 0 0 0 6.0416-4.9152l1.1264-1.536a30.72 30.72 0 0 0 11.6736 12.3904 28.672 28.672 0 0 0 36.7616-7.8848 14.0288 14.0288 0 0 0 1.8432 1.6384 30.72 30.72 0 0 0 43.4176-4.3008 32.6656 32.6656 0 0 0 5.2224-11.5712 26.9312 26.9312 0 0 0 30.72-11.0592 19.3536 19.3536 0 0 0 3.3792-10.24h6.0416a21.2992 21.2992 0 0 0 14.9504-8.6016 15.7696 15.7696 0 0 0 3.6864-7.68 20.48 20.48 0 0 0-0.9216-13.824 17.408 17.408 0 0 0 5.632 0 16.4864 16.4864 0 0 0 7.68-3.4816 15.9744 15.9744 0 0 0 5.9392-6.0416 20.48 20.48 0 0 0 2.4576-15.9744l-2.048-5.2224a18.8416 18.8416 0 0 0 8.2944-6.656 26.9312 26.9312 0 0 0 0-32.5632 32.0512 32.0512 0 0 0 9.1136-8.704 31.232 31.232 0 0 0-10.24-42.3936l-2.1504-1.2288a28.672 28.672 0 0 0-4.9152-37.2736 31.744 31.744 0 0 0-15.5648-6.8608l1.1264-1.536a16.0768 16.0768 0 0 0 2.1504-8.3968 19.2512 19.2512 0 0 0-3.6864-15.5648 15.9744 15.9744 0 0 0-5.8368-5.8368 21.8112 21.8112 0 0 0-15.6672-3.1744l-2.3552 0.7168a26.112 26.112 0 0 0 0-3.9936l-1.9456-6.5536a27.5456 27.5456 0 0 0-8.4992-10.24l-1.6384-1.1264a19.7632 19.7632 0 0 0-9.0112-4.1984 20.48 20.48 0 0 0-10.24-0.9216h-2.7648l-1.9456-6.2464a28.2624 28.2624 0 0 0-8.0896-10.6496l-1.6384-1.024a20.48 20.48 0 0 0-9.3184-4.1984h-1.024v-1.4336a19.6608 19.6608 0 0 0-3.584-14.336 20.48 20.48 0 0 0-12.3904-7.68l-4.1984-0.7168a20.48 20.48 0 0 0-14.4384 2.9696 14.848 14.848 0 0 0-4.096 4.3008 14.848 14.848 0 0 0-4.1984-1.024 13.4144 13.4144 0 0 0-6.9632 0 12.6976 12.6976 0 0 0-5.9392 2.7648 12.288 12.288 0 0 0-4.7104 4.7104 8.4992 8.4992 0 0 1-0.7168 1.3312 22.6304 22.6304 0 0 0-7.3728-9.1136l-1.6384-1.024a16.7936 16.7936 0 0 0-7.9872-3.3792 17.1008 17.1008 0 0 0-8.4992-0.512 16.1792 16.1792 0 0 0-7.4752 3.072 15.36 15.36 0 0 0-6.0416 5.4272l-2.56 5.0176v1.7408a17.3056 17.3056 0 0 0-5.2224-2.3552 19.456 19.456 0 0 0-9.3184-1.7408 27.136 27.136 0 0 0-17.3056 7.8848l-3.584 5.2224a23.2448 23.2448 0 0 0-1.7408 5.12 18.7392 18.7392 0 0 0-4.8128 0 16.7936 16.7936 0 0 0-8.0896 2.2528 15.5648 15.5648 0 0 0-6.8608 4.9152l-3.072 4.8128a21.8112 21.8112 0 0 0-1.9456 7.5776 27.8528 27.8528 0 0 0-26.0096 12.288 26.9312 26.9312 0 0 0-5.2224 19.5584A26.9312 26.9312 0 0 0 327.68 581.2224a28.0576 28.0576 0 0 0-2.8672 28.7744 20.48 20.48 0 0 0-6.4512 4.3008l-3.4816 4.608a15.1552 15.1552 0 0 0-2.3552 8.0896 14.4384 14.4384 0 0 0 0.6144 8.2944 17.408 17.408 0 0 0 1.8432 4.5056 25.7024 25.7024 0 0 0-4.1984 3.2768l-3.6864 5.12a17.8176 17.8176 0 0 0-2.56 9.4208 16.9984 16.9984 0 0 0 0.9216 9.5232 18.6368 18.6368 0 0 0 4.7104 8.2944 18.944 18.944 0 0 0 3.9936 4.096 7.2704 7.2704 0 0 0-1.4336 1.024l-3.8912 4.096a15.6672 15.6672 0 0 0-3.1744 7.4752 16.5888 16.5888 0 0 0 0 8.0896 16.896 16.896 0 0 0 3.2768 7.8848 17.5104 17.5104 0 0 0 5.8368 6.4512l1.6384 1.1264a21.8112 21.8112 0 0 0 11.0592 3.8912l-1.1264 1.1264a13.2096 13.2096 0 0 0-2.8672 6.0416 13.9264 13.9264 0 0 0-0.6144 6.5536 13.312 13.312 0 0 0 2.3552 6.4512 17.3056 17.3056 0 0 0 2.3552 3.6864 13.5168 13.5168 0 0 0-2.56 5.3248 19.5584 19.5584 0 0 0 1.9456 14.5408l2.048 3.7888a20.48 20.48 0 0 0 11.264 9.0112z" fill="#472B29" p-id="2903"></path><path d="M318.2592 361.984a20.48 20.48 0 0 0 10.752 11.1616l1.4336 0.6144a10.24 10.24 0 0 0 0 1.024 18.8416 18.8416 0 0 0-2.2528 10.24v1.8432a24.2688 24.2688 0 0 0 3.9936 13.5168l4.4032 5.2224-2.1504 2.048a18.432 18.432 0 0 0-5.4272 8.6016 18.7392 18.7392 0 0 0-2.048 9.728v1.9456A25.088 25.088 0 0 0 330.752 440.32l4.7104 5.4272a26.8288 26.8288 0 0 0 3.4816 2.4576l-2.1504 1.536a20.48 20.48 0 0 0-7.2704 14.5408 15.1552 15.1552 0 0 0 1.6384 8.192 16.5888 16.5888 0 0 0 4.608 7.3728 16.9984 16.9984 0 0 0 7.2704 4.608 17.8176 17.8176 0 0 0 8.3968 2.048h2.6624a28.7744 28.7744 0 0 0-3.6864 16.6912 30.72 30.72 0 0 0 30.72 25.4976v2.4576a32.8704 32.8704 0 0 0 31.9488 32.9728 40.96 40.96 0 0 0 13.9264-2.4576 29.7984 29.7984 0 0 0 29.696 18.6368 24.1664 24.1664 0 0 0 11.4688-2.9696l3.584 4.7104a24.8832 24.8832 0 0 0 16.0768 7.168 19.6608 19.6608 0 0 0 9.4208-1.4336 17.408 17.408 0 0 0 7.9872-4.3008 16.2816 16.2816 0 0 0 3.9936-4.4032 15.872 15.872 0 0 0 3.8912 4.4032 17.7152 17.7152 0 0 0 8.0896 4.3008 19.2512 19.2512 0 0 0 9.3184 1.4336 25.088 25.088 0 0 0 16.1792-7.168l3.4816-4.7104a23.7568 23.7568 0 0 0 11.3664 2.9696 30.0032 30.0032 0 0 0 29.7984-18.6368 40.96 40.96 0 0 0 13.824 2.4576 32.6656 32.6656 0 0 0 31.9488-32.9728 20.48 20.48 0 0 0 0-2.4576 30.72 30.72 0 0 0 30.72-25.4976 27.2384 27.2384 0 0 0-3.6864-16.6912h2.6624a18.6368 18.6368 0 0 0 8.4992-2.048 17.6128 17.6128 0 0 0 7.2704-4.608 16.5888 16.5888 0 0 0 4.608-7.3728 16.0768 16.0768 0 0 0 1.536-8.192 20.48 20.48 0 0 0-7.168-14.5408l-2.2528-1.536a26.8288 26.8288 0 0 0 3.4816-2.4576l4.8128-5.4272a24.9856 24.9856 0 0 0 4.096-13.0048v-1.9456a18.7392 18.7392 0 0 0-1.9456-9.728 19.456 19.456 0 0 0-5.5296-8.6016 13.7216 13.7216 0 0 0-2.1504-2.048l4.4032-5.2224a25.2928 25.2928 0 0 0 4.096-13.5168v-1.8432a19.7632 19.7632 0 0 0-2.2528-10.24 7.0656 7.0656 0 0 1 0-1.024l1.3312-0.6144a19.7632 19.7632 0 0 0 10.24-11.1616 18.8416 18.8416 0 0 0-0.8192-14.5408l-2.7648-3.2768a20.48 20.48 0 0 0-11.9808-10.24 18.1248 18.1248 0 0 0-6.5536-0.9216 15.872 15.872 0 0 0-1.7408-4.096 13.9264 13.9264 0 0 0-4.5056-5.632 15.0528 15.0528 0 0 0-6.3488-3.2768 15.9744 15.9744 0 0 0-7.2704-1.1264h-1.7408a20.48 20.48 0 0 0 3.8912-11.0592v-1.9456a15.36 15.36 0 0 0-2.048-8.4992 17.3056 17.3056 0 0 0-5.0176-7.168 27.5456 27.5456 0 0 0-16.4864-6.144l-6.2464 0.8192h-1.8432a17.3056 17.3056 0 0 0-1.2288-5.5296 18.1248 18.1248 0 0 0-4.4032-8.704 19.7632 19.7632 0 0 0-8.192-6.2464 22.1184 22.1184 0 0 0-10.24-3.3792h-6.9632a21.4016 21.4016 0 0 0-5.7344 1.4336 21.8112 21.8112 0 0 0-10.24-9.4208 19.3536 19.3536 0 0 0-9.0112-2.7648h-6.3488a23.6544 23.6544 0 0 0-8.0896 2.7648 35.0208 35.0208 0 0 0-49.152-7.2704 35.1232 35.1232 0 0 0-49.2544 7.2704 23.6544 23.6544 0 0 0-8.0896-2.7648h-6.3488a18.944 18.944 0 0 0-8.9088 2.7648 18.5344 18.5344 0 0 0-7.168 5.3248 15.5648 15.5648 0 0 0-2.8672 4.096 22.4256 22.4256 0 0 0-5.7344-1.4336h-7.0656a22.1184 22.1184 0 0 0-10.24 3.3792 19.456 19.456 0 0 0-8.0896 6.2464 18.2272 18.2272 0 0 0-4.5056 8.704 17.3056 17.3056 0 0 0-1.2288 5.5296h-1.8432l-6.2464-0.8192a18.6368 18.6368 0 0 0-8.8064 1.7408 18.2272 18.2272 0 0 0-7.5776 4.4032 16.384 16.384 0 0 0-5.0176 7.168 15.4624 15.4624 0 0 0-2.1504 8.4992V307.2a21.504 21.504 0 0 0 3.4816 11.3664h-1.6384a15.7696 15.7696 0 0 0-7.2704 1.1264 14.848 14.848 0 0 0-6.4512 3.2768 13.7216 13.7216 0 0 0-4.4032 5.632 11.0592 11.0592 0 0 0-1.7408 4.096 17.8176 17.8176 0 0 0-6.5536 0.9216 21.0944 21.0944 0 0 0-12.0832 10.24l-2.048 3.8912a18.432 18.432 0 0 0-0.7168 14.2336z" fill="#472B29" p-id="2904"></path><path d="M632.1152 428.9536c1.3312-15.5648-3.2768-28.8768-2.2528-36.6592-13.6192-16.896-22.2208-36.7616-40.96-48.8448a243.4048 243.4048 0 0 0-69.4272-28.9792c-58.368-14.6432-115.712 28.0576-133.8368 83.2512a3.1744 3.1744 0 0 1 0 1.024 221.184 221.184 0 0 1 3.4816 30.1056c-15.7696 0-23.8592 8.2944-18.3296 24.8832 0 0 6.0416 26.9312 10.24 39.8336a15.2576 15.2576 0 0 0 15.1552 12.288v25.7024a46.08 46.08 0 0 0 8.8064 28.7744c15.36 22.3232 94.5152 73.728 113.664 71.68 30.72 0 92.16-52.6336 108.3392-78.848a39.6288 39.6288 0 0 0 4.9152-17.3056v-30.72a15.4624 15.4624 0 0 0 13.0048-12.1856c3.9936-12.9024 10.24-39.5264 10.24-39.8336 4.608-15.9744-7.2704-24.4736-23.04-24.1664z" fill="#D8AD8F" p-id="2905"></path><path d="M679.424 690.7904l-3.584-1.2288-5.9392-2.4576c-12.5952-5.4272-94.8224-33.4848-94.8224-33.4848A18.6368 18.6368 0 0 1 563.2 642.56a89.2928 89.2928 0 0 1-2.3552-29.9008 225.792 225.792 0 0 1-43.3152 14.6432c-19.1488 1.8432-52.736-23.2448-52.736-23.2448s-0.9216 30.72-2.2528 37.9904a16.9984 16.9984 0 0 1-12.9024 11.5712l-79.2576 26.4192a82.944 82.944 0 0 0-22.3232 9.3184A79.872 79.872 0 0 0 314.0608 737.28h-0.512a44.4416 44.4416 0 0 0-0.9216 6.2464 56.4224 56.4224 0 0 0-1.4336 14.2336c0 4.8128-0.512 73.0112-0.9216 78.5408 69.5296 71.68 166.912 56.1152 274.7392 56.1152 47.4112 0 106.5984-23.9616 134.656-52.0192-4.5056-96.5632 3.3792-136.192-40.2432-149.6064z" fill="#B2876B" p-id="2906"></path><path d="M430.08 668.0576c15.6672 12.4928 132.4032 18.944 164.9664-5.632l49.664 16.896 14.6432 195.3792A495.104 495.104 0 0 1 368.64 869.376l7.8848-184.32z" fill="#78A0CF" p-id="2907"></path><path d="M419.6352 517.632a20.48 20.1728 90 1 0 40.3456 0 20.48 20.1728 90 1 0-40.3456 0Z" fill="#F4989E" p-id="2908"></path><path d="M574.464 517.632a20.48 20.1728 90 1 0 40.3456 0 20.48 20.1728 90 1 0-40.3456 0Z" fill="#F4989E" p-id="2909"></path><path d="M514.9696 540.2624a27.4432 27.4432 0 0 0 20.48-9.216 1.536 1.536 0 0 0 0-2.048 1.4336 1.4336 0 0 0-1.9456 0 27.136 27.136 0 0 1-36.7616 0 1.2288 1.2288 0 0 0-1.024 0h-0.9216a1.536 1.536 0 0 0 0 2.048 27.2384 27.2384 0 0 0 20.1728 9.216zM524.0832 609.0752a0.9216 0.9216 0 0 0 0-1.8432H505.856a0.9216 0.9216 0 0 0 0 1.8432z" fill="#472B29" p-id="2910"></path><path d="M493.9776 416.8704a214.3232 214.3232 0 0 0-75.9808-7.9872 2.2528 2.2528 0 0 0-2.1504 1.9456 2.3552 2.3552 0 0 0 1.9456 2.1504 677.6832 677.6832 0 0 1 68.096 14.6432h0.8192a2.3552 2.3552 0 0 0 2.048-0.7168l6.3488-6.9632a2.048 2.048 0 0 0 0-1.8432 2.2528 2.2528 0 0 0-1.1264-1.2288zM534.9376 414.8224a215.04 215.04 0 0 1 76.288-3.9936 2.2528 2.2528 0 0 1 2.048 2.048 2.1504 2.1504 0 0 1-2.048 2.048s-52.3264 6.2464-68.7104 11.0592h-0.8192a2.6624 2.6624 0 0 1-2.048-0.8192l-5.9392-7.2704a1.7408 1.7408 0 0 1 0-1.8432 2.2528 2.2528 0 0 1 1.2288-1.2288z" fill="#512C2B" p-id="2911"></path><path d="M457.6256 438.0672a14.1312 14.1312 0 0 0-12.288 8.4992 6.5536 6.5536 0 0 1 2.048 0 8.4992 8.4992 0 0 1 0 16.896 6.8608 6.8608 0 0 1-3.7888-1.1264 15.5648 15.5648 0 0 0 14.0288 13.312 19.1488 19.1488 0 0 0 0-37.2736zM570.2656 438.0672a13.5168 13.5168 0 0 0-11.0592 6.4512 5.9392 5.9392 0 0 1 2.6624-0.6144 8.4992 8.4992 0 0 1 0 16.896 7.4752 7.4752 0 0 1-6.3488-3.6864 15.1552 15.1552 0 1 0 14.7456-19.0464z" fill="#472B29" p-id="2912"></path><path d="M577.8432 295.3216a38.5024 38.5024 0 0 1-3.1744 32.3584 30.72 30.72 0 0 1-33.9968 7.3728c5.5296 23.1424-38.8096 30.1056-48.7424 10.9568 8.6016 20.48-36.2496 40.96-49.9712 20.48A30.72 30.72 0 0 1 430.08 393.6256a32.768 32.768 0 0 1-27.4432 4.3008 15.4624 15.4624 0 0 1 4.096 17.3056 14.1312 14.1312 0 0 1-13.6192 8.4992 24.064 24.064 0 0 1-15.2576-7.9872 57.5488 57.5488 0 0 1-11.264-52.4288 95.3344 95.3344 0 0 1 27.4432-43.7248 169.2672 169.2672 0 0 1 101.2736-48.2304 87.4496 87.4496 0 0 1 61.44 13.7216 34.2016 34.2016 0 0 1 15.5648 27.648" fill="#472B29" p-id="2913"></path><path d="M639.5904 338.8416c-15.5648-17.1008-37.7856-17.92-59.4944-16.1792a5.0176 5.0176 0 0 0-3.2768 1.6384 5.5296 5.5296 0 0 0-3.2768 1.1264 18.8416 18.8416 0 0 0-3.8912 25.9072 21.8112 21.8112 0 0 0 22.6304 8.192 17.8176 17.8176 0 0 0 20.48 18.432 18.6368 18.6368 0 0 0 7.4752 19.7632 14.4384 14.4384 0 0 0 5.3248 22.1184c15.5648 8.192 25.7024-9.216 27.5456-22.1184 3.1744-22.9376 3.072-40.7552-13.5168-58.88zM581.2224 563.2a1.4336 1.4336 0 0 0 0-2.048 1.536 1.536 0 0 0-2.1504 0 106.3936 106.3936 0 0 1-64.7168 17.8176 106.8032 106.8032 0 0 1-64.8192-17.8176 1.4336 1.4336 0 0 0-0.9216 0 1.4336 1.4336 0 0 0-1.1264 0.6144 1.4336 1.4336 0 0 0 0 2.048 116.3264 116.3264 0 0 0 133.12 0z" fill="#472B29" p-id="2914"></path><path d="M583.68 684.8512a286.72 286.72 0 0 1-71.68 7.2704 287.4368 287.4368 0 0 1-71.68-7.2704 17.6128 17.6128 0 0 1-16.384-18.5344 17.5104 17.5104 0 0 1 16.384-18.432s44.7488 5.3248 70.2464 5.3248 73.1136-5.3248 73.1136-5.3248a17.5104 17.5104 0 0 1 16.384 18.432 17.6128 17.6128 0 0 1-16.384 18.5344z" fill="#78A0CF" p-id="2915"></path></svg>