<?xml version="1.0" standalone="no"?><!DOCTYPE svg PUBLIC "-//W3C//DTD SVG 1.1//EN" "http://www.w3.org/Graphics/SVG/1.1/DTD/svg11.dtd"><svg t="1544736417160" class="icon" style="" viewBox="0 0 1024 1024" version="1.1" xmlns="http://www.w3.org/2000/svg" p-id="2174" xmlns:xlink="http://www.w3.org/1999/xlink" width="200" height="200"><defs><style type="text/css"></style></defs><path d="M212.48 577.3312m-9.1136 0a9.1136 9.1136 0 1 0 18.2272 0 9.1136 9.1136 0 1 0-18.2272 0Z" fill="#FFFFFF" p-id="2175"></path><path d="M817.152 322.6624m-6.9632 0a6.9632 6.9632 0 1 0 13.9264 0 6.9632 6.9632 0 1 0-13.9264 0Z" fill="#FFFFFF" p-id="2176"></path><path d="M790.2208 127.7952m-9.1136 0a9.1136 9.1136 0 1 0 18.2272 0 9.1136 9.1136 0 1 0-18.2272 0Z" fill="#F1BC19" p-id="2177"></path><path d="M217.4976 655.9744m-9.1136 0a9.1136 9.1136 0 1 0 18.2272 0 9.1136 9.1136 0 1 0-18.2272 0Z" fill="#F1BC19" p-id="2178"></path><path d="M514.8672 509.0304m-383.488 0a383.488 383.488 0 1 0 766.976 0 383.488 383.488 0 1 0-766.976 0Z" fill="#F9DBD2" p-id="2179"></path><path d="M845.9264 149.8112m-41.0624 0a41.0624 41.0624 0 1 0 82.1248 0 41.0624 41.0624 0 1 0-82.1248 0Z" fill="#F1BC19" p-id="2180"></path><path d="M886.9888 242.688m-19.2512 0a19.2512 19.2512 0 1 0 38.5024 0 19.2512 19.2512 0 1 0-38.5024 0Z" fill="#EE3E54" p-id="2181"></path><path d="M794.9312 779.4688m-19.2512 0a19.2512 19.2512 0 1 0 38.5024 0 19.2512 19.2512 0 1 0-38.5024 0Z" fill="#FBCD59" p-id="2182"></path><path d="M148.1728 646.8608m-41.0624 0a41.0624 41.0624 0 1 0 82.1248 0 41.0624 41.0624 0 1 0-82.1248 0Z" fill="#FBCD59" p-id="2183"></path><path d="M253.0304 894.0544m-19.2512 0a19.2512 19.2512 0 1 0 38.5024 0 19.2512 19.2512 0 1 0-38.5024 0Z" fill="#EE3E54" p-id="2184"></path><path d="M781.1072 307.2m-18.432 0a18.432 18.432 0 1 0 36.864 0 18.432 18.432 0 1 0-36.864 0Z" fill="#FFFFFF" p-id="2185"></path><path d="M186.4704 522.8544m-26.0096 0a26.0096 26.0096 0 1 0 52.0192 0 26.0096 26.0096 0 1 0-52.0192 0Z" fill="#FFFFFF" p-id="2186"></path><path d="M656.384 655.36c0 1.024 0 1.8432-0.6144 2.6624a230.4 230.4 0 0 1-7.9872 25.2928 115.0976 115.0976 0 0 1-17.1008 32.5632 47.8208 47.8208 0 0 1-10.24 10.24 49.8688 49.8688 0 0 1-28.4672 7.68h-174.08a48.8448 48.8448 0 0 1-29.4912-8.3968 47.0016 47.0016 0 0 1-9.5232-9.1136 115.0976 115.0976 0 0 1-17.1008-32.5632 230.4 230.4 0 0 1-7.9872-25.2928l-1.2288-3.072c-27.3408-107.4176-19.2512-297.8816 42.7008-355.2256A149.7088 149.7088 0 0 1 504.4224 256a145.5104 145.5104 0 0 1 92.16 30.1056 186.88 186.88 0 0 1 16.6912 14.1312 71.68 71.68 0 0 1 6.144 6.3488C675.84 370.5856 682.8032 551.8336 656.384 655.36z" fill="#EFA21B" p-id="2187"></path><path d="M629.3504 426.496c1.3312-15.5648-3.2768-28.8768-2.2528-36.6592-13.6192-16.896-22.2208-36.7616-40.96-48.8448a242.176 242.176 0 0 0-69.4272-28.9792c-58.368-14.6432-115.712 28.0576-133.7344 83.2512l-0.6144 1.024a205.824 205.824 0 0 1 3.7888 30.1056c-15.7696 0-23.7568 8.2944-18.3296 24.8832 0 0 6.144 27.0336 10.24 39.8336a15.4624 15.4624 0 0 0 15.1552 12.3904v25.6a45.9776 45.9776 0 0 0 8.704 28.7744c15.4624 22.3232 94.5152 73.728 113.664 71.68 30.72 0 92.16-52.6336 108.4416-78.848a40.96 40.96 0 0 0 4.8128-17.3056v-30.72A15.4624 15.4624 0 0 0 641.4336 491.52c4.096-12.8 10.24-39.5264 10.24-39.8336 5.4272-16.9984-6.5536-25.4976-22.3232-25.1904z" fill="#F6CCA4" p-id="2188"></path><path d="M676.6592 688.3328l-3.4816-1.2288-5.9392-2.4576c-12.5952-5.4272-94.8224-33.4848-94.8224-33.4848a19.0464 19.0464 0 0 1-12.4928-11.0592 92.16 92.16 0 0 1-2.3552-29.9008A225.792 225.792 0 0 1 514.2528 624.64c-19.0464 1.8432-52.736-23.2448-52.736-23.2448s-0.9216 30.72-2.2528 37.9904a16.9984 16.9984 0 0 1-12.9024 11.5712l-79.2576 26.4192a171.9296 171.9296 0 0 0-22.2208 9.3184c-44.6464 19.0464-36.9664 140.9024-37.376 146.432 69.632 71.68 166.912 56.1152 274.7392 56.1152A258.3552 258.3552 0 0 0 716.8 847.6672c-4.4032-96.0512 3.4816-145.92-40.1408-159.3344z" fill="#EDBC94" p-id="2189"></path><path d="M416.8704 515.2768a20.48 20.1728 90 1 0 40.3456 0 20.48 20.1728 90 1 0-40.3456 0Z" fill="#F4989E" p-id="2190"></path><path d="M571.6992 515.2768a20.48 20.1728 90 1 0 40.3456 0 20.48 20.1728 90 1 0-40.3456 0Z" fill="#F4989E" p-id="2191"></path><path d="M479.232 547.1232a18.8416 18.8416 0 0 0-0.6144 4.8128c0 14.336 15.872 25.9072 35.328 25.9072s35.328-11.5712 35.328-25.9072a18.8416 18.8416 0 0 0-0.6144-4.8128z" fill="#6D1B18" p-id="2192"></path><path d="M532.48 573.44a31.3344 31.3344 0 0 0-37.2736 0A45.4656 45.4656 0 0 0 532.48 573.44z" fill="#EE3E54" p-id="2193"></path><path d="M489.3696 547.1232v4.8128c0 3.7888 5.12 6.9632 11.264 6.9632h26.7264c6.144 0 11.264-3.1744 11.264-6.9632v-4.8128z" fill="#FDFCEF" p-id="2194"></path><path d="M420.5568 659.7632l28.9792-10.24 59.904 140.1856L555.6224 675.84l11.4688-26.3168 69.12 20.48 15.872 206.5408s-147.2512 43.2128-294.912-13.7216l10.24-185.2416z" fill="#836F61" p-id="2195"></path><path d="M404.992 683.1104l49.5616 18.5344-19.456 26.7264 74.3424 61.8496-52.224-139.0592-52.224 31.9488zM613.888 683.1104l-52.224-31.9488-52.224 139.0592 74.3424-61.8496-19.456-26.7264 49.5616-18.5344z" fill="#FDFCEF" p-id="2196"></path><path d="M513.9456 527.2576a18.7392 18.7392 0 0 0 15.1552-8.4992 1.536 1.536 0 0 0 0-1.7408 0.9216 0.9216 0 0 0-1.536 0 17.1008 17.1008 0 0 1-27.0336 0 0.9216 0.9216 0 0 0-0.8192 0 0.9216 0.9216 0 0 0-0.6144 0 1.4336 1.4336 0 0 0 0 1.7408 18.432 18.432 0 0 0 14.848 8.4992zM523.0592 596.7872a0.9216 0.9216 0 0 0 0-1.8432H504.832a0.9216 0.9216 0 0 0 0 1.8432z" fill="#472B29" p-id="2197"></path><path d="M493.3632 413.7984a212.2752 212.2752 0 0 0-75.9808-7.9872 2.2528 2.2528 0 0 0-2.1504 1.9456 2.2528 2.2528 0 0 0 1.9456 2.048s52.0192 9.0112 68.096 14.6432h0.8192a2.3552 2.3552 0 0 0 2.048-0.8192l6.3488-6.9632a1.8432 1.8432 0 0 0 0-1.7408 2.2528 2.2528 0 0 0-1.1264-1.1264zM534.3232 411.7504a215.04 215.04 0 0 1 76.288-3.9936 2.1504 2.1504 0 0 1 2.048 2.048 2.2528 2.2528 0 0 1-2.048 2.048s-52.3264 6.2464-68.7104 11.0592h-0.8192a2.4576 2.4576 0 0 1-2.048-0.9216l-5.9392-7.2704a1.536 1.536 0 0 1 0-1.7408 2.2528 2.2528 0 0 1 1.2288-1.2288z" fill="#512C2B" p-id="2198"></path><path d="M457.0112 434.9952a14.1312 14.1312 0 0 0-12.288 8.4992 6.5536 6.5536 0 0 1 2.048 0 8.4992 8.4992 0 0 1 0 16.896 6.8608 6.8608 0 0 1-3.7888-1.1264 15.4624 15.4624 0 0 0 14.0288 13.2096 19.0464 19.0464 0 0 0 0-37.1712zM569.6512 434.9952a13.4144 13.4144 0 0 0-11.0592 6.3488 7.68 7.68 0 0 1 2.6624-0.512 8.4992 8.4992 0 0 1 0 16.896 7.4752 7.4752 0 0 1-6.3488-3.6864 15.1552 15.1552 0 1 0 14.7456-19.0464z" fill="#472B29" p-id="2199"></path><path d="M512 263.4752c-111.616 2.4576-141.6192 112.64-138.4448 109.8752a174.08 174.08 0 0 0 23.9616 98.6112 196.5056 196.5056 0 0 1 9.216-66.7648 111.104 111.104 0 0 0 4.8128 30.72c-0.9216-3.1744 46.8992-75.5712 100.7616-93.4912-3.2768 5.632-6.2464 11.3664-8.9088 17.1008s-11.3664 40.96-14.9504 42.0864A155.4432 155.4432 0 0 0 555.9296 348.16a51.2 51.2 0 0 0 7.7824-16.5888h4.096c0 1.3312 0.9216 2.6624 1.4336 3.8912a154.8288 154.8288 0 0 0 17.1008 26.112c22.6304 31.8464 42.496 71.68 40.1408 110.08 25.6-36.4544 17.92-79.36 8.0896-122.2656C634.88 348.16 603.0336 261.4272 512 263.4752z" fill="#EFA21B" p-id="2200"></path><path d="M478.565259 485.105928m-2.249019 0.130466a2.2528 2.2528 0 1 0 4.498038-0.260931 2.2528 2.2528 0 1 0-4.498038 0.260931Z" fill="#F4989E" p-id="2201"></path><path d="M481.92296 502.499713m-2.249019 0.130466a2.2528 2.2528 0 1 0 4.498038-0.260931 2.2528 2.2528 0 1 0-4.498038 0.260931Z" fill="#F4989E" p-id="2202"></path><path d="M469.1968 521.6256m-2.2528 0a2.2528 2.2528 0 1 0 4.5056 0 2.2528 2.2528 0 1 0-4.5056 0Z" fill="#F4989E" p-id="2203"></path><path d="M529.542776 489.728999m-2.249019 0.130466a2.2528 2.2528 0 1 0 4.498038-0.260931 2.2528 2.2528 0 1 0-4.498038 0.260931Z" fill="#F4989E" p-id="2204"></path><path d="M539.28341 504.398542m-2.249019 0.130465a2.2528 2.2528 0 1 0 4.498038-0.260931 2.2528 2.2528 0 1 0-4.498038 0.260931Z" fill="#F4989E" p-id="2205"></path><path d="M549.015432 488.808697m-2.249019 0.130466a2.2528 2.2528 0 1 0 4.498038-0.260931 2.2528 2.2528 0 1 0-4.498038 0.260931Z" fill="#F4989E" p-id="2206"></path></svg>