<?xml version="1.0" standalone="no"?><!DOCTYPE svg PUBLIC "-//W3C//DTD SVG 1.1//EN" "http://www.w3.org/Graphics/SVG/1.1/DTD/svg11.dtd"><svg t="1544736433583" class="icon" style="" viewBox="0 0 1024 1024" version="1.1" xmlns="http://www.w3.org/2000/svg" p-id="2748" xmlns:xlink="http://www.w3.org/1999/xlink" width="200" height="200"><defs><style type="text/css"></style></defs><path d="M201.8304 580.096m-9.1136 0a9.1136 9.1136 0 1 0 18.2272 0 9.1136 9.1136 0 1 0-18.2272 0Z" fill="#FFFFFF" p-id="2749"></path><path d="M806.5024 325.4272m-6.9632 0a6.9632 6.9632 0 1 0 13.9264 0 6.9632 6.9632 0 1 0-13.9264 0Z" fill="#FFFFFF" p-id="2750"></path><path d="M779.5712 130.4576m-9.1136 0a9.1136 9.1136 0 1 0 18.2272 0 9.1136 9.1136 0 1 0-18.2272 0Z" fill="#F1BC19" p-id="2751"></path><path d="M206.9504 658.6368m-9.1136 0a9.1136 9.1136 0 1 0 18.2272 0 9.1136 9.1136 0 1 0-18.2272 0Z" fill="#F1BC19" p-id="2752"></path><path d="M502.9888 511.6928m-383.488 0a383.488 383.488 0 1 0 766.976 0 383.488 383.488 0 1 0-766.976 0Z" fill="#F9DBD2" p-id="2753"></path><path d="M835.3792 152.576m-41.0624 0a41.0624 41.0624 0 1 0 82.1248 0 41.0624 41.0624 0 1 0-82.1248 0Z" fill="#F1BC19" p-id="2754"></path><path d="M876.3392 245.4528m-19.2512 0a19.2512 19.2512 0 1 0 38.5024 0 19.2512 19.2512 0 1 0-38.5024 0Z" fill="#EE3E54" p-id="2755"></path><path d="M784.384 782.1312m-19.2512 0a19.2512 19.2512 0 1 0 38.5024 0 19.2512 19.2512 0 1 0-38.5024 0Z" fill="#FBCD59" p-id="2756"></path><path d="M137.6256 649.6256m-41.0624 0a41.0624 41.0624 0 1 0 82.1248 0 41.0624 41.0624 0 1 0-82.1248 0Z" fill="#FBCD59" p-id="2757"></path><path d="M770.56 309.8624m-18.432 0a18.432 18.432 0 1 0 36.864 0 18.432 18.432 0 1 0-36.864 0Z" fill="#FFFFFF" p-id="2758"></path><path d="M175.9232 525.6192m-26.0096 0a26.0096 26.0096 0 1 0 52.0192 0 26.0096 26.0096 0 1 0-52.0192 0Z" fill="#FFFFFF" p-id="2759"></path><path d="M242.3808 896.7168m-19.2512 0a19.2512 19.2512 0 1 0 38.5024 0 19.2512 19.2512 0 1 0-38.5024 0Z" fill="#EE3E54" p-id="2760"></path><path d="M658.2272 650.4448a25.6 25.6 0 0 1-0.7168 2.6624c-2.3552 9.0112-5.0176 17.5104-7.8848 25.2928a116.5312 116.5312 0 0 1-17.1008 32.5632 45.4656 45.4656 0 0 1-10.24 9.728 48.64 48.64 0 0 1-28.3648 7.7824H419.84a49.2544 49.2544 0 0 1-29.3888-8.3968 53.8624 53.8624 0 0 1-9.6256-9.1136 116.5312 116.5312 0 0 1-17.1008-32.5632c-2.8672-7.7824-5.5296-16.2816-7.8848-25.2928a25.6 25.6 0 0 1-0.7168-2.6624c-28.16-107.7248-19.968-297.8816 41.984-355.2256a149.504 149.504 0 0 1 109.1584-44.2368 145.2032 145.2032 0 0 1 92.16 30.208 201.4208 201.4208 0 0 1 16.6912 14.0288 71.68 71.68 0 0 1 6.144 6.3488c56.6272 63.8976 63.3856 245.1456 36.9664 348.8768z" fill="#512C2B" p-id="2761"></path><path d="M629.3504 431.616c1.3312-15.4624-3.2768-28.8768-2.2528-36.5568-13.6192-16.7936-22.2208-36.7616-40.96-48.7424a239.3088 239.3088 0 0 0-69.632-28.8768c-58.368-14.7456-115.712 28.0576-133.7344 83.2512l-0.6144 1.024a202.5472 202.5472 0 0 1 3.7888 30.1056c-15.7696 0-23.7568 8.2944-18.3296 24.8832 0 0 6.144 26.9312 10.24 39.7312a15.36 15.36 0 0 0 15.1552 12.3904v25.6A46.2848 46.2848 0 0 0 401.408 563.2c15.4624 22.2208 94.5152 73.728 113.664 71.68 30.72 0 92.16-52.6336 108.4416-78.848a40.96 40.96 0 0 0 4.8128-17.3056v-30.72a15.2576 15.2576 0 0 0 13.0048-12.1856c4.096-12.8 10.24-39.5264 10.24-39.7312 5.5296-15.7696-6.4512-24.7808-22.2208-24.4736z" fill="#F6CCA4" p-id="2762"></path><path d="M676.6592 693.4528a29.3888 29.3888 0 0 1-3.4816-1.2288l-5.9392-2.4576c-12.5952-5.4272-94.8224-33.3824-94.8224-33.3824a19.456 19.456 0 0 1-12.4928-11.264 91.5456 91.5456 0 0 1-2.3552-29.7984 228.864 228.864 0 0 1-43.3152 14.5408c-19.0464 1.9456-52.736-23.2448-52.736-23.2448s-0.9216 30.72-2.2528 37.9904a17.3056 17.3056 0 0 1-12.9024 11.6736l-79.2576 26.4192a77.9264 77.9264 0 0 0-22.2208 9.3184 79.36 79.36 0 0 0-33.5872 47.9232c0 1.024-0.512 3.2768-0.9216 6.144a57.4464 57.4464 0 0 0-1.4336 13.824c0 4.7104-0.9216 75.8784-1.3312 81.92 96.3584 55.296 136.4992 52.224 244.3264 52.224 47.4112 0 121.856-45.4656 163.84-61.44-5.12-96.1536 4.5056-126.0544-39.1168-139.1616z" fill="#EDBC94" p-id="2763"></path><path d="M416.8704 520.3968a20.48 20.1728 90 1 0 40.3456 0 20.48 20.1728 90 1 0-40.3456 0Z" fill="#F4989E" p-id="2764"></path><path d="M571.6992 520.3968a20.48 20.1728 90 1 0 40.3456 0 20.48 20.1728 90 1 0-40.3456 0Z" fill="#F4989E" p-id="2765"></path><path d="M477.4912 562.176a18.8416 18.8416 0 0 0-0.6144 4.8128c0 14.336 15.7696 25.9072 35.328 25.9072s35.328-11.5712 35.328-25.9072a18.8416 18.8416 0 0 0-0.6144-4.8128z" fill="#6D1B18" p-id="2766"></path><path d="M530.8416 588.9024a31.3344 31.3344 0 0 0-37.2736 0 45.4656 45.4656 0 0 0 37.2736 0z" fill="#EE3E54" p-id="2767"></path><path d="M487.6288 562.176v4.4032c0 3.7888 5.12 6.9632 11.264 6.9632h26.8288c6.144 0 11.264-3.1744 11.264-6.9632v-4.4032z" fill="#FDFCEF" p-id="2768"></path><path d="M420.5568 664.9856c-1.1264 45.8752 87.1424 20.48 87.1424 20.48s84.8896 26.0096 78.5408-26.8288L636.2112 675.84l14.7456 191.2832s-143.36 60.6208-290.6112 5.4272l6.7584-189.3376z" fill="#836F61" p-id="2769"></path><path d="M507.6992 684.9536l-69.632-26.8288-20.0704 10.3424 37.5808 79.9744 52.1216-63.488zM507.6992 684.9536l69.632-26.8288 21.0944 8.4992-38.6048 81.8176-52.1216-63.488z" fill="#E6E7E8" p-id="2770"></path><path d="M512 542.72a27.2384 27.2384 0 0 0 20.48-9.216 1.3312 1.3312 0 0 0 0-1.9456 1.4336 1.4336 0 0 0-1.9456 0 26.7264 26.7264 0 0 1-36.6592 0 1.536 1.536 0 0 0-1.1264 0 1.1264 1.1264 0 0 0-0.8192 0 1.3312 1.3312 0 0 0 0 1.9456A27.2384 27.2384 0 0 0 512 542.72zM521.3184 611.84a0.9216 0.9216 0 0 0 0-1.8432h-18.2272a0.9216 0.9216 0 0 0 0 1.8432z" fill="#472B29" p-id="2771"></path><path d="M491.52 419.84a215.04 215.04 0 0 0-76.0832-7.8848 2.048 2.048 0 1 0 0 3.9936s51.9168 9.0112 67.9936 14.6432h0.8192a3.072 3.072 0 0 0 2.1504-0.8192l6.2464-6.9632a1.6384 1.6384 0 0 0 0-1.7408A2.4576 2.4576 0 0 0 491.52 419.84zM532.48 417.5872a213.4016 213.4016 0 0 1 76.3904-3.9936 2.1504 2.1504 0 0 1 1.9456 2.048 2.1504 2.1504 0 0 1-2.048 1.9456s-52.3264 6.2464-68.7104 11.1616h-0.8192a2.56 2.56 0 0 1-2.048-0.9216l-5.9392-7.2704a1.9456 1.9456 0 0 1 0-1.8432 2.6624 2.6624 0 0 1 1.2288-1.1264z" fill="#512C2B" p-id="2772"></path><path d="M454.9632 440.832a14.336 14.336 0 0 0-12.3904 8.4992 7.2704 7.2704 0 0 1 2.048 0 8.4992 8.4992 0 1 1-3.7888 15.872 15.7696 15.7696 0 0 0 14.1312 13.2096 19.1488 19.1488 0 0 0 0-37.1712zM567.5008 440.832a13.6192 13.6192 0 0 0-11.0592 6.3488 7.7824 7.7824 0 0 1 2.6624-0.6144 8.4992 8.4992 0 0 1 0 16.9984 7.5776 7.5776 0 0 1-6.3488-3.6864 15.1552 15.1552 0 1 0 14.7456-19.0464z" fill="#472B29" p-id="2773"></path><path d="M514.1504 274.7392c-111.7184 2.4576-142.2336 99.1232-147.5584 119.1936 2.9696-3.2768 5.9392-6.3488 9.0112-9.216C368.64 420.6592 389.12 450.56 404.7872 480.256 389.12 450.56 460.8 371.6096 514.3552 353.6896c-3.1744 5.632-6.144 11.3664-8.9088 17.1008s-11.3664 40.96-14.9504 42.0864a155.2384 155.2384 0 0 0 67.584-53.8624 52.1216 52.1216 0 0 0 7.7824-16.4864c-4.9152 66.048 65.024 100.9664 62.7712 139.776 25.6-36.4544 17.8176-79.36 8.0896-122.2656-0.1024-0.1024-31.5392-87.2448-122.5728-85.2992z" fill="#512C2B" p-id="2774"></path><path d="M635.4944 434.0736A63.8976 63.8976 0 0 0 611.328 430.08a286.72 286.72 0 0 0-35.84 2.6624 190.976 190.976 0 0 0-45.568 14.2336 33.792 33.792 0 0 1-32.256 0 190.976 190.976 0 0 0-45.568-14.2336 286.72 286.72 0 0 0-35.9424-2.6624 64.6144 64.6144 0 0 0-24.064 3.4816c-4.7104 2.8672-5.2224 5.9392-2.6624 16.384a95.744 95.744 0 0 0 10.9568 26.112v0.9216a81.92 81.92 0 0 0 35.6352 30.72 49.7664 49.7664 0 0 0 36.6592 0 65.9456 65.9456 0 0 0 27.136-24.9856l1.9456-2.4576c2.2528-4.3008 6.3488-12.1856 9.216-12.3904H516.8128c2.8672 0 6.9632 8.192 9.216 12.3904l1.3312 2.6624a65.9456 65.9456 0 0 0 27.136 24.9856 47.4112 47.4112 0 0 0 17.92 3.584 54.8864 54.8864 0 0 0 18.7392-3.4816 82.432 82.432 0 0 0 35.6352-30.72l0.6144-0.9216A103.2192 103.2192 0 0 0 638.1568 450.56c2.56-10.24 2.048-13.7216-2.6624-16.4864zM532.48 460.8s3.072-8.3968 19.7632-12.9024a161.792 161.792 0 0 1 38.0928-6.2464h2.1504c11.776 0.6144 18.8416 2.9696 20.48 6.9632a34.6112 34.6112 0 0 1-2.56 32.1536 60.5184 60.5184 0 0 1-28.672 18.8416 39.3216 39.3216 0 0 1-32.768-5.8368A49.9712 49.9712 0 0 1 533.1968 471.04a16.4864 16.4864 0 0 1-0.7168-10.24z m-55.0912 33.0752a39.3216 39.3216 0 0 1-32.768 5.8368 60.5184 60.5184 0 0 1-28.672-18.8416 34.9184 34.9184 0 0 1-2.6624-32.1536c2.1504-3.9936 9.216-6.3488 20.992-6.9632h2.1504a161.792 161.792 0 0 1 38.0928 6.2464c16.6912 4.5056 19.7632 12.8 19.8656 13.0048a17.6128 17.6128 0 0 1 0 11.0592 48.9472 48.9472 0 0 1-16.5888 21.2992z" fill="#EE3E54" p-id="2775"></path></svg>