<?xml version="1.0" standalone="no"?><!DOCTYPE svg PUBLIC "-//W3C//DTD SVG 1.1//EN" "http://www.w3.org/Graphics/SVG/1.1/DTD/svg11.dtd"><svg t="1544024452034" class="icon" style="" viewBox="0 0 1024 1024" version="1.1" xmlns="http://www.w3.org/2000/svg" p-id="8816" xmlns:xlink="http://www.w3.org/1999/xlink" width="200" height="200"><defs><style type="text/css"></style></defs><path d="M419.350975 232.751996H605.989964c25.705998 0 46.541997-20.836999 46.541998-46.543997 0-25.703998-20.835999-46.544997-46.541998-46.544997H419.350975c-25.706998 0-46.544997 20.840999-46.544997 46.544997 0 25.706998 20.837999 46.543997 46.544997 46.543997z m418.710976 0c-25.706998 0-46.546997-20.836999-46.546997-46.543997 0-25.703998 20.839999-46.544997 46.546997-46.544997 102.613994-0.076 185.865989 83.047995 185.937989 185.663989V837.819961C1023.99994 940.596955 940.690945 1023.99995 838.103951 1023.99995H185.931989C83.340995 1024.07295 0.113 940.972955 0.035 838.384961V325.839991c0-102.814994 83.172995-186.176989 185.896989-186.176989 25.706998-0.011 46.551997 20.819999 46.562997 46.525997 0.011 25.703998-20.818999 46.552997-46.522997 46.562997h-0.039c-51.309997 0.05-92.858995 41.686998-92.809994 92.992995 0 0.031 0 0.063 0.002 0.095v511.97997c0 51.665997 41.421998 93.089995 92.807994 93.089994h652.171962c51.152997 0 92.812995-41.700998 92.812994-93.089994V325.839991c-0.002-51.664997-41.431998-93.087995-92.855994-93.087995zM209.481988 465.470983c-25.703998 0-46.542997-20.837999-46.542998-46.541998 0-25.705998 20.838999-46.544997 46.542998-46.544997h46.543997c25.703998 0 46.545997 20.838999 46.545997 46.544997 0 25.703998-20.841999 46.541997-46.545997 46.541998h-46.543997z m186.175989 0c-25.703998 0-46.544997-20.837999-46.544997-46.541998 0-25.705998 20.840999-46.544997 46.544997-46.544997h46.544997c25.703998 0 46.541997 20.838999 46.541997 46.544997 0 25.703998-20.837999 46.541997-46.541997 46.541998h-46.544997z m186.176989 0c-25.706998 0-46.546997-20.837999-46.546997-46.541998 0-25.705998 20.839999-46.544997 46.546997-46.544997h46.540997c25.707998 0 46.547997 20.838999 46.547997 46.544997 0 25.703998-20.839999 46.541997-46.547997 46.541998h-46.540997z m186.173989 0c-25.706998 0-46.542997-20.837999-46.542997-46.541998 0-25.705998 20.835999-46.544997 46.542997-46.544997h46.540997c25.706998 0 46.548997 20.838999 46.548998 46.544997 0 25.703998-20.841999 46.541997-46.548998 46.541998h-46.540997zM209.481988 651.646972c-25.703998 0.016-46.558997-20.804999-46.576998-46.511997-0.018-25.700998 20.804999-46.556997 46.511998-46.577998H256.025985c25.703998-0.016 46.558997 20.803999 46.576997 46.510998 0.018 25.706998-20.804999 46.562997-46.511997 46.578997H209.481988z m186.175989 0c-25.703998 0.016-46.557997-20.804999-46.575997-46.511997-0.019-25.700998 20.803999-46.556997 46.510997-46.577998h46.609997c25.703998-0.016 46.557997 20.803999 46.575997 46.510998 0.018 25.706998-20.803999 46.562997-46.510997 46.578997h-46.609997z m186.176989 0c-25.706998 0.016-46.557997-20.804999-46.578997-46.511997-0.021-25.700998 20.803999-46.556997 46.510997-46.577998H628.381963c25.701998-0.016 46.552997 20.803999 46.572997 46.510998 0.021 25.706998-20.802999 46.562997-46.510997 46.578997h-46.608997z m186.173989 0c-25.706998 0.016-46.558997-20.804999-46.573997-46.511997-0.021-25.700998 20.804999-46.556997 46.511997-46.577998h46.603997c25.706998-0.016 46.563997 20.803999 46.584998 46.510998 0.016 25.706998-20.809999 46.562997-46.511998 46.578997h-46.614997zM209.481988 837.819961c-25.703998 0.021-46.558997-20.803999-46.576998-46.509997-0.018-25.706998 20.804999-46.552997 46.511998-46.572998H256.025985c25.703998-0.021 46.558997 20.803999 46.576997 46.509998 0.018 25.706998-20.804999 46.557997-46.508997 46.572997H209.481988z m186.175989 0c-25.703998 0.021-46.557997-20.803999-46.575997-46.509997-0.019-25.706998 20.803999-46.552997 46.510997-46.572998h46.609997c25.703998-0.021 46.557997 20.803999 46.575997 46.509998 0.018 25.706998-20.803999 46.557997-46.510997 46.572997h-46.609997z m186.176989 0c-25.706998 0.021-46.557997-20.803999-46.578997-46.509997-0.021-25.706998 20.803999-46.552997 46.510997-46.572998H628.381963c25.701998-0.021 46.552997 20.803999 46.572997 46.509998 0.021 25.706998-20.802999 46.557997-46.510997 46.572997h-46.608997z m186.173989 0c-25.706998 0.021-46.558997-20.803999-46.573997-46.509997-0.021-25.706998 20.804999-46.552997 46.511997-46.572998h46.603997c25.706998-0.021 46.563997 20.803999 46.584998 46.509998 0.016 25.706998-20.809999 46.557997-46.511998 46.572997h-46.614997zM257.606985 46.576007c0-25.703998 20.840999-46.544997 46.545997-46.544997 25.705998 0 46.543997 20.840999 46.543997 46.544997v232.720987c0 25.704998-20.837999 46.542997-46.543997 46.542997-25.704998 0-46.545997-20.837999-46.545997-46.542997v-232.720987z m416.569975 0c-0.016-25.703998 20.808999-46.557997 46.510998-46.575997 25.705998-0.018 46.557997 20.803999 46.578997 46.507997V279.296994c0.021 25.704998-20.804999 46.558997-46.511997 46.575997-25.706998 0.019-46.562997-20.805999-46.577998-46.510997v-232.785987z" p-id="8817"></path></svg>