<?xml version="1.0" standalone="no"?><!DOCTYPE svg PUBLIC "-//W3C//DTD SVG 1.1//EN" "http://www.w3.org/Graphics/SVG/1.1/DTD/svg11.dtd"><svg t="1544465764134" class="icon" style="" viewBox="0 0 1024 1024" version="1.1" xmlns="http://www.w3.org/2000/svg" p-id="6678" xmlns:xlink="http://www.w3.org/1999/xlink" width="200" height="200"><defs><style type="text/css"></style></defs><path d="M950.8625 73.15h-146.25V36.575C804.6125 14.625 789.9875 0 768.0375 0s-36.6375 14.625-36.6375 36.575v36.5625H292.575V36.575C292.575 14.625 277.95 0 256 0s-36.575 14.625-36.575 36.575v36.5625h-146.25C29.2875 73.1375 0.025 102.4 0.025 138.9625v819.2125c0 36.5625 29.2625 65.825 73.15 65.825h877.6875c43.8875 0 73.1375-29.2625 73.1375-65.825V138.975c0-36.5625-29.2625-65.825-73.1375-65.825z m-804.575 73.1375h73.15v36.575c0 21.9375 14.625 36.575 36.575 36.575s36.575-14.625 36.575-36.575v-36.575h438.8125v36.575c0 21.9375 14.625 36.575 36.575 36.575s36.575-14.625 36.575-36.575v-36.575h73.15c43.875 0 73.15 29.2625 73.15 73.15v73.15H73.15v-73.1c0-43.8875 29.2625-73.15 73.1375-73.15z m731.425 804.575H146.2875c-43.8875 0-73.1375-29.2625-73.1375-73.15V365.7375h877.7125v512c0 43.8875-29.2625 73.15-73.15 73.15zM219.425 475.425h-73.1375c-21.9375 0-36.5625 14.625-36.5625 36.575s14.625 36.5625 36.5625 36.5625h73.15c21.95 0 36.575-14.625 36.575-36.5625s-14.625-36.575-36.575-36.575z m219.425 0h-73.1375c-21.9375 0-36.575 14.625-36.575 36.575s14.625 36.5625 36.575 36.5625h73.1875c21.9375 0 36.575-14.625 36.575-36.5625s-14.625-36.575-36.575-36.575z m219.425 0h-73.125c-21.9375 0-36.575 14.625-36.575 36.575s14.625 36.5625 36.575 36.5625h73.15c21.9375 0 36.575-14.625 36.575-36.5625s-14.625-36.575-36.575-36.575z m219.425 0h-73.125c-21.9375 0-36.575 14.625-36.575 36.575s14.625 36.5625 36.575 36.5625h73.15c21.9375 0 36.575-14.625 36.575-36.5625s-14.625-36.575-36.575-36.575z m-658.2875 146.25h-73.125c-21.9375 0-36.5625 14.625-36.5625 36.575s14.625 36.575 36.5625 36.575h73.15c21.95 0 36.575-14.625 36.575-36.575s-14.625-36.575-36.575-36.575z m219.425 0h-73.125c-21.9375 0-36.575 14.625-36.575 36.575s14.625 36.575 36.575 36.575h73.1875c21.9375 0 36.575-14.625 36.575-36.575s-14.625-36.575-36.575-36.575z m219.425 0h-73.1125c-21.9375 0-36.575 14.625-36.575 36.575s14.625 36.6125 36.575 36.6125h73.15c21.9375 0 36.575-14.625 36.575-36.575s-14.625-36.575-36.575-36.575z m219.425 0h-73.1125c-21.9375 0-36.575 14.625-36.575 36.575s14.65 36.6125 36.575 36.6125h73.15c21.9375 0 36.575-14.625 36.575-36.575s-14.625-36.575-36.575-36.575z m-658.2875 146.25h-73.1125c-21.9375 0-36.5625 14.625-36.5625 36.575s14.625 36.575 36.5625 36.575h73.15c21.95 0 36.575-14.625 36.575-36.575s-14.625-36.575-36.575-36.575z m219.425 0h-73.1125c-21.9375 0-36.575 14.625-36.575 36.575s14.625 36.575 36.575 36.575h73.1875c21.9375 0 36.575-14.625 36.575-36.575s-14.625-36.575-36.575-36.575z m219.425 0h-73.1c-21.9375 0-36.575 14.625-36.575 36.575s14.625 36.575 36.575 36.575h73.15c21.9375 0 36.575-14.625 36.575-36.575s-14.625-36.575-36.575-36.575z m219.425 0h-73.1c-21.9375 0-36.575 14.625-36.575 36.575s14.625 36.575 36.575 36.575h73.15c21.9375 0 36.575-14.625 36.575-36.575s-14.625-36.575-36.575-36.575z m0 0" p-id="6679"></path></svg>