<?xml version="1.0" standalone="no"?><!DOCTYPE svg PUBLIC "-//W3C//DTD SVG 1.1//EN" "http://www.w3.org/Graphics/SVG/1.1/DTD/svg11.dtd"><svg t="1544024479602" class="icon" style="" viewBox="0 0 1024 1024" version="1.1" xmlns="http://www.w3.org/2000/svg" p-id="9566" xmlns:xlink="http://www.w3.org/1999/xlink" width="200" height="200"><defs><style type="text/css"></style></defs><path d="M832 938.666667h-640C132.266667 938.666667 85.333333 891.733333 85.333333 832v-554.666667C85.333333 217.6 132.266667 170.666667 192 170.666667h640C891.733333 170.666667 938.666667 217.6 938.666667 277.333333v554.666667c0 59.733333-46.933333 106.666667-106.666667 106.666667zM192 213.333333C157.866667 213.333333 128 243.2 128 277.333333v554.666667c0 34.133333 29.866667 64 64 64h640c34.133333 0 64-29.866667 64-64v-554.666667c0-34.133333-29.866667-64-64-64h-640z" fill="" p-id="9567"></path><path d="M128 384h768v42.666667H128zM256 85.333333h42.666667v213.333334H256zM725.333333 85.333333h42.666667v213.333334h-42.666667zM277.333333 597.333333h-42.666666c-12.8 0-21.333333-8.533333-21.333334-21.333333v-42.666667c0-12.8 8.533333-21.333333 21.333334-21.333333h42.666666c12.8 0 21.333333 8.533333 21.333334 21.333333v42.666667c0 12.8-8.533333 21.333333-21.333334 21.333333zM448 597.333333h-42.666667c-12.8 0-21.333333-8.533333-21.333333-21.333333v-42.666667c0-12.8 8.533333-21.333333 21.333333-21.333333h42.666667c12.8 0 21.333333 8.533333 21.333333 21.333333v42.666667c0 12.8-8.533333 21.333333-21.333333 21.333333zM618.666667 597.333333h-42.666667c-12.8 0-21.333333-8.533333-21.333333-21.333333v-42.666667c0-12.8 8.533333-21.333333 21.333333-21.333333h42.666667c12.8 0 21.333333 8.533333 21.333333 21.333333v42.666667c0 12.8-8.533333 21.333333-21.333333 21.333333zM789.333333 597.333333h-42.666666c-12.8 0-21.333333-8.533333-21.333334-21.333333v-42.666667c0-12.8 8.533333-21.333333 21.333334-21.333333h42.666666c12.8 0 21.333333 8.533333 21.333334 21.333333v42.666667c0 12.8-8.533333 21.333333-21.333334 21.333333zM277.333333 768h-42.666666c-12.8 0-21.333333-8.533333-21.333334-21.333333v-42.666667c0-12.8 8.533333-21.333333 21.333334-21.333333h42.666666c12.8 0 21.333333 8.533333 21.333334 21.333333v42.666667c0 12.8-8.533333 21.333333-21.333334 21.333333zM448 768h-42.666667c-12.8 0-21.333333-8.533333-21.333333-21.333333v-42.666667c0-12.8 8.533333-21.333333 21.333333-21.333333h42.666667c12.8 0 21.333333 8.533333 21.333333 21.333333v42.666667c0 12.8-8.533333 21.333333-21.333333 21.333333zM618.666667 768h-42.666667c-12.8 0-21.333333-8.533333-21.333333-21.333333v-42.666667c0-12.8 8.533333-21.333333 21.333333-21.333333h42.666667c12.8 0 21.333333 8.533333 21.333333 21.333333v42.666667c0 12.8-8.533333 21.333333-21.333333 21.333333z" fill="" p-id="9568"></path></svg>