<?xml version="1.0" standalone="no"?><!DOCTYPE svg PUBLIC "-//W3C//DTD SVG 1.1//EN" "http://www.w3.org/Graphics/SVG/1.1/DTD/svg11.dtd"><svg t="1550019322668" class="icon" style="" viewBox="0 0 1024 1024" version="1.1" xmlns="http://www.w3.org/2000/svg" p-id="2266" xmlns:xlink="http://www.w3.org/1999/xlink" width="200" height="200"><defs><style type="text/css"></style></defs><path d="M829.44 227.328H199.68c-14.336 0-26.112 11.776-26.112 26.112v656.384c0 62.976 50.688 113.664 113.664 113.664H742.4c62.976 0 113.664-50.688 113.664-113.664V253.952c0-14.848-11.776-26.624-26.624-26.624zM880.128 66.56h-174.592l-37.888-53.248C661.504 5.12 651.776 0 641.536 0H382.464c-10.24 0-19.968 5.12-26.112 13.312L318.464 66.56H143.872c-15.872 0-28.672 12.8-28.672 28.672v65.024c0 15.872 12.8 28.672 28.672 28.672h735.744c15.872 0 28.672-12.8 28.672-28.672V95.232c0.512-15.872-12.288-28.672-28.16-28.672z" p-id="2267"></path></svg>