<?xml version="1.0" standalone="no"?><!DOCTYPE svg PUBLIC "-//W3C//DTD SVG 1.1//EN" "http://www.w3.org/Graphics/SVG/1.1/DTD/svg11.dtd"><svg t="1550019206534" class="icon" style="" viewBox="0 0 1031 1024" version="1.1" xmlns="http://www.w3.org/2000/svg" p-id="1206" xmlns:xlink="http://www.w3.org/1999/xlink" width="201.3671875" height="200"><defs><style type="text/css"></style></defs><path d="M347.136 552.96c-20.48 0-37.376 16.384-37.376 36.864s16.384 37.376 36.864 37.376l178.688 1.536-0.512 80.384c0 14.336 16.896 21.504 27.136 11.776l165.376-116.224c6.656-6.144 6.656-16.896 0-23.04l-163.328-118.784c-10.24-9.728-27.136-2.56-27.136 11.264l-0.512 80.384-179.2-1.536z" p-id="1207"></path><path d="M980.48 251.904l-339.968-2.56-162.304-177.152c-9.728-10.752-23.04-16.384-37.376-16.896l-377.856-2.56c-28.16 0-51.2 22.528-51.712 50.688L0 913.408c0 13.824 5.12 26.624 14.848 36.352 9.728 9.728 22.528 15.36 36.352 15.36l924.16 6.656c28.16 0 51.2-22.528 51.712-50.688l4.608-616.96c-0.512-28.672-23.04-51.712-51.2-52.224z m-55.808 616.96l-821.248-6.144 9.728-707.584 304.64 2.048 161.792 177.664c9.728 10.752 23.04 16.384 37.376 16.896l311.296 2.048-3.584 515.072z" p-id="1208"></path></svg>